{
.appVersion = "3217";
.formatVersion = 3;
DisplayStrings = (
" ",
"𝅙",
"𝅦𝇁𝇂𝇃𝇆"
);
axes = (
{
name = Weight;
tag = wght;
},
{
name = Width;
tag = wdth;
}
);
classes = (
{
code = "u1D160 u1D161 u1D162 u1D163 u1D164 u1D1BD u1D1BE u1D1BF u1D1C0";
name = class1;
},
{
code = "u1D206 u1D209 u1D213 u1D215 u1D221 u1D228 u1D22A u1D22B u1D22C u1D22E u1D230 u1D23F";
name = class2;
},
{
code = "u1D129 u1D13A u1D13B u1D13C u1D13D u1D13E u1D13F u1D140 u1D141 u1D142";
name = class3;
},
{
code = "null_notehead.visible u1D143 u1D144 u1D145 u1D146 u1D147 u1D148 u1D149 u1D14A u1D14B u1D14C u1D14D u1D14E u1D14F u1D150 u1D151 u1D152 u1D153 u1D154 u1D155 u1D156 u1D157 u1D158 u1D15A u1D15B u1D15C u1D15D u1D1B9 u1D1BA
";
name = class6;
},
{
code = "u1D165 u1D165_b u1D165_ext u1D165_ext2 u1D165_short u1D165_short.alt u1D165_short2 u1D166 u1D166_b u1D166_ext u1D166_ext2 u1D166_short u1D166_short.alt u1D166_short2";
name = class7;
},
{
code = "u1D15E u1D15F u1D160 u1D161 u1D162 u1D163 u1D164 u1D1BB u1D1BC u1D1BD u1D1BE u1D1BF u1D1C0";
name = class27;
},
{
code = "u1D16D u1D16E u1D16F u1D170 u1D171 u1D172";
name = markAttachmentSet1;
},
{
code = "u1D165_b u1D165_ext u1D165_ext2 u1D165_short u1D165_short.alt u1D165_short2 u1D166_b u1D166_ext u1D166_ext2 u1D166_short u1D166_short.alt u1D166_short2";
name = class31;
},
{
code = "u1D167 u1D167_low u1D168 u1D168_low u1D169 u1D169_low";
name = class32;
},
{
code = "u1D17B u1D17C u1D17D u1D17E u1D17F u1D180 u1D181 u1D182 u1D18A u1D18B";
name = class43;
},
{
code = "u1D14A u1D14B u1D14C u1D14D u1D150 u1D151";
name = class49;
},
{
code = "u1D185 u1D186 u1D187 u1D188 u1D189 u1D1AA u1D1AB u1D1AC u1D1AD";
name = class64;
},
{
code = "u1D165
u1D166
u1D167
u1D168
u1D169
u1D16D
u1D16E
u1D16F
u1D170
u1D171
u1D172
u1D17B
u1D17C
u1D17D
u1D17E
u1D17F
u1D180
u1D181
u1D182
u1D185
u1D186
u1D187
u1D188
u1D189
u1D18A
u1D18B
u1D1AA
u1D1AB
u1D1AC
u1D1AD
u1D242
u1D243
u1D244
u1D167_low
u1D168_low
u1D169_low
u1D242.alt
u1D243.alt
u1D244.alt
";
name = all_marks;
},
{

glyphs = (
{
glyphname = .notdef;
lastChange = "2018-08-24 12:55:27 +0000";
layers = (
{
layerId = "2208DBFF-11B0-48D9-BA6B-B988DFB8211A";
shapes = (
{
closed = 1;
nodes = (
(94,0,l),
(505,0,l),
(505,714,l),
(94,714,l)
);
},
{
closed = 1;
nodes = (
(145,663,l),
(454,663,l),
(454,51,l),
(145,51,l)
);
}
);
width = 600;
}
);
note = ".notdef";
},
{
category = Letter;
glyphname = uni25CC;
lastChange = "2018-08-27 13:38:43 +0000";
layers = (
{
anchors = (
{
name = Anchor11;
pos = (297,567);
},
{
name = Anchor13;
pos = (297,-46);
},
{
name = Anchor15;
pos = (297,-20);
},
{
name = Anchor17;
pos = (597,178);
},
{
name = exit;
pos = (432,1009);
}
);
layerId = "2208DBFF-11B0-48D9-BA6B-B988DFB8211A";
shapes = (
{
closed = 1;
nodes = (
(437,475,o),
(428,466,o),
(428,448,cs),
(428,431,o),
(437,422,o),
(455,422,cs),
(472,422,o),
(480,431,o),
(480,448,cs),
(480,466,o),
(472,475,o),
(455,475,cs)
);
},
{
closed = 1;
nodes = (
(364,523,o),
(355,514,o),
(355,496,cs),
(355,479,o),
(364,470,o),
(383,470,cs),
(400,470,o),
(408,479,o),
(408,496,cs),
(408,514,o),
(400,523,o),
(383,523,cs)
);
},
{
closed = 1;
nodes = (
(485,402,o),
(476,393,o),
(476,376,cs),
(476,358,o),
(485,349,o),
(502,349,cs),
(520,349,o),
(529,358,o),
(529,376,cs),
(529,393,o),
(520,402,o),
(503,402,cs)
);
},
{
closed = 1;
nodes = (
(503,317,o),
(494,308,o),
(494,291,cs),
(494,274,o),
(503,265,o),
(521,265,cs),
(538,265,o),
(546,274,o),
(546,291,cs),
(546,308,o),
(538,317,o),
(521,317,cs)
);
},
{
closed = 1;
nodes = (
(280,540,o),
(271,531,o),
(271,514,cs),
(271,496,o),
(280,487,o),
(297,487,cs),
(314,487,o),
(323,496,o),
(323,514,cs),
(323,531,o),
(314,540,o),
(297,540,cs)
);
},
{
closed = 1;
nodes = (
(195,523,o),
(186,514,o),
(186,496,cs),
(186,479,o),
(195,470,o),
(212,470,cs),
(230,470,o),
(239,479,o),
(239,496,cs),
(239,514,o),
(230,523,o),
(212,523,cs)
);
},
{
closed = 1;
nodes = (
(485,233,o),
(476,224,o),
(476,206,cs),
(476,189,o),
(485,180,o),
(502,180,cs),
(520,180,o),
(529,189,o),
(529,206,cs),
(529,224,o),
(520,233,o),
(502,233,cs)
);
},
{
closed = 1;
nodes = (
(123,475,o),
(114,466,o),
(114,447,cs),
(114,430,o),
(123,422,o),
(140,422,cs),
(158,422,o),
(167,431,o),
(167,448,cs),
(167,466,o),
(158,475,o),
(140,475,cs)
);
},
{
closed = 1;
nodes = (
(437,160,o),
(428,151,o),
(428,133,cs),
(428,116,o),
(437,107,o),
(455,107,cs),
(472,107,o),
(480,116,o),
(480,133,cs),
(480,151,o),
(472,160,o),
(455,160,cs)
);
},
{
closed = 1;
nodes = (
(364,112,o),
(355,103,o),
(355,85,cs),
(355,68,o),
(364,60,o),
(383,60,cs),
(400,60,o),
(408,68,o),
(408,85,cs),
(408,103,o),
(400,112,o),
(383,112,cs)
);
},
{
closed = 1;
nodes = (
(74,402,o),
(65,393,o),
(65,376,cs),
(65,358,o),
(74,349,o),
(93,349,cs),
(110,349,o),
(118,358,o),
(118,376,cs),
(118,393,o),
(109,402,o),
(92,402,cs)
);
},
{
closed = 1;
nodes = (
(57,317,o),
(48,308,o),
(48,291,cs),
(48,274,o),
(57,265,o),
(75,265,cs),
(92,265,o),
(101,274,o),
(101,291,cs),
(101,308,o),
(92,317,o),
(75,317,cs)
);
},
{
closed = 1;
nodes = (
(280,95,o),
(271,86,o),
(271,69,cs),
(271,51,o),
(280,42,o),
(297,42,cs),
(314,42,o),
(323,51,o),
(323,69,cs),
(323,86,o),
(314,95,o),
(297,95,cs)
);
},
{
closed = 1;
nodes = (
(74,233,o),
(65,224,o),
(65,206,cs),
(65,189,o),
(74,180,o),
(92,180,cs),
(109,180,o),
(118,189,o),
(118,206,cs),
(118,224,o),
(109,233,o),
(92,233,cs)
);
},
{
closed = 1;
nodes = (
(195,112,o),
(186,103,o),
(186,85,cs),
(186,68,o),
(195,60,o),
(212,60,cs),
(230,60,o),
(239,69,o),
(239,87,cs),
(239,104,o),
(230,112,o),
(212,112,cs)
);
},
{
closed = 1;
nodes = (
(123,160,o),
(114,151,o),
(114,133,cs),
(114,116,o),
(123,107,o),
(140,107,cs),
(158,107,o),
(167,116,o),
(167,133,cs),
(167,151,o),
(158,160,o),
(140,160,cs)
);
}
);
width = 594;
}
);
note = uni25CC;
unicode = 9676;
},
{
category = Letter;
glyphname = uni2669;
lastChange = "2018-08-27 13:38:23 +0000";
layers = (
{
anchors = (
{
name = Anchor13;
pos = (194,583);
},
{
name = Anchor15;
pos = (136,-5);
},
{
name = Anchor17;
pos = (282,114);
}
);
layerId = "2208DBFF-11B0-48D9-BA6B-B988DFB8211A";
shapes = (
{
closed = 1;
nodes = (
(194,148,l),
(179,154,o),
(164,157,o),
(150,157,cs),
(99,157,o),
(51,114,o),
(51,63,cs),
(51,34,o),
(70,14,o),
(107,14,cs),
(177,14,o),
(231,68,o),
(231,148,cs),
(231,563,l),
(194,563,l)
);
}
);
width = 282;
}
);
note = uni2669;
unicode = 9833;
},
{
category = Letter;
glyphname = musicalnote;
lastChange = "2018-08-27 13:38:23 +0000";
layers = (
{
anchors = (
{
name = Anchor13;
pos = (194,583);
},
{
name = Anchor15;
pos = (136,-5);
},
{
name = Anchor17;
pos = (409,163);
}
);
layerId = "2208DBFF-11B0-48D9-BA6B-B988DFB8211A";
shapes = (
{
closed = 1;
nodes = (
(194,148,l),
(179,154,o),
(164,157,o),
(150,157,cs),
(99,157,o),
(51,114,o),
(51,63,cs),
(51,34,o),
(70,14,o),
(107,14,cs),
(177,14,o),
(231,68,o),
(231,148,cs),
(231,395,l),
(272,389,o),
(318,332,o),
(318,254,cs),
(318,214,o),
(309,174,o),
(290,133,c),
(313,133,l),
(344,172,o),
(359,216,o),
(359,265,cs),
(359,320,o),
(342,374,o),
(305,420,cs),
(231,514,l),
(231,563,l),
(194,563,l)
);
}
);
width = 410;
}
);
note = musicalnote;
unicode = 9834;
},
{
category = Letter;
glyphname = musicalnotedbl;
lastChange = "2018-08-27 13:38:21 +0000";
layers = (
{
anchors = (
{
name = Anchor11;
pos = (365,566);
},
{
name = Anchor15;
pos = (276,-31);
},
{
name = Anchor17;
pos = (586,69);
}
);
layerId = "2208DBFF-11B0-48D9-BA6B-B988DFB8211A";
shapes = (
{
closed = 1;
nodes = (
(499,113,l),
(485,119,o),
(470,122,o),
(455,122,cs),
(404,122,o),
(357,81,o),
(357,28,cs),
(357,-3,o),
(375,-21,o),
(413,-21,cs),
(474,-21,o),
(535,30,o),
(535,113,cs),
(535,521,l),
(194,566,l),
(194,157,l),
(179,163,o),
(164,166,o),
(147,166,cs),
(95,166,o),
(51,120,o),
(51,72,cs),
(51,42,o),
(70,24,o),
(107,24,cs),
(182,24,o),
(230,81,o),
(230,157,cs),
(230,486,l),
(499,451,l)
);
}
);
width = 586;
}
);
note = musicalnotedbl;
unicode = 9835;
},
{
category = Letter;
glyphname = uni266C;
lastChange = "2018-08-27 13:38:21 +0000";
layers = (
{
anchors = (
{
name = Anchor11;
pos = (364,566);
},
{
name = Anchor15;
pos = (312,-31);
},
{
name = Anchor17;
pos = (586,114);
}
);
layerId = "2208DBFF-11B0-48D9-BA6B-B988DFB8211A";
shapes = (
{
closed = 1;
nodes = (
(535,566,l),
(194,479,l),
(194,112,l),
(179,118,o),
(164,121,o),
(147,121,cs),
(95,121,o),
(51,75,o),
(51,27,cs),
(51,-2,o),
(70,-21,o),
(107,-21,cs),
(182,-21,o),
(230,36,o),
(230,112,cs),
(230,304,l),
(499,377,l),
(499,158,l),
(485,164,o),
(470,167,o),
(455,167,cs),
(404,167,o),
(357,126,o),
(357,73,cs),
(357,42,o),
(375,24,o),
(413,24,cs),
(474,24,o),
(535,74,o),
(535,158,cs)
);
},
{
closed = 1;
nodes = (
(230,422,l),
(499,496,l),
(499,439,l),
(230,366,l)
);
}
);
width = 586;
}
);
note = uni266C;
unicode = 9836;
},
{
category = Letter;
glyphname = uni266D;
lastChange = "2022-02-22 01:35:00 +0000";
layers = (
{
layerId = "2208DBFF-11B0-48D9-BA6B-B988DFB8211A";
shapes = (
{
closed = 1;
nodes = (
(50,-55,l),
(65,-36,o),
(84,-16,o),
(110,6,cs),
(179,65,ls),
(221,101,o),
(249,135,o),
(249,178,cs),
(249,232,o),
(208,262,o),
(165,262,cs),
(134,262,o),
(106,250,o),
(81,225,c),
(81,615,l),
(50,615,l)
);
},
{
closed = 1;
nodes = (
(81,180,l),
(89,207,o),
(112,223,o),
(134,223,cs),
(154,223,o),
(175,207,o),
(175,170,cs),
(175,151,o),
(167,130,o),
(153,105,cs),
(139,81,o),
(115,49,o),
(81,12,c)
);
}
);
width = 299;
}
);
note = uni266D;
unicode = 9837;
},
{
category = Letter;
glyphname = uni266E;
lastChange = "2022-02-22 00:43:37 +0000";
layers = (
{
layerId = "2208DBFF-11B0-48D9-BA6B-B988DFB8211A";
shapes = (
{
closed = 1;
nodes = (
(83,279,l),
(83,486,l),
(50,486,l),
(50,-46,l),
(195,-9,l),
(195,-221,l),
(226,-221,l),
(226,316,l)
);
},
{
closed = 1;
nodes = (
(81,56,l),
(81,183,l),
(197,212,l),
(197,84,l)
);
}
);
width = 276;
}
);
note = uni266E;
unicode = 9838;
},
{
category = Letter;
glyphname = uni266F;
lastChange = "2022-02-22 00:55:00 +0000";
layers = (
{
layerId = "2208DBFF-11B0-48D9-BA6B-B988DFB8211A";
shapes = (
{
closed = 1;
nodes = (
(50,32,l),
(50,-71,l),
(97,-59,l),
(97,-247,l),
(128,-247,l),
(128,-52,l),
(195,-34,l),
(195,-214,l),
(226,-214,l),
(226,-26,l),
(275,-14,l),
(275,89,l),
(226,77,l),
(226,220,l),
(275,234,l),
(275,333,l),
(226,322,l),
(226,509,l),
(195,509,l),
(195,314,l),
(128,298,l),
(128,486,l),
(97,486,l),
(97,290,l),
(50,277,l),
(50,177,l),
(97,189,l),
(97,46,l)
);
},
{
closed = 1;
nodes = (
(128,54,l),
(128,197,l),
(195,214,l),
(195,70,l)
);
}
);
width = 325;
}
);
note = uni266F;
unicode = 9839;
},
{
category = Letter;
glyphname = u1D000;
lastChange = "2018-08-24 12:55:27 +0000";
layers = (
{
layerId = "2208DBFF-11B0-48D9-BA6B-B988DFB8211A";
shapes = (
{
closed = 1;
nodes = (
(274,614,l),
(124,604,l),
(103,569,l),
(276,574,l),
(278,528,o),
(280,500,o),
(284,492,cs),
(289,482,o),
(292,478,o),
(301,478,cs),
(313,478,o),
(344,490,o),
(354,498,c),
(372,691,l),
(361,706,o),
(347,714,o),
(330,714,cs),
(292,714,o),
(274,679,o),
(274,639,cs)
);
}
);
width = 475;
}
);
note = u1D000;
unicode = 118784;
},
{
category = Letter;
glyphname = u1D001;
lastChange = "2018-08-24 12:55:27 +0000";
layers = (
{
layerId = "2208DBFF-11B0-48D9-BA6B-B988DFB8211A";
shapes = (
{
closed = 1;
nodes = (
(352,589,l),
(372,624,l),
(199,619,l),
(197,665,ls),
(196,698,o),
(188,714,o),
(174,714,cs),
(160,714,o),
(142,707,o),
(121,694,c),
(103,502,l),
(115,486,o),
(129,478,o),
(145,478,cs),
(183,478,o),
(201,514,o),
(201,551,cs),
(201,560,o),
(201,568,o),
(200,577,c)
);
}
);
width = 475;
}
);
note = u1D001;
unicode = 118785;
},
{
category = Letter;
glyphname = u1D002;
lastChange = "2018-08-24 12:55:27 +0000";
layers = (
{
layerId = "2208DBFF-11B0-48D9-BA6B-B988DFB8211A";
shapes = (
{
closed = 1;
nodes = (
(203,566,o),
(255,602,o),
(330,602,cs),
(405,602,o),
(456,567,o),
(499,485,c),
(526,494,o),
(545,505,o),
(556,518,c),
(520,611,o),
(437,667,o),
(330,667,cs),
(225,667,o),
(140,614,o),
(103,518,c),
(116,504,o),
(134,493,o),
(158,485,c)
);
}
);
width = 660;
}
);
note = u1D002;
unicode = 118786;
},
{
category = Letter;
glyphname = u1D003;
lastChange = "2018-08-24 12:55:27 +0000";
layers = (
{
layerId = "2208DBFF-11B0-48D9-BA6B-B988DFB8211A";
shapes = (
{
closed = 1;
nodes = (
(604,446,ls),
(607,432,o),
(615,425,o),
(629,425,cs),
(636,425,o),
(648,433,o),
(664,449,cs),
(669,455,o),
(673,461,o),
(677,467,c),
(697,620,l),
(612,620,l),
(103,142,l),
(166,144,l),
(588,509,l)
);
}
);
width = 800;
}
);
note = u1D003;
unicode = 118787;
},
{
category = Letter;
glyphname = u1D004;
lastChange = "2018-08-24 12:55:27 +0000";
layers = (
{
layerId = "2208DBFF-11B0-48D9-BA6B-B988DFB8211A";
shapes = (
{
closed = 1;
nodes = (
(689,527,l),
(718,500,o),
(734,486,o),
(738,484,cs),
(741,482,o),
(746,481,o),
(750,481,cs),
(758,481,o),
(765,487,o),
(772,495,cs),
(779,504,o),
(788,522,o),
(798,550,c),
(785,631,l),
(750,635,ls),
(738,636,o),
(723,631,o),
(712,625,c),
(210,146,l),
(274,152,l)
);
},
{
closed = 1;
nodes = (
(547,543,ls),
(561,532,o),
(573,528,o),
(578,528,cs),
(593,528,o),
(603,550,o),
(607,559,cs),
(620,589,l),
(620,647,l),
(612,650,o),
(600,652,o),
(585,652,cs),
(569,652,o),
(554,648,o),
(541,642,c),
(103,188,l),
(163,193,l),
(535,553,l)
);
}
);
width = 901;
}
);
note = u1D004;
unicode = 118788;
},
{
category = Letter;
glyphname = u1D005;
lastChange = "2018-08-24 12:55:27 +0000";
layers = (
{
layerId = "2208DBFF-11B0-48D9-BA6B-B988DFB8211A";
shapes = (
{
closed = 1;
nodes = (
(131,538,l),
(568,154,l),
(560,208,l),
(239,518,ls),
(229,528,o),
(218,546,o),
(208,570,cs),
(199,593,o),
(181,607,o),
(161,607,cs),
(159,607,o),
(152,606,o),
(148,605,cs),
(103,598,l)
);
}
);
width = 671;
}
);
note = u1D005;
unicode = 118789;
},
{
category = Letter;
glyphname = u1D006;
lastChange = "2018-08-24 12:55:27 +0000";
layers = (
{
layerId = "2208DBFF-11B0-48D9-BA6B-B988DFB8211A";
shapes = (
{
closed = 1;
nodes = (
(288,538,l),
(725,154,l),
(718,208,l),
(396,518,ls),
(385,529,o),
(377,543,o),
(371,558,cs),
(359,588,o),
(341,607,o),
(321,607,cs),
(319,607,o),
(313,606,o),
(308,605,cs),
(260,598,l)
);
},
{
closed = 1;
nodes = (
(131,520,l),
(568,154,l),
(560,208,l),
(239,502,ls),
(228,512,o),
(218,531,o),
(208,554,cs),
(199,575,o),
(182,590,o),
(163,590,cs),
(161,590,o),
(154,589,o),
(149,588,cs),
(103,581,l)
);
}
);
width = 828;
}
);
note = u1D006;
unicode = 118790;
},
{
category = Letter;
glyphname = u1D007;
lastChange = "2018-08-24 12:55:27 +0000";
layers = (
{
layerId = "2208DBFF-11B0-48D9-BA6B-B988DFB8211A";
shapes = (
{
closed = 1;
nodes = (
(136,476,l),
(114,445,o),
(103,410,o),
(103,375,cs),
(103,343,o),
(145,322,o),
(211,322,cs),
(220,322,o),
(230,322,o),
(241,323,cs),
(428,337,ls),
(439,338,o),
(450,338,o),
(453,338,cs),
(489,338,o),
(495,314,o),
(505,292,cs),
(512,277,o),
(517,265,o),
(532,251,cs),
(542,242,o),
(559,239,o),
(589,239,c),
(589,247,o),
(590,254,o),
(590,262,cs),
(589,312,o),
(583,349,o),
(573,375,cs),
(563,402,o),
(549,415,o),
(533,415,cs),
(522,415,o),
(483,406,o),
(426,392,cs),
(359,376,ls),
(296,361,o),
(253,353,o),
(232,353,cs),
(205,353,o),
(189,360,o),
(185,373,c),
(208,444,l)
);
}
);
width = 694;
}
);
note = u1D007;
unicode = 118791;
},
{
category = Letter;
glyphname = u1D008;
lastChange = "2018-08-24 12:55:27 +0000";
layers = (
{
layerId = "2208DBFF-11B0-48D9-BA6B-B988DFB8211A";
shapes = (
{
closed = 1;
nodes = (
(415,425,o),
(455,401,o),
(579,319,cs),
(628,286,o),
(683,269,o),
(743,269,cs),
(812,269,o),
(901,314,o),
(977,390,c),
(960,413,l),
(915,366,o),
(831,323,o),
(780,323,cs),
(724,323,o),
(684,344,o),
(595,401,cs),
(505,458,o),
(451,474,o),
(373,474,cs),
(299,474,o),
(243,450,o),
(197,420,cs),
(174,405,o),
(143,376,o),
(103,334,c),
(128,310,l),
(203,392,o),
(271,425,o),
(338,425,cs)
);
}
);
width = 1080;
}
);
note = u1D008;
unicode = 118792;
},
{
category = Letter;
glyphname = u1D009;
lastChange = "2018-08-24 12:55:27 +0000";
layers = (
{
layerId = "2208DBFF-11B0-48D9-BA6B-B988DFB8211A";
shapes = (
{
closed = 1;
nodes = (
(145,521,l),
(117,497,o),
(103,472,o),
(103,446,cs),
(103,398,o),
(147,371,o),
(219,370,cs),
(232,370,o),
(244,371,o),
(257,373,c),
(224,335,o),
(208,303,o),
(208,276,cs),
(208,240,o),
(230,210,o),
(274,210,cs),
(313,210,o),
(373,229,o),
(455,269,cs),
(536,309,o),
(689,394,o),
(914,526,c),
(871,542,l),
(664,425,o),
(532,354,o),
(474,328,cs),
(416,302,o),
(370,290,o),
(336,290,cs),
(317,290,o),
(308,298,o),
(308,314,cs),
(308,345,o),
(344,382,o),
(377,415,c),
(374,434,l),
(312,421,o),
(263,415,o),
(226,415,cs),
(199,415,o),
(185,426,o),
(185,448,cs),
(185,465,o),
(199,483,o),
(228,502,c)
);
}
);
width = 1018;
}
);
note = u1D009;
unicode = 118793;
},
{
category = Letter;
glyphname = u1D00A;
lastChange = "2018-08-24 12:55:27 +0000";
layers = (
{
layerId = "2208DBFF-11B0-48D9-BA6B-B988DFB8211A";
shapes = (
{
closed = 1;
nodes = (
(128,408,l),
(210,408,o),
(283,458,o),
(283,518,cs),
(283,562,o),
(252,578,o),
(222,578,cs),
(193,578,o),
(164,563,o),
(164,539,cs),
(164,524,o),
(169,514,o),
(181,508,cs),
(192,503,o),
(197,497,o),
(197,491,cs),
(197,468,o),
(151,443,o),
(103,434,c)
);
},
{
closed = 1;
nodes = (
(128,209,l),
(207,209,o),
(283,255,o),
(283,319,cs),
(283,363,o),
(252,380,o),
(222,380,cs),
(193,380,o),
(164,365,o),
(164,340,cs),
(164,325,o),
(169,316,o),
(181,310,cs),
(191,305,o),
(197,298,o),
(197,293,cs),
(197,268,o),
(146,242,o),
(103,236,c)
);
}
);
width = 388;
}
);
note = u1D00A;
unicode = 118794;
},
{
category = Letter;
glyphname = u1D00B;
lastChange = "2018-08-24 12:55:27 +0000";
layers = (
{
layerId = "2208DBFF-11B0-48D9-BA6B-B988DFB8211A";
shapes = (
{
closed = 1;
nodes = (
(170,611,l),
(256,611,o),
(325,660,o),
(325,719,cs),
(325,759,o),
(304,779,o),
(262,779,cs),
(235,779,o),
(206,766,o),
(206,740,cs),
(206,724,o),
(211,714,o),
(223,710,cs),
(233,707,o),
(239,700,o),
(239,692,cs),
(239,668,o),
(192,642,o),
(145,636,c)
);
},
{
closed = 1;
nodes = (
(170,412,l),
(256,412,o),
(325,461,o),
(325,520,cs),
(325,561,o),
(304,581,o),
(262,581,cs),
(235,581,o),
(206,568,o),
(206,541,cs),
(206,527,o),
(211,517,o),
(223,511,cs),
(233,506,o),
(239,500,o),
(239,494,cs),
(239,470,o),
(192,443,o),
(145,438,c)
);
},
{
closed = 1;
nodes = (
(124,145,l),
(292,156,o),
(377,204,o),
(377,287,cs),
(377,338,o),
(340,366,o),
(293,366,cs),
(251,366,o),
(215,346,o),
(215,314,cs),
(215,287,o),
(234,271,o),
(259,271,cs),
(278,271,o),
(287,266,o),
(287,257,cs),
(287,238,o),
(271,221,o),
(238,207,cs),
(204,193,o),
(160,181,o),
(103,175,c)
);
}
);
width = 481;
}
);
note = u1D00B;
unicode = 118795;
},
{
category = Letter;
glyphname = u1D00C;
lastChange = "2018-08-24 12:55:27 +0000";
layers = (
{
layerId = "2208DBFF-11B0-48D9-BA6B-B988DFB8211A";
shapes = (
{
closed = 1;
nodes = (
(103,282,l),
(116,191,o),
(153,146,o),
(216,146,cs),
(263,146,o),
(325,176,o),
(404,234,cs),
(483,292,o),
(582,388,o),
(703,512,cs),
(787,598,l),
(694,598,l),
(565,456,o),
(467,356,o),
(399,300,cs),
(331,244,o),
(284,215,o),
(257,215,cs),
(232,215,o),
(213,239,o),
(200,288,c)
);
}
);
width = 892;
}
);
note = u1D00C;
unicode = 118796;
},
{
category = Letter;
glyphname = u1D00D;
lastChange = "2018-08-24 12:55:27 +0000";
layers = (
{
layerId = "2208DBFF-11B0-48D9-BA6B-B988DFB8211A";
shapes = (
{
closed = 1;
nodes = (
(152,149,l),
(380,303,o),
(577,507,o),
(577,619,cs),
(577,663,o),
(552,685,o),
(502,685,cs),
(458,685,o),
(404,656,o),
(361,611,c),
(397,563,l),
(420,583,o),
(439,593,o),
(456,593,cs),
(479,593,o),
(490,582,o),
(490,560,cs),
(490,471,o),
(299,291,o),
(103,174,c)
);
}
);
width = 682;
}
);
note = u1D00D;
unicode = 118797;
},
{
category = Letter;
glyphname = u1D00E;
lastChange = "2018-08-24 12:55:27 +0000";
layers = (
{
layerId = "2208DBFF-11B0-48D9-BA6B-B988DFB8211A";
shapes = (
{
closed = 1;
nodes = (
(136,127,l),
(246,333,o),
(395,490,o),
(467,490,cs),
(483,490,o),
(491,480,o),
(491,460,cs),
(491,445,o),
(483,427,o),
(468,406,c),
(510,377,l),
(546,412,o),
(570,460,o),
(570,499,cs),
(570,546,o),
(549,570,o),
(509,570,cs),
(449,570,o),
(350,493,o),
(240,361,cs),
(185,294,o),
(139,231,o),
(103,170,c)
);
}
);
width = 674;
}
);
note = u1D00E;
unicode = 118798;
},
{
category = Letter;
glyphname = u1D00F;
lastChange = "2018-08-24 12:55:27 +0000";
layers = (
{
layerId = "2208DBFF-11B0-48D9-BA6B-B988DFB8211A";
shapes = (
{
closed = 1;
nodes = (
(216,354,ls),
(175,354,o),
(146,350,o),
(129,343,cs),
(112,336,o),
(103,324,o),
(103,308,cs),
(103,277,o),
(121,260,o),
(144,260,cs),
(160,260,o),
(177,270,o),
(194,289,cs),
(211,308,o),
(224,318,o),
(232,318,cs),
(248,318,o),
(292,312,o),
(348,312,c),
(350,287,o),
(351,272,o),
(355,209,c),
(370,200,o),
(396,196,o),
(433,196,c),
(439,221,o),
(442,260,o),
(442,312,c),
(526,314,ls),
(544,314,o),
(560,308,o),
(571,296,cs),
(582,284,o),
(590,278,o),
(595,278,cs),
(615,278,o),
(640,315,o),
(640,343,cs),
(640,363,o),
(628,373,o),
(604,373,cs),
(598,373,o),
(589,372,o),
(581,370,cs),
(526,359,o),
(479,354,o),
(439,352,c),
(431,406,o),
(426,436,o),
(424,442,c),
(409,454,o),
(383,465,o),
(348,475,c),
(343,475,o),
(341,467,o),
(341,452,cs),
(341,435,o),
(345,423,o),
(354,416,c),
(348,352,l)
);
}
);
width = 743;
}
);
note = u1D00F;
unicode = 118799;
},
{
category = Letter;
glyphname = u1D010;
lastChange = "2018-08-24 12:55:27 +0000";
layers = (
{
layerId = "2208DBFF-11B0-48D9-BA6B-B988DFB8211A";
shapes = (
{
closed = 1;
nodes = (
(296,481,o),
(269,455,o),
(269,424,cs),
(269,391,o),
(296,365,o),
(329,365,cs),
(360,365,o),
(386,391,o),
(386,424,cs),
(386,455,o),
(360,481,o),
(329,481,cs)
);
},
{
closed = 1;
nodes = (
(131,403,o),
(103,375,o),
(103,344,cs),
(103,312,o),
(131,287,o),
(163,287,cs),
(194,287,o),
(218,312,o),
(218,344,cs),
(218,375,o),
(194,403,o),
(163,403,cs)
);
},
{
closed = 1;
nodes = (
(463,403,o),
(434,374,o),
(434,344,cs),
(434,312,o),
(463,287,o),
(494,287,cs),
(527,287,o),
(552,313,o),
(552,344,cs),
(552,375,o),
(526,403,o),
(494,403,cs)
);
}
);
width = 655;
}
);
note = u1D010;
unicode = 118800;
},
{
category = Letter;
glyphname = u1D011;
lastChange = "2018-08-24 12:55:27 +0000";
layers = (
{
layerId = "2208DBFF-11B0-48D9-BA6B-B988DFB8211A";
shapes = (
{
closed = 1;
nodes = (
(137,152,l),
(259,207,o),
(347,255,o),
(400,296,cs),
(453,337,o),
(481,372,o),
(481,403,cs),
(481,438,o),
(432,452,o),
(383,452,cs),
(336,452,o),
(295,445,o),
(260,430,c),
(282,383,l),
(294,385,o),
(306,386,o),
(318,386,cs),
(361,386,o),
(383,376,o),
(383,355,cs),
(383,340,o),
(360,317,o),
(315,286,cs),
(270,255,o),
(199,218,o),
(103,174,c)
);
}
);
width = 584;
}
);
note = u1D011;
unicode = 118801;
},
{
category = Letter;
glyphname = u1D012;
lastChange = "2018-08-24 12:55:27 +0000";
layers = (
{
layerId = "2208DBFF-11B0-48D9-BA6B-B988DFB8211A";
shapes = (
{
closed = 1;
nodes = (
(334,149,l),
(459,206,o),
(553,258,o),
(613,303,cs),
(673,348,o),
(703,387,o),
(703,418,cs),
(703,446,o),
(678,469,o),
(613,469,cs),
(584,469,o),
(558,463,o),
(535,452,c),
(539,406,l),
(546,407,o),
(554,408,o),
(561,408,cs),
(584,408,o),
(598,398,o),
(598,383,cs),
(598,366,o),
(569,336,o),
(511,295,cs),
(453,254,o),
(383,213,o),
(301,173,c)
);
},
{
closed = 1;
nodes = (
(137,170,l),
(383,281,o),
(506,371,o),
(506,439,cs),
(506,467,o),
(481,491,o),
(416,491,cs),
(388,491,o),
(362,485,o),
(338,474,c),
(343,426,l),
(356,428,o),
(358,428,o),
(366,428,cs),
(389,428,o),
(401,420,o),
(401,404,cs),
(401,386,o),
(372,357,o),
(313,315,cs),
(255,274,o),
(185,233,o),
(103,193,c)
);
}
);
width = 806;
}
);
note = u1D012;
unicode = 118802;
},
{
category = Letter;
glyphname = u1D013;
lastChange = "2018-08-24 12:55:27 +0000";
layers = (
{
layerId = "2208DBFF-11B0-48D9-BA6B-B988DFB8211A";
shapes = (
{
closed = 1;
nodes = (
(136,466,ls),
(115,466,o),
(104,459,o),
(104,446,cs),
(104,403,o),
(221,298,o),
(340,251,cs),
(399,228,o),
(466,217,o),
(541,217,cs),
(677,217,o),
(855,301,o),
(941,418,c),
(941,484,l),
(845,349,o),
(688,271,o),
(541,271,cs),
(451,271,o),
(370,305,o),
(296,366,cs),
(260,396,o),
(232,421,o),
(215,439,cs),
(198,457,o),
(179,466,o),
(158,466,cs)
);
}
);
width = 1044;
}
);
note = u1D013;
unicode = 118803;
},
{
category = Letter;
glyphname = u1D014;
lastChange = "2018-08-24 12:55:27 +0000";
layers = (
{
layerId = "2208DBFF-11B0-48D9-BA6B-B988DFB8211A";
shapes = (
{
closed = 1;
nodes = (
(158,458,o),
(172,465,o),
(175,475,c),
(164,496,l),
(235,496,l),
(235,484,ls),
(235,381,o),
(263,330,o),
(318,330,cs),
(373,330,o),
(401,381,o),
(401,484,cs),
(401,496,l),
(494,496,l),
(499,521,l),
(397,521,l),
(389,607,o),
(354,672,o),
(318,672,cs),
(282,672,o),
(244,601,o),
(236,521,c),
(103,521,l),
(103,512,o),
(106,503,o),
(112,495,cs),
(118,486,o),
(130,474,o),
(149,458,c)
);
},
{
closed = 1;
nodes = (
(360,427,o),
(346,395,o),
(318,395,cs),
(290,395,o),
(276,427,o),
(276,490,cs),
(276,496,l),
(360,496,l),
(360,490,ls)
);
},
{
closed = 1;
nodes = (
(279,549,o),
(285,573,o),
(293,592,cs),
(301,611,o),
(310,620,o),
(318,620,cs),
(326,620,o),
(334,611,o),
(342,592,cs),
(350,573,o),
(354,549,o),
(355,521,c),
(276,521,l)
);
}
);
width = 604;
}
);
note = u1D014;
unicode = 118804;
},
{
category = Letter;
glyphname = u1D015;
lastChange = "2018-08-24 12:55:27 +0000";
layers = (
{
layerId = "2208DBFF-11B0-48D9-BA6B-B988DFB8211A";
shapes = (
{
closed = 1;
nodes = (
(141,475,o),
(175,484,o),
(208,484,cs),
(259,484,o),
(292,464,o),
(318,396,cs),
(354,301,ls),
(375,246,o),
(426,208,o),
(475,208,cs),
(488,208,o),
(502,210,o),
(516,216,c),
(463,230,o),
(422,266,o),
(403,320,cs),
(373,404,ls),
(344,486,o),
(293,528,o),
(224,528,cs),
(176,528,o),
(117,495,o),
(103,456,c)
);
},
{
closed = 1;
nodes = (
(261,304,o),
(293,336,o),
(293,373,cs),
(293,412,o),
(261,442,o),
(206,442,cs),
(149,442,o),
(118,412,o),
(118,373,cs),
(118,336,o),
(149,304,o),
(206,304,cs)
);
},
{
closed = 1;
nodes = (
(233,406,o),
(247,392,o),
(247,373,cs),
(247,354,o),
(233,340,o),
(206,340,cs),
(179,340,o),
(163,354,o),
(163,373,cs),
(163,392,o),
(179,406,o),
(206,406,cs)
);
}
);
width = 619;
}
);
note = u1D015;
unicode = 118805;
},
{
category = Letter;
glyphname = u1D016;
lastChange = "2018-08-24 12:55:27 +0000";
layers = (
{
layerId = "2208DBFF-11B0-48D9-BA6B-B988DFB8211A";
shapes = (
{
closed = 1;
nodes = (
(347,301,o),
(374,330,o),
(374,362,cs),
(374,397,o),
(347,425,o),
(296,425,cs),
(247,425,o),
(217,397,o),
(217,362,cs),
(217,330,o),
(247,301,o),
(296,301,cs)
);
},
{
closed = 1;
nodes = (
(321,391,o),
(334,381,o),
(334,362,cs),
(334,343,o),
(321,334,o),
(296,334,cs),
(271,334,o),
(258,343,o),
(258,362,cs),
(258,381,o),
(271,391,o),
(296,391,cs)
);
},
{
closed = 1;
nodes = (
(390,469,ls),
(405,469,o),
(413,477,o),
(413,491,cs),
(413,501,o),
(403,516,o),
(383,516,cs),
(370,516,o),
(357,509,o),
(344,496,c),
(103,516,l),
(109,469,o),
(109,415,o),
(109,391,cs),
(107,294,l),
(114,287,o),
(127,283,o),
(146,283,cs),
(173,283,o),
(187,292,o),
(187,311,cs),
(187,317,o),
(185,327,o),
(180,342,cs),
(175,357,o),
(173,375,o),
(173,396,cs),
(173,432,o),
(175,458,o),
(179,474,c)
);
}
);
width = 517;
}
);
note = u1D016;
unicode = 118806;
},
{
category = Letter;
glyphname = u1D017;
lastChange = "2018-08-24 12:55:27 +0000";
layers = (
{
layerId = "2208DBFF-11B0-48D9-BA6B-B988DFB8211A";
shapes = (
{
closed = 1;
nodes = (
(103,432,l),
(161,394,o),
(190,341,o),
(190,274,c),
(235,268,l),
(251,325,o),
(304,377,o),
(361,408,c),
(340,442,l),
(295,417,o),
(266,391,o),
(251,366,c),
(272,455,o),
(282,551,o),
(282,654,c),
(232,654,l),
(232,630,ls),
(232,549,o),
(224,465,o),
(208,377,c),
(192,415,o),
(166,445,o),
(128,467,c)
);
}
);
width = 466;
}
);
note = u1D017;
unicode = 118807;
},
{
category = Letter;
glyphname = u1D018;
lastChange = "2018-08-24 12:55:27 +0000";
layers = (
{
layerId = "2208DBFF-11B0-48D9-BA6B-B988DFB8211A";
shapes = (
{
closed = 1;
nodes = (
(408,294,l),
(395,310,o),
(379,328,o),
(362,347,cs),
(344,367,o),
(325,385,o),
(302,404,c),
(383,491,l),
(312,504,l),
(260,434,l),
(211,467,o),
(159,484,o),
(103,484,c),
(103,425,l),
(145,425,o),
(187,414,o),
(228,391,c),
(154,294,l),
(200,294,l),
(269,366,l),
(305,341,o),
(334,317,o),
(355,294,c)
);
}
);
width = 511;
}
);
note = u1D018;
unicode = 118808;
},
{
category = Letter;
glyphname = u1D019;
lastChange = "2018-08-24 12:55:27 +0000";
layers = (
{
layerId = "2208DBFF-11B0-48D9-BA6B-B988DFB8211A";
shapes = (
{
closed = 1;
nodes = (
(526,464,o),
(517,446,o),
(498,446,cs),
(479,446,o),
(469,464,o),
(469,502,c),
(434,502,l),
(434,489,o),
(437,474,o),
(442,456,c),
(412,455,l),
(405,495,o),
(397,521,o),
(388,533,cs),
(379,545,o),
(367,550,o),
(354,550,cs),
(322,550,o),
(301,508,o),
(301,448,c),
(218,442,l),
(230,456,o),
(236,473,o),
(236,494,cs),
(236,540,o),
(219,562,o),
(185,562,cs),
(167,562,o),
(152,554,o),
(142,539,cs),
(132,524,o),
(129,500,o),
(127,456,cs),
(125,409,o),
(117,326,o),
(103,262,c),
(168,262,o),
(214,270,o),
(240,284,cs),
(265,298,o),
(278,321,o),
(278,353,cs),
(278,382,o),
(261,403,o),
(228,415,c),
(301,422,l),
(301,370,o),
(322,336,o),
(354,336,cs),
(387,336,o),
(412,381,o),
(412,432,c),
(452,434,l),
(461,420,o),
(477,413,o),
(498,413,cs),
(537,413,o),
(560,449,o),
(560,502,c),
(526,502,l)
);
},
{
closed = 1;
nodes = (
(163,395,l),
(209,395,o),
(232,379,o),
(232,348,cs),
(232,317,o),
(205,302,o),
(152,302,c)
);
},
{
closed = 1;
nodes = (
(166,485,l),
(166,502,o),
(172,511,o),
(185,511,cs),
(198,511,o),
(204,501,o),
(204,481,cs),
(204,458,o),
(180,433,o),
(163,425,c)
);
},
{
closed = 1;
nodes = (
(378,396,o),
(369,380,o),
(354,380,cs),
(338,380,o),
(330,395,o),
(330,425,c),
(382,430,l)
);
},
{
closed = 1;
nodes = (
(330,482,o),
(338,498,o),
(354,498,cs),
(369,498,o),
(378,483,o),
(382,452,c),
(330,449,l)
);
}
);
width = 664;
}
);
note = u1D019;
unicode = 118809;
},
{
category = Letter;
glyphname = u1D01A;
lastChange = "2018-08-24 12:55:27 +0000";
layers = (
{
layerId = "2208DBFF-11B0-48D9-BA6B-B988DFB8211A";
shapes = (
{
closed = 1;
nodes = (
(517,377,l),
(182,392,ls),
(165,393,o),
(154,393,o),
(151,393,cs),
(122,393,o),
(103,385,o),
(103,372,cs),
(103,353,o),
(131,330,o),
(166,330,cs),
(176,330,o),
(187,332,o),
(200,337,cs),
(212,342,o),
(229,344,o),
(252,344,cs),
(541,348,l)
);
}
);
width = 646;
}
);
note = u1D01A;
unicode = 118810;
},
{
category = Letter;
glyphname = u1D01B;
lastChange = "2018-08-24 12:55:27 +0000";
layers = (
{
layerId = "2208DBFF-11B0-48D9-BA6B-B988DFB8211A";
shapes = (
{
closed = 1;
nodes = (
(131,388,o),
(103,361,o),
(103,330,cs),
(103,299,o),
(131,271,o),
(163,271,cs),
(194,271,o),
(218,299,o),
(218,330,cs),
(218,361,o),
(194,388,o),
(163,388,cs)
);
}
);
width = 323;
}
);
note = u1D01B;
unicode = 118811;
},
{
category = Letter;
glyphname = u1D01C;
lastChange = "2018-08-24 12:55:27 +0000";
layers = (
{
layerId = "2208DBFF-11B0-48D9-BA6B-B988DFB8211A";
shapes = (
{
closed = 1;
nodes = (
(131,388,o),
(103,361,o),
(103,330,cs),
(103,299,o),
(131,271,o),
(163,271,cs),
(194,271,o),
(218,299,o),
(218,330,cs),
(218,361,o),
(194,388,o),
(163,388,cs)
);
},
{
closed = 1;
nodes = (
(288,469,o),
(260,444,o),
(260,413,cs),
(260,382,o),
(288,354,o),
(319,354,cs),
(353,354,o),
(377,382,o),
(377,413,cs),
(377,444,o),
(353,469,o),
(319,469,cs)
);
}
);
width = 481;
}
);
note = u1D01C;
unicode = 118812;
},
{
category = Letter;
glyphname = u1D01D;
lastChange = "2018-08-24 12:55:27 +0000";
layers = (
{
layerId = "2208DBFF-11B0-48D9-BA6B-B988DFB8211A";
shapes = (
{
closed = 1;
nodes = (
(260,390,o),
(242,373,o),
(242,346,cs),
(242,322,o),
(260,302,o),
(287,302,cs),
(311,302,o),
(330,322,o),
(330,346,cs),
(330,373,o),
(311,390,o),
(287,390,cs)
);
},
{
closed = 1;
nodes = (
(401,390,o),
(382,373,o),
(382,346,cs),
(382,322,o),
(401,302,o),
(425,302,cs),
(449,302,o),
(468,322,o),
(468,346,cs),
(468,373,o),
(449,390,o),
(425,390,cs)
);
},
{
closed = 1;
nodes = (
(122,390,o),
(103,373,o),
(103,346,cs),
(103,322,o),
(122,302,o),
(146,302,cs),
(173,302,o),
(190,322,o),
(190,346,cs),
(190,373,o),
(173,390,o),
(146,390,cs)
);
}
);
width = 571;
}
);
note = u1D01D;
unicode = 118813;
},
{
category = Letter;
glyphname = u1D01E;
lastChange = "2018-08-24 12:55:27 +0000";
layers = (
{
layerId = "2208DBFF-11B0-48D9-BA6B-B988DFB8211A";
shapes = (
{
closed = 1;
nodes = (
(314,460,l),
(334,448,o),
(351,434,o),
(365,418,c),
(397,418,l),
(376,446,o),
(356,468,o),
(336,484,c),
(380,530,l),
(344,539,l),
(308,504,l),
(281,519,o),
(248,530,o),
(209,535,c),
(209,499,l),
(234,499,o),
(258,492,o),
(282,478,c),
(228,426,l),
(276,416,l)
);
},
{
closed = 1;
nodes = (
(266,226,l),
(297,284,o),
(334,318,o),
(388,329,cs),
(415,334,o),
(463,339,o),
(522,343,cs),
(585,347,o),
(614,375,o),
(614,425,cs),
(614,469,o),
(597,491,o),
(562,491,cs),
(542,491,o),
(521,478,o),
(521,455,cs),
(521,431,o),
(544,425,o),
(551,425,cs),
(558,425,o),
(562,419,o),
(562,412,cs),
(562,396,o),
(542,388,o),
(503,388,cs),
(474,388,ls),
(390,388,o),
(331,364,o),
(269,278,c),
(268,366,o),
(250,401,o),
(188,401,cs),
(139,401,o),
(103,371,o),
(103,343,cs),
(103,322,o),
(112,312,o),
(131,312,cs),
(140,312,o),
(152,318,o),
(165,333,cs),
(178,348,o),
(188,355,o),
(197,355,cs),
(224,355,o),
(240,307,o),
(240,248,cs),
(240,236,l)
);
}
);
width = 719;
}
);
note = u1D01E;
unicode = 118814;
},
{
category = Letter;
glyphname = u1D01F;
lastChange = "2018-08-24 12:55:27 +0000";
layers = (
{
layerId = "2208DBFF-11B0-48D9-BA6B-B988DFB8211A";
shapes = (
{
closed = 1;
nodes = (
(510,361,l),
(388,613,l),
(311,613,l),
(311,370,l),
(137,370,l),
(137,336,l),
(146,334,ls),
(165,330,o),
(174,316,o),
(174,294,cs),
(174,262,o),
(150,229,o),
(103,193,c),
(113,180,l),
(179,215,o),
(224,263,o),
(224,296,cs),
(224,315,o),
(216,329,o),
(200,336,c),
(311,336,l),
(311,193,l),
(366,193,l),
(366,336,l),
(510,336,l)
);
},
{
closed = 1;
nodes = (
(463,370,l),
(366,370,l),
(366,568,l)
);
}
);
width = 613;
}
);
note = u1D01F;
unicode = 118815;
},
{
category = Letter;
glyphname = u1D020;
lastChange = "2018-08-24 12:55:27 +0000";
layers = (
{
layerId = "2208DBFF-11B0-48D9-BA6B-B988DFB8211A";
shapes = (
{
closed = 1;
nodes = (
(198,293,o),
(207,289,o),
(216,289,cs),
(229,289,o),
(243,295,o),
(257,310,cs),
(485,547,l),
(478,554,o),
(469,558,o),
(458,558,cs),
(443,558,o),
(430,551,o),
(418,538,cs),
(190,301,l)
);
},
{
closed = 1;
nodes = (
(111,311,o),
(120,307,o),
(129,307,cs),
(142,307,o),
(153,315,o),
(167,329,cs),
(397,568,l),
(391,573,o),
(382,576,o),
(369,576,cs),
(358,576,o),
(344,570,o),
(331,556,cs),
(103,319,l)
);
}
);
width = 589;
}
);
note = u1D020;
unicode = 118816;
},
{
category = Letter;
glyphname = u1D021;
lastChange = "2018-08-24 12:55:27 +0000";
layers = (
{
layerId = "2208DBFF-11B0-48D9-BA6B-B988DFB8211A";
shapes = (
{
closed = 1;
nodes = (
(397,452,l),
(446,448,l),
(454,429,o),
(458,404,o),
(458,373,cs),
(458,351,o),
(455,320,o),
(448,280,c),
(463,271,l),
(491,287,o),
(533,304,o),
(560,304,cs),
(585,304,o),
(608,289,o),
(631,259,c),
(667,288,l),
(658,312,o),
(617,343,o),
(582,343,cs),
(560,343,o),
(532,334,o),
(499,318,c),
(505,342,o),
(509,358,o),
(509,377,cs),
(509,397,o),
(505,419,o),
(498,444,c),
(510,444,ls),
(527,444,o),
(535,449,o),
(535,458,cs),
(535,468,o),
(526,485,o),
(499,485,cs),
(481,485,l),
(434,569,o),
(357,611,o),
(251,611,cs),
(209,611,o),
(178,606,o),
(158,598,cs),
(138,590,o),
(128,580,o),
(128,569,cs),
(128,548,o),
(165,517,o),
(190,517,cs),
(198,517,o),
(203,523,o),
(208,538,cs),
(213,553,o),
(236,559,o),
(278,559,cs),
(341,559,o),
(390,536,o),
(424,490,c),
(388,491,l)
);
},
{
closed = 1;
nodes = (
(418,252,l),
(188,469,l),
(179,490,l),
(161,500,o),
(142,506,o),
(121,506,cs),
(109,506,o),
(103,502,o),
(103,494,cs),
(103,480,o),
(122,454,o),
(136,442,cs),
(425,208,l)
);
}
);
width = 770;
}
);
note = u1D021;
unicode = 118817;
},
{
category = Letter;
glyphname = u1D022;
lastChange = "2018-08-24 12:55:27 +0000";
layers = (
{
layerId = "2208DBFF-11B0-48D9-BA6B-B988DFB8211A";
shapes = (
{
closed = 1;
nodes = (
(611,344,ls),
(623,344,o),
(629,349,o),
(629,357,cs),
(629,382,o),
(556,458,o),
(482,488,cs),
(446,503,o),
(403,510,o),
(355,510,cs),
(267,510,o),
(156,456,o),
(103,380,c),
(103,336,l),
(156,418,o),
(252,474,o),
(355,474,cs),
(412,474,o),
(459,448,o),
(512,406,cs),
(527,394,o),
(540,381,o),
(549,371,cs),
(564,354,o),
(576,344,o),
(591,344,cs)
);
}
);
width = 734;
}
);
note = u1D022;
unicode = 118818;
},
{
category = Letter;
glyphname = u1D023;
lastChange = "2018-08-24 12:55:27 +0000";
layers = (
{
layerId = "2208DBFF-11B0-48D9-BA6B-B988DFB8211A";
shapes = (
{
closed = 1;
nodes = (
(124,446,ls),
(111,446,o),
(105,441,o),
(105,432,cs),
(105,407,o),
(180,330,o),
(267,301,cs),
(313,286,o),
(358,276,o),
(403,276,cs),
(497,276,o),
(625,336,o),
(676,412,c),
(676,455,l),
(631,383,o),
(547,336,o),
(463,319,c),
(458,328,o),
(456,337,o),
(456,346,cs),
(456,360,o),
(463,375,o),
(478,389,cs),
(492,403,o),
(499,412,o),
(499,416,cs),
(499,422,o),
(491,426,o),
(475,426,cs),
(444,426,o),
(416,395,o),
(416,354,cs),
(416,337,o),
(418,323,o),
(424,312,c),
(377,312,l),
(384,331,o),
(388,348,o),
(388,362,cs),
(388,403,o),
(361,434,o),
(330,434,cs),
(313,434,o),
(304,431,o),
(304,425,cs),
(304,421,o),
(307,417,o),
(311,413,cs),
(336,388,o),
(348,368,o),
(348,354,cs),
(348,344,o),
(345,333,o),
(340,323,c),
(289,334,o),
(220,388,o),
(184,429,cs),
(174,440,o),
(164,446,o),
(149,446,cs)
);
}
);
width = 779;
}
);
note = u1D023;
unicode = 118819;
},
{
category = Letter;
glyphname = u1D024;
lastChange = "2018-08-24 12:55:27 +0000";
layers = (
{
layerId = "2208DBFF-11B0-48D9-BA6B-B988DFB8211A";
shapes = (
{
closed = 1;
nodes = (
(106,412,l),
(138,404,o),
(173,382,o),
(193,354,cs),
(208,333,o),
(215,306,o),
(218,291,cs),
(220,280,o),
(232,278,o),
(240,278,cs),
(255,278,o),
(269,296,o),
(281,321,cs),
(295,350,o),
(314,381,o),
(332,401,cs),
(352,424,o),
(362,438,o),
(362,444,cs),
(362,452,o),
(354,456,o),
(340,456,cs),
(322,456,o),
(297,421,o),
(272,383,cs),
(259,363,o),
(250,345,o),
(242,329,c),
(240,401,o),
(160,466,o),
(135,466,cs),
(130,466,o),
(126,465,o),
(124,462,cs),
(111,452,o),
(106,440,o),
(106,422,cs)
);
}
);
width = 467;
}
);
note = u1D024;
unicode = 118820;
},
{
category = Letter;
glyphname = u1D025;
lastChange = "2018-08-24 12:55:27 +0000";
layers = (
{
layerId = "2208DBFF-11B0-48D9-BA6B-B988DFB8211A";
shapes = (
{
closed = 1;
nodes = (
(132,546,l),
(119,490,o),
(103,397,o),
(103,374,cs),
(103,299,o),
(131,271,o),
(179,271,cs),
(210,271,o),
(238,293,o),
(261,333,cs),
(274,355,l),
(274,348,ls),
(274,295,o),
(301,268,o),
(354,268,cs),
(431,268,o),
(584,389,o),
(740,578,c),
(733,578,l),
(659,498,o),
(457,301,o),
(372,301,cs),
(348,301,o),
(330,323,o),
(330,355,cs),
(330,373,o),
(332,392,o),
(336,412,c),
(268,404,l),
(246,359,o),
(230,331,o),
(221,319,cs),
(212,307,o),
(202,302,o),
(193,302,cs),
(175,302,o),
(166,321,o),
(166,360,cs),
(166,398,o),
(176,454,o),
(194,526,cs),
(200,552,l)
);
}
);
width = 844;
}
);
note = u1D025;
unicode = 118821;
},
{
category = Letter;
glyphname = u1D026;
lastChange = "2018-08-24 12:55:27 +0000";
layers = (
{
layerId = "2208DBFF-11B0-48D9-BA6B-B988DFB8211A";
shapes = (
{
closed = 1;
nodes = (
(383,174,l),
(382,174,l),
(467,418,l),
(257,438,l),
(257,418,l),
(266,412,o),
(276,400,o),
(287,383,c),
(270,375,o),
(250,370,o),
(228,370,cs),
(200,370,o),
(173,412,o),
(173,448,cs),
(173,522,o),
(250,568,o),
(383,571,c),
(383,588,l),
(370,591,o),
(350,593,o),
(323,593,cs),
(206,593,o),
(103,537,o),
(103,463,cs),
(103,398,o),
(186,336,o),
(242,336,cs),
(264,336,o),
(284,339,o),
(303,346,cs),
(322,353,o),
(331,359,o),
(331,365,cs),
(331,371,o),
(324,381,o),
(311,396,c),
(396,380,l),
(360,251,o),
(341,179,o),
(339,170,cs),
(337,159,o),
(336,150,o),
(336,146,cs),
(336,137,o),
(352,131,o),
(361,131,cs),
(367,131,o),
(381,139,o),
(401,156,cs),
(476,222,l),
(432,232,l)
);
}
);
width = 581;
}
);
note = u1D026;
unicode = 118822;
},
{
category = Letter;
glyphname = u1D027;
lastChange = "2018-08-24 12:55:27 +0000";
layers = (
{
layerId = "2208DBFF-11B0-48D9-BA6B-B988DFB8211A";
shapes = (
{
closed = 1;
nodes = (
(162,481,o),
(103,448,o),
(103,416,cs),
(103,388,o),
(129,366,o),
(149,366,cs),
(166,366,o),
(174,374,o),
(174,388,cs),
(174,395,o),
(170,401,o),
(164,408,c),
(179,420,o),
(200,426,o),
(228,426,cs),
(265,426,o),
(291,392,o),
(293,336,c),
(270,322,o),
(250,289,o),
(250,269,cs),
(250,247,o),
(257,236,o),
(271,236,cs),
(304,236,o),
(332,270,o),
(332,313,cs),
(332,317,o),
(332,321,o),
(331,325,c),
(344,338,o),
(366,346,o),
(397,344,cs),
(575,334,ls),
(692,327,o),
(787,399,o),
(794,491,c),
(736,485,l),
(718,417,o),
(660,374,o),
(589,377,cs),
(441,383,ls),
(401,385,o),
(361,375,o),
(329,360,c),
(319,438,o),
(279,481,o),
(217,481,cs)
);
}
);
width = 899;
}
);
note = u1D027;
unicode = 118823;
},
{
category = Letter;
glyphname = u1D028;
lastChange = "2018-08-24 12:55:27 +0000";
layers = (
{
layerId = "2208DBFF-11B0-48D9-BA6B-B988DFB8211A";
shapes = (
{
closed = 1;
nodes = (
(468,499,l),
(467,493,o),
(467,487,o),
(467,481,cs),
(467,458,o),
(475,439,o),
(490,425,c),
(490,377,o),
(455,346,o),
(404,346,cs),
(373,346,o),
(353,353,o),
(343,365,c),
(337,392,o),
(327,415,o),
(312,434,c),
(287,424,l),
(285,418,o),
(283,412,o),
(283,404,cs),
(283,380,o),
(292,361,o),
(308,348,c),
(308,296,o),
(264,259,o),
(200,259,cs),
(162,259,o),
(139,276,o),
(132,311,c),
(114,301,o),
(103,276,o),
(103,260,cs),
(103,224,o),
(146,209,o),
(199,209,cs),
(271,209,o),
(330,249,o),
(340,310,c),
(351,304,o),
(372,301,o),
(403,301,cs),
(466,301,o),
(509,333,o),
(521,380,c),
(535,375,o),
(555,372,o),
(581,372,cs),
(649,372,o),
(697,409,o),
(703,468,c),
(715,459,o),
(734,455,o),
(761,455,cs),
(851,455,o),
(935,572,o),
(935,691,c),
(923,691,l),
(888,587,o),
(818,509,o),
(763,509,cs),
(708,509,o),
(687,540,o),
(674,582,c),
(647,570,l),
(646,563,o),
(646,557,o),
(646,550,cs),
(646,526,o),
(653,508,o),
(667,496,c),
(667,451,o),
(634,416,o),
(582,416,cs),
(565,416,o),
(547,419,o),
(527,426,c),
(525,449,o),
(515,478,o),
(496,511,c)
);
}
);
width = 1038;
}
);
note = u1D028;
unicode = 118824;
},
{
category = Letter;
glyphname = u1D029;
lastChange = "2018-08-24 12:55:27 +0000";
layers = (
{
layerId = "2208DBFF-11B0-48D9-BA6B-B988DFB8211A";
shapes = (
{
closed = 1;
nodes = (
(112,282,ls),
(227,282,o),
(318,330,o),
(318,404,cs),
(318,438,o),
(293,460,o),
(252,460,cs),
(218,460,o),
(187,444,o),
(187,416,cs),
(187,396,o),
(210,386,o),
(224,386,cs),
(230,386,o),
(236,388,o),
(242,390,c),
(246,384,o),
(248,378,o),
(248,373,cs),
(248,340,o),
(175,305,o),
(103,302,c),
(103,282,l)
);
},
{
closed = 1;
nodes = (
(562,487,l),
(518,521,o),
(489,539,o),
(474,539,cs),
(458,539,o),
(443,527,o),
(443,510,cs),
(443,501,o),
(447,495,o),
(455,490,cs),
(518,449,ls),
(528,442,o),
(538,440,o),
(548,440,cs),
(563,440,o),
(577,447,o),
(590,460,cs),
(829,697,l),
(809,697,l)
);
},
{
closed = 1;
nodes = (
(518,276,l),
(430,383,l),
(425,401,l),
(408,410,o),
(394,415,o),
(382,415,cs),
(360,415,o),
(349,408,o),
(349,394,cs),
(349,383,o),
(356,371,o),
(370,360,cs),
(526,235,l)
);
},
{
closed = 1;
nodes = (
(634,276,l),
(546,383,l),
(541,401,l),
(522,410,o),
(508,415,o),
(498,415,cs),
(476,415,o),
(465,408,o),
(465,393,cs),
(465,382,o),
(471,371,o),
(485,360,cs),
(641,235,l)
);
}
);
width = 934;
}
);
note = u1D029;
unicode = 118825;
},
{
category = Letter;
glyphname = u1D02A;
lastChange = "2018-08-24 12:55:27 +0000";
layers = (
{
layerId = "2208DBFF-11B0-48D9-BA6B-B988DFB8211A";
shapes = (
{
closed = 1;
nodes = (
(516,416,l),
(531,431,o),
(559,439,o),
(598,439,cs),
(654,439,o),
(698,402,o),
(698,370,cs),
(698,312,o),
(633,280,o),
(535,280,cs),
(511,280,o),
(477,283,o),
(434,288,cs),
(390,293,o),
(350,296,o),
(311,296,cs),
(238,296,o),
(169,285,o),
(103,262,c),
(114,242,l),
(171,253,o),
(236,259,o),
(310,259,cs),
(350,259,o),
(390,254,o),
(431,244,cs),
(472,234,o),
(507,228,o),
(538,228,cs),
(587,228,o),
(646,235,o),
(703,282,c),
(703,265,ls),
(703,234,o),
(727,210,o),
(768,210,cs),
(800,210,o),
(818,228,o),
(821,259,c),
(827,259,l),
(829,224,o),
(846,206,o),
(878,206,cs),
(887,206,o),
(895,209,o),
(899,216,c),
(844,338,l),
(805,348,l),
(798,289,o),
(785,259,o),
(766,259,cs),
(751,259,o),
(743,275,o),
(743,308,cs),
(743,315,o),
(744,324,o),
(747,335,cs),
(749,344,o),
(750,358,o),
(750,374,cs),
(750,447,o),
(691,490,o),
(588,490,cs),
(551,490,o),
(520,484,o),
(493,473,cs),
(466,462,o),
(452,450,o),
(452,439,cs),
(452,433,o),
(455,427,o),
(459,422,cs),
(464,417,o),
(466,415,o),
(466,413,cs),
(466,411,o),
(464,409,o),
(462,407,cs),
(459,406,o),
(458,403,o),
(458,401,cs),
(458,389,o),
(491,373,o),
(509,373,cs),
(528,373,o),
(538,380,o),
(538,395,cs),
(538,406,o),
(531,412,o),
(516,412,c)
);
}
);
width = 1002;
}
);
note = u1D02A;
unicode = 118826;
},
{
category = Letter;
glyphname = u1D02B;
lastChange = "2018-08-24 12:55:27 +0000";
layers = (
{
layerId = "2208DBFF-11B0-48D9-BA6B-B988DFB8211A";
shapes = (
{
closed = 1;
nodes = (
(476,388,l),
(365,620,l),
(294,620,l),
(294,396,l),
(136,396,l),
(136,365,l),
(157,358,o),
(167,346,o),
(167,329,cs),
(167,297,o),
(146,266,o),
(103,235,c),
(113,222,l),
(177,255,o),
(215,300,o),
(215,329,cs),
(215,341,o),
(208,353,o),
(193,365,c),
(294,365,l),
(294,235,l),
(319,235,l),
(383,251,o),
(449,259,o),
(516,259,cs),
(551,259,o),
(589,254,o),
(632,244,cs),
(675,234,o),
(712,228,o),
(743,228,cs),
(801,228,o),
(852,238,o),
(908,282,c),
(908,265,ls),
(908,234,o),
(932,210,o),
(973,210,cs),
(1004,210,o),
(1022,226,o),
(1027,259,c),
(1030,259,l),
(1036,224,o),
(1053,206,o),
(1081,206,cs),
(1091,206,o),
(1099,209,o),
(1103,216,c),
(1049,338,l),
(1009,348,l),
(1007,321,o),
(1002,299,o),
(995,283,cs),
(988,267,o),
(979,259,o),
(971,259,cs),
(956,259,o),
(948,275,o),
(948,308,cs),
(948,315,o),
(949,323,o),
(952,335,cs),
(955,347,o),
(956,358,o),
(956,374,cs),
(956,444,o),
(897,490,o),
(792,490,cs),
(755,490,o),
(723,484,o),
(696,473,cs),
(669,462,o),
(656,450,o),
(656,439,cs),
(656,433,o),
(658,428,o),
(664,422,cs),
(668,418,o),
(671,415,o),
(671,413,cs),
(671,411,o),
(670,409,o),
(667,407,cs),
(665,406,o),
(664,403,o),
(664,401,cs),
(664,389,o),
(694,373,o),
(714,373,cs),
(733,373,o),
(743,380,o),
(743,395,cs),
(743,406,o),
(735,412,o),
(719,412,c),
(719,416,l),
(729,426,o),
(758,439,o),
(802,439,cs),
(860,439,o),
(905,401,o),
(905,370,cs),
(905,314,o),
(840,280,o),
(740,280,cs),
(714,280,o),
(680,283,o),
(638,288,cs),
(595,293,o),
(555,296,o),
(517,296,cs),
(457,296,o),
(400,287,o),
(346,269,c),
(346,365,l),
(476,365,l)
);
},
{
closed = 1;
nodes = (
(433,396,l),
(346,396,l),
(346,577,l)
);
}
);
width = 1207;
}
);
note = u1D02B;
unicode = 118827;
},
{
category = Letter;
glyphname = u1D02C;
lastChange = "2018-08-24 12:55:27 +0000";
layers = (
{
layerId = "2208DBFF-11B0-48D9-BA6B-B988DFB8211A";
shapes = (
{
closed = 1;
nodes = (
(502,348,ls),
(468,321,o),
(442,308,o),
(425,308,cs),
(409,308,o),
(401,324,o),
(401,355,cs),
(401,372,ls),
(401,383,o),
(391,388,o),
(370,388,cs),
(339,388,o),
(330,375,o),
(330,352,cs),
(330,343,l),
(319,292,o),
(298,261,o),
(268,250,c),
(250,306,o),
(217,346,o),
(174,346,cs),
(131,346,o),
(103,320,o),
(103,283,cs),
(103,244,o),
(155,204,o),
(230,204,cs),
(251,204,l),
(260,171,o),
(266,144,o),
(268,121,c),
(282,144,l),
(282,171,o),
(280,193,o),
(276,209,c),
(314,224,o),
(341,251,o),
(355,293,c),
(378,271,o),
(402,260,o),
(425,260,cs),
(448,260,o),
(475,271,o),
(502,296,cs),
(866,629,l),
(850,629,l)
);
},
{
closed = 1;
nodes = (
(156,297,o),
(164,304,o),
(180,304,cs),
(202,304,o),
(222,283,o),
(239,240,c),
(224,240,ls),
(179,240,o),
(156,266,o),
(156,282,cs)
);
}
);
width = 971;
}
);
note = u1D02C;
unicode = 118828;
},
{
category = Letter;
glyphname = u1D02D;
lastChange = "2018-08-24 12:55:27 +0000";
layers = (
{
layerId = "2208DBFF-11B0-48D9-BA6B-B988DFB8211A";
shapes = (
{
closed = 1;
nodes = (
(372,439,l),
(364,498,o),
(338,577,o),
(300,577,cs),
(267,577,o),
(232,518,o),
(224,439,c),
(103,439,l),
(103,402,o),
(117,372,o),
(146,348,c),
(155,348,o),
(164,355,o),
(173,370,c),
(167,382,o),
(164,394,o),
(164,406,c),
(222,406,l),
(222,311,o),
(244,266,o),
(300,266,cs),
(349,266,o),
(373,313,o),
(373,406,c),
(413,406,l),
(417,352,o),
(444,319,o),
(487,319,cs),
(530,319,o),
(562,352,o),
(578,406,c),
(578,401,ls),
(578,354,o),
(591,331,o),
(650,331,cs),
(702,331,o),
(773,369,o),
(830,424,c),
(829,426,l),
(769,382,o),
(711,360,o),
(655,360,cs),
(622,360,o),
(614,377,o),
(614,412,cs),
(614,423,o),
(617,437,o),
(624,455,c),
(617,456,o),
(607,456,o),
(600,456,cs),
(581,456,o),
(556,455,o),
(551,435,cs),
(545,411,ls),
(536,374,o),
(521,355,o),
(502,355,cs),
(475,355,o),
(460,382,o),
(460,413,cs),
(460,419,o),
(461,428,o),
(463,439,c)
);
},
{
closed = 1;
nodes = (
(467,577,o),
(488,593,o),
(530,593,cs),
(550,593,o),
(564,589,o),
(572,581,cs),
(581,572,o),
(584,565,o),
(584,560,cs),
(584,555,o),
(583,549,o),
(579,543,cs),
(576,538,o),
(574,532,o),
(574,527,cs),
(574,515,o),
(583,509,o),
(599,509,cs),
(610,509,o),
(626,514,o),
(638,525,cs),
(659,544,o),
(682,563,o),
(707,572,cs),
(732,581,o),
(755,588,o),
(776,588,cs),
(795,588,o),
(802,582,o),
(809,573,cs),
(818,561,o),
(819,556,o),
(833,556,cs),
(847,556,o),
(854,564,o),
(854,581,cs),
(854,604,o),
(825,624,o),
(785,624,cs),
(734,624,o),
(663,593,o),
(622,560,c),
(623,565,o),
(623,570,o),
(623,575,cs),
(622,611,o),
(591,629,o),
(528,629,cs),
(471,629,o),
(415,597,o),
(415,569,cs),
(415,554,o),
(432,546,o),
(467,546,c)
);
},
{
closed = 1;
nodes = (
(334,351,o),
(322,323,o),
(300,323,cs),
(273,323,o),
(260,351,o),
(260,406,c),
(336,406,l)
);
},
{
closed = 1;
nodes = (
(263,465,o),
(268,486,o),
(276,503,cs),
(284,520,o),
(292,528,o),
(300,528,cs),
(306,528,o),
(312,520,o),
(320,503,cs),
(328,486,o),
(332,465,o),
(334,439,c),
(260,439,l)
);
}
);
width = 958;
}
);
note = u1D02D;
unicode = 118829;
},
{
category = Letter;
glyphname = u1D02E;
lastChange = "2018-08-24 12:55:27 +0000";
layers = (
{
layerId = "2208DBFF-11B0-48D9-BA6B-B988DFB8211A";
shapes = (
{
closed = 1;
nodes = (
(923,434,o),
(900,458,o),
(863,458,cs),
(815,458,o),
(755,398,o),
(682,280,c),
(682,285,ls),
(682,357,o),
(624,449,o),
(584,467,c),
(556,467,o),
(533,438,o),
(533,406,c),
(600,381,o),
(642,324,o),
(642,257,cs),
(642,235,o),
(650,224,o),
(667,224,cs),
(694,224,o),
(720,260,o),
(756,311,cs),
(775,337,o),
(793,355,o),
(811,366,c),
(822,346,o),
(840,336,o),
(864,336,cs),
(897,336,o),
(923,365,o),
(923,397,cs)
);
},
{
closed = 1;
nodes = (
(500,666,o),
(517,660,o),
(521,660,cs),
(542,660,o),
(556,688,o),
(556,714,cs),
(556,728,o),
(551,741,o),
(542,754,c),
(538,755,o),
(534,755,o),
(530,755,cs),
(516,754,o),
(503,753,o),
(493,749,cs),
(481,744,o),
(438,712,o),
(366,653,cs),
(293,593,o),
(206,502,o),
(103,380,c),
(149,383,l),
(256,510,o),
(379,620,o),
(474,676,c)
);
},
{
closed = 1;
nodes = (
(259,348,l),
(352,451,o),
(449,532,o),
(552,593,c),
(560,590,o),
(568,587,o),
(578,583,cs),
(587,579,o),
(595,577,o),
(602,577,cs),
(622,577,o),
(634,604,o),
(634,631,cs),
(634,647,o),
(630,661,o),
(622,671,c),
(617,672,o),
(611,672,o),
(606,672,cs),
(593,671,o),
(582,670,o),
(571,667,cs),
(561,664,o),
(523,636,o),
(444,573,cs),
(371,514,o),
(294,438,o),
(215,344,c)
);
}
);
width = 1027;
}
);
note = u1D02E;
unicode = 118830;
},
{
category = Letter;
glyphname = u1D02F;
lastChange = "2018-08-24 12:55:27 +0000";
layers = (
{
layerId = "2208DBFF-11B0-48D9-BA6B-B988DFB8211A";
shapes = (
{
closed = 1;
nodes = (
(422,404,l),
(694,660,l),
(710,658,ls),
(726,656,o),
(738,668,o),
(746,697,cs),
(754,728,l),
(716,727,o),
(687,720,o),
(667,708,c),
(370,401,l)
);
},
{
closed = 1;
nodes = (
(426,354,l),
(259,199,l),
(262,188,l),
(334,208,l),
(498,360,l)
);
},
{
closed = 1;
nodes = (
(271,354,l),
(103,199,l),
(107,188,l),
(179,208,l),
(343,360,l)
);
}
);
width = 857;
}
);
note = u1D02F;
unicode = 118831;
},
{
category = Letter;
glyphname = u1D030;
lastChange = "2018-08-24 12:55:27 +0000";
layers = (
{
layerId = "2208DBFF-11B0-48D9-BA6B-B988DFB8211A";
shapes = (
{
closed = 1;
nodes = (
(187,476,ls),
(182,499,o),
(169,511,o),
(131,511,cs),
(113,511,o),
(103,502,o),
(103,494,cs),
(103,489,o),
(106,485,o),
(111,480,cs),
(117,476,o),
(120,471,o),
(121,466,cs),
(164,283,l),
(426,343,l),
(547,654,l),
(487,634,l),
(397,380,l),
(218,340,l)
);
}
);
width = 650;
}
);
note = u1D030;
unicode = 118832;
},
{
category = Letter;
glyphname = u1D031;
lastChange = "2018-08-24 12:55:27 +0000";
layers = (
{
layerId = "2208DBFF-11B0-48D9-BA6B-B988DFB8211A";
shapes = (
{
closed = 1;
nodes = (
(404,476,l),
(401,500,o),
(383,511,o),
(348,511,cs),
(331,511,o),
(322,505,o),
(322,494,cs),
(322,492,o),
(322,491,o),
(323,487,c),
(103,274,l),
(146,247,l),
(340,452,l),
(382,283,l),
(646,343,l),
(766,654,l),
(706,634,l),
(614,380,l),
(438,340,l)
);
}
);
width = 870;
}
);
note = u1D031;
unicode = 118833;
},
{
category = Letter;
glyphname = u1D032;
lastChange = "2018-08-24 12:55:27 +0000";
layers = (
{
layerId = "2208DBFF-11B0-48D9-BA6B-B988DFB8211A";
shapes = (
{
closed = 1;
nodes = (
(758,682,l),
(726,708,ls),
(690,738,o),
(664,754,o),
(647,754,cs),
(622,754,o),
(605,728,o),
(605,708,cs),
(605,693,o),
(613,684,o),
(629,677,cs),
(712,641,ls),
(725,635,o),
(737,631,o),
(750,631,cs),
(767,631,o),
(788,639,o),
(806,657,cs),
(1123,978,l),
(1100,978,l)
);
},
{
closed = 1;
nodes = (
(103,216,l),
(231,216,o),
(318,265,o),
(318,338,cs),
(318,370,o),
(293,395,o),
(252,395,cs),
(217,395,o),
(187,377,o),
(187,352,cs),
(187,329,o),
(210,320,o),
(225,319,cs),
(231,319,o),
(234,320,o),
(242,323,c),
(246,318,o),
(248,313,o),
(248,307,cs),
(248,274,o),
(175,238,o),
(103,236,c)
);
},
{
closed = 1;
nodes = (
(271,208,ls),
(388,208,o),
(476,256,o),
(476,330,cs),
(476,365,o),
(452,386,o),
(413,386,cs),
(377,386,o),
(346,370,o),
(346,343,cs),
(346,322,o),
(368,312,o),
(385,311,cs),
(391,311,o),
(395,312,o),
(403,314,c),
(407,309,o),
(409,303,o),
(409,298,cs),
(409,266,o),
(336,230,o),
(262,228,c),
(262,208,l)
);
},
{
closed = 1;
nodes = (
(506,455,l),
(562,452,l),
(685,562,l),
(642,577,l)
);
},
{
closed = 1;
nodes = (
(432,496,l),
(487,494,l),
(612,604,l),
(569,619,l)
);
},
{
closed = 1;
nodes = (
(636,196,l),
(706,204,l),
(941,418,l),
(884,418,l)
);
},
{
closed = 1;
nodes = (
(530,224,l),
(599,232,l),
(833,448,l),
(779,448,l)
);
}
);
width = 1226;
}
);
note = u1D032;
unicode = 118834;
},
{
category = Letter;
glyphname = u1D033;
lastChange = "2018-08-24 12:55:27 +0000";
layers = (
{
layerId = "2208DBFF-11B0-48D9-BA6B-B988DFB8211A";
shapes = (
{
closed = 1;
nodes = (
(103,283,l),
(228,283,o),
(318,333,o),
(318,406,cs),
(318,441,o),
(291,463,o),
(252,463,cs),
(217,463,o),
(187,446,o),
(187,418,cs),
(187,396,o),
(210,388,o),
(225,388,cs),
(231,388,o),
(235,389,o),
(242,391,c),
(246,386,o),
(248,380,o),
(248,375,cs),
(248,343,o),
(171,307,o),
(103,304,c)
);
},
{
closed = 1;
nodes = (
(271,276,ls),
(386,276,o),
(476,325,o),
(476,397,cs),
(476,433,o),
(452,455,o),
(413,455,cs),
(377,455,o),
(346,439,o),
(346,412,cs),
(346,389,o),
(370,379,o),
(384,379,cs),
(390,379,o),
(394,380,o),
(403,383,c),
(407,377,o),
(409,373,o),
(409,367,cs),
(409,334,o),
(333,298,o),
(262,296,c),
(262,276,l)
);
},
{
closed = 1;
nodes = (
(559,344,l),
(620,344,l),
(858,559,l),
(806,569,l)
);
}
);
width = 962;
}
);
note = u1D033;
unicode = 118835;
},
{
category = Letter;
glyphname = u1D034;
lastChange = "2018-08-24 12:55:27 +0000";
layers = (
{
layerId = "2208DBFF-11B0-48D9-BA6B-B988DFB8211A";
shapes = (
{
closed = 1;
nodes = (
(714,276,ls),
(712,251,o),
(717,233,o),
(723,224,cs),
(729,214,o),
(737,209,o),
(749,209,cs),
(775,209,o),
(792,225,o),
(802,258,c),
(776,290,l),
(780,408,l),
(875,408,o),
(923,437,o),
(923,494,cs),
(923,559,o),
(872,613,o),
(805,629,c),
(820,718,ls),
(823,738,o),
(813,754,o),
(797,754,cs),
(778,754,o),
(766,745,o),
(763,728,cs),
(746,631,l),
(710,624,o),
(685,610,o),
(665,593,cs),
(360,329,l),
(416,338,l),
(620,487,l),
(622,446,o),
(658,416,o),
(722,412,c)
);
},
{
closed = 1;
nodes = (
(257,132,l),
(334,145,l),
(476,283,l),
(412,283,l)
);
},
{
closed = 1;
nodes = (
(103,132,l),
(182,145,l),
(325,283,l),
(259,283,l)
);
},
{
closed = 1;
nodes = (
(835,591,o),
(866,551,o),
(866,510,cs),
(866,479,o),
(839,462,o),
(786,458,c),
(802,599,l)
);
},
{
closed = 1;
nodes = (
(697,469,o),
(682,485,o),
(682,510,cs),
(682,547,o),
(703,583,o),
(743,598,c),
(727,463,l)
);
}
);
width = 1027;
}
);
note = u1D034;
unicode = 118836;
},
{
category = Letter;
glyphname = u1D035;
lastChange = "2018-08-24 12:55:27 +0000";
layers = (
{
layerId = "2208DBFF-11B0-48D9-BA6B-B988DFB8211A";
shapes = (
{
closed = 1;
nodes = (
(607,276,ls),
(607,251,o),
(610,233,o),
(616,224,cs),
(622,214,o),
(630,209,o),
(642,209,cs),
(669,209,o),
(688,225,o),
(697,258,c),
(671,290,l),
(676,408,l),
(771,408,o),
(818,437,o),
(818,494,cs),
(818,557,o),
(770,613,o),
(698,629,c),
(715,724,ls),
(715,744,o),
(707,754,o),
(691,754,cs),
(672,754,o),
(659,744,o),
(656,726,cs),
(641,631,l),
(581,622,o),
(535,581,o),
(518,528,c),
(410,422,o),
(287,330,o),
(240,330,cs),
(204,330,o),
(196,356,o),
(188,383,cs),
(180,409,o),
(167,434,o),
(145,434,cs),
(121,434,o),
(103,415,o),
(103,391,cs),
(103,362,o),
(171,276,o),
(224,276,cs),
(274,276,o),
(345,325,o),
(460,434,cs),
(516,487,l),
(518,443,o),
(554,416,o),
(614,412,c)
);
},
{
closed = 1;
nodes = (
(730,591,o),
(761,551,o),
(761,510,cs),
(761,479,o),
(735,462,o),
(682,458,c),
(685,507,o),
(689,555,o),
(697,599,c)
);
},
{
closed = 1;
nodes = (
(590,470,o),
(574,485,o),
(574,510,cs),
(574,547,o),
(597,583,o),
(636,598,c),
(622,463,l)
);
}
);
width = 922;
}
);
note = u1D035;
unicode = 118837;
},
{
category = Letter;
glyphname = u1D036;
lastChange = "2018-08-24 12:55:27 +0000";
layers = (
{
layerId = "2208DBFF-11B0-48D9-BA6B-B988DFB8211A";
shapes = (
{
closed = 1;
nodes = (
(424,341,o),
(408,319,o),
(408,288,cs),
(408,238,o),
(449,208,o),
(521,208,cs),
(565,208,o),
(605,219,o),
(641,242,c),
(636,260,l),
(598,244,o),
(562,236,o),
(530,236,cs),
(490,236,o),
(463,257,o),
(463,288,cs),
(463,312,o),
(472,328,o),
(490,336,c),
(500,333,o),
(512,331,o),
(525,331,cs),
(559,332,o),
(588,354,o),
(588,377,cs),
(588,396,o),
(574,406,o),
(547,406,cs),
(526,406,o),
(507,397,o),
(491,380,c),
(472,389,o),
(463,404,o),
(463,425,cs),
(463,448,o),
(472,464,o),
(490,474,c),
(502,470,o),
(509,468,o),
(527,468,cs),
(555,468,o),
(588,492,o),
(588,516,cs),
(588,530,o),
(571,542,o),
(547,542,cs),
(526,542,o),
(508,534,o),
(491,517,c),
(472,527,o),
(463,542,o),
(463,562,cs),
(463,583,o),
(472,600,o),
(490,611,c),
(505,606,o),
(516,604,o),
(522,604,cs),
(549,604,o),
(588,627,o),
(588,650,cs),
(588,667,o),
(571,682,o),
(547,682,cs),
(531,682,o),
(518,674,o),
(502,664,c),
(488,667,o),
(474,679,o),
(473,698,cs),
(473,703,o),
(474,708,o),
(475,712,c),
(484,711,o),
(493,710,o),
(502,710,cs),
(556,711,o),
(595,737,o),
(595,769,cs),
(595,787,o),
(578,809,o),
(533,809,cs),
(499,809,o),
(467,793,o),
(438,761,c),
(394,775,ls),
(328,796,o),
(277,809,o),
(239,809,cs),
(177,809,o),
(103,757,o),
(103,728,cs),
(103,726,o),
(104,724,o),
(108,724,cs),
(113,724,o),
(128,729,o),
(152,741,cs),
(176,753,o),
(201,757,o),
(226,757,cs),
(243,757,o),
(293,746,o),
(375,728,cs),
(422,718,l),
(418,709,o),
(415,701,o),
(415,692,cs),
(415,665,o),
(427,645,o),
(452,631,c),
(423,615,o),
(408,592,o),
(408,562,cs),
(408,529,o),
(424,507,o),
(455,494,c),
(424,477,o),
(408,454,o),
(408,425,cs),
(408,394,o),
(424,371,o),
(455,355,c)
);
}
);
width = 744;
}
);
note = u1D036;
unicode = 118838;
},
{
category = Letter;
glyphname = u1D037;
lastChange = "2018-08-24 12:55:27 +0000";
layers = (
{
layerId = "2208DBFF-11B0-48D9-BA6B-B988DFB8211A";
shapes = (
{
closed = 1;
nodes = (
(677,200,l),
(774,200,o),
(844,240,o),
(844,304,cs),
(844,342,o),
(825,361,o),
(787,361,cs),
(758,361,o),
(736,344,o),
(736,323,cs),
(736,307,o),
(751,298,o),
(766,296,cs),
(780,294,o),
(792,291,o),
(792,280,cs),
(792,250,o),
(735,226,o),
(671,218,c)
);
},
{
closed = 1;
nodes = (
(677,383,l),
(774,383,o),
(844,420,o),
(844,487,cs),
(844,523,o),
(825,542,o),
(787,542,cs),
(758,542,o),
(736,527,o),
(736,506,cs),
(736,486,o),
(754,481,o),
(768,479,cs),
(781,477,o),
(792,474,o),
(792,464,cs),
(792,450,o),
(781,437,o),
(759,425,cs),
(737,413,o),
(708,406,o),
(671,403,c)
);
},
{
closed = 1;
nodes = (
(677,568,l),
(780,568,o),
(844,607,o),
(844,671,cs),
(844,708,o),
(820,726,o),
(787,726,cs),
(758,726,o),
(736,708,o),
(736,689,cs),
(736,668,o),
(753,662,o),
(767,660,cs),
(781,658,o),
(792,655,o),
(792,645,cs),
(792,612,o),
(733,589,o),
(671,584,c)
);
},
{
closed = 1;
nodes = (
(424,341,o),
(408,319,o),
(408,288,cs),
(408,238,o),
(449,208,o),
(521,208,cs),
(565,208,o),
(605,219,o),
(641,242,c),
(636,260,l),
(598,244,o),
(562,236,o),
(530,236,cs),
(490,236,o),
(463,257,o),
(463,288,cs),
(463,312,o),
(472,328,o),
(490,336,c),
(500,333,o),
(512,331,o),
(525,331,cs),
(559,332,o),
(588,354,o),
(588,377,cs),
(588,396,o),
(574,406,o),
(547,406,cs),
(526,406,o),
(507,397,o),
(491,380,c),
(472,389,o),
(463,404,o),
(463,425,cs),
(463,448,o),
(472,464,o),
(490,474,c),
(502,470,o),
(509,468,o),
(527,468,cs),
(555,468,o),
(588,492,o),
(588,516,cs),
(588,530,o),
(571,542,o),
(547,542,cs),
(526,542,o),
(508,534,o),
(491,517,c),
(472,527,o),
(463,542,o),
(463,562,cs),
(463,583,o),
(472,600,o),
(490,611,c),
(505,606,o),
(516,604,o),
(522,604,cs),
(549,604,o),
(588,627,o),
(588,650,cs),
(588,667,o),
(571,682,o),
(547,682,cs),
(531,682,o),
(518,674,o),
(502,664,c),
(488,667,o),
(474,679,o),
(473,698,cs),
(473,703,o),
(474,708,o),
(475,712,c),
(484,711,o),
(493,710,o),
(502,710,cs),
(556,711,o),
(595,737,o),
(595,769,cs),
(595,787,o),
(578,809,o),
(533,809,cs),
(499,809,o),
(467,793,o),
(438,761,c),
(394,775,ls),
(328,796,o),
(277,809,o),
(239,809,cs),
(177,809,o),
(103,757,o),
(103,728,cs),
(103,726,o),
(104,724,o),
(108,724,cs),
(113,724,o),
(128,729,o),
(152,741,cs),
(176,753,o),
(201,757,o),
(226,757,cs),
(243,757,o),
(293,746,o),
(375,728,cs),
(422,718,l),
(418,709,o),
(415,701,o),
(415,692,cs),
(415,665,o),
(427,645,o),
(452,631,c),
(423,615,o),
(408,592,o),
(408,562,cs),
(408,529,o),
(424,507,o),
(455,494,c),
(424,477,o),
(408,454,o),
(408,425,cs),
(408,394,o),
(424,371,o),
(455,355,c)
);
}
);
width = 948;
}
);
note = u1D037;
unicode = 118839;
},
{
category = Letter;
glyphname = u1D038;
lastChange = "2018-08-24 12:55:27 +0000";
layers = (
{
layerId = "2208DBFF-11B0-48D9-BA6B-B988DFB8211A";
shapes = (
{
closed = 1;
nodes = (
(288,459,o),
(274,473,o),
(251,485,cs),
(247,487,o),
(239,491,o),
(239,494,cs),
(239,497,o),
(247,500,o),
(256,503,cs),
(265,506,o),
(275,509,o),
(284,513,cs),
(306,523,o),
(325,532,o),
(325,552,cs),
(325,569,o),
(314,584,o),
(292,596,cs),
(243,623,o),
(215,637,o),
(205,645,cs),
(195,653,o),
(188,659,o),
(188,665,cs),
(188,675,o),
(195,685,o),
(209,694,cs),
(223,703,o),
(247,708,o),
(277,708,cs),
(378,708,o),
(467,621,o),
(467,528,cs),
(467,491,o),
(447,453,o),
(396,406,cs),
(371,383,o),
(336,356,o),
(293,327,cs),
(207,269,o),
(173,231,o),
(152,177,cs),
(141,149,o),
(134,108,o),
(131,52,c),
(209,113,l),
(211,178,o),
(256,243,o),
(343,307,cs),
(433,374,ls),
(493,418,o),
(520,474,o),
(520,533,cs),
(520,607,o),
(474,685,o),
(397,726,cs),
(359,746,o),
(317,757,o),
(271,757,cs),
(191,757,o),
(127,711,o),
(127,660,cs),
(127,636,o),
(143,611,o),
(185,589,cs),
(206,578,o),
(216,568,o),
(216,560,cs),
(216,546,o),
(195,539,o),
(154,539,cs),
(122,539,o),
(106,532,o),
(106,518,cs),
(106,503,o),
(116,497,o),
(145,486,cs),
(179,473,o),
(197,465,o),
(197,458,cs),
(197,449,o),
(150,444,o),
(131,444,cs),
(112,444,o),
(103,437,o),
(103,422,cs),
(103,408,o),
(127,397,o),
(146,397,cs),
(184,397,o),
(217,402,o),
(246,411,cs),
(274,420,o),
(288,433,o),
(288,449,cs)
);
}
);
width = 624;
}
);
note = u1D038;
unicode = 118840;
},
{
category = Letter;
glyphname = u1D039;
lastChange = "2018-08-24 12:55:27 +0000";
layers = (
{
layerId = "2208DBFF-11B0-48D9-BA6B-B988DFB8211A";
shapes = (
{
closed = 1;
nodes = (
(114,197,l),
(235,197,o),
(312,245,o),
(312,318,cs),
(312,362,o),
(284,382,o),
(245,382,cs),
(210,382,o),
(182,362,o),
(182,338,cs),
(182,315,o),
(199,310,o),
(216,306,cs),
(240,301,ls),
(248,299,o),
(251,295,o),
(251,290,cs),
(251,252,o),
(185,227,o),
(103,217,c)
);
},
{
closed = 1;
nodes = (
(114,403,l),
(237,403,o),
(312,450,o),
(312,521,cs),
(312,565,o),
(290,588,o),
(245,588,cs),
(210,588,o),
(182,569,o),
(182,542,cs),
(182,521,o),
(199,516,o),
(216,512,cs),
(240,506,ls),
(248,504,o),
(251,501,o),
(251,496,cs),
(251,479,o),
(238,464,o),
(211,451,cs),
(184,438,o),
(148,429,o),
(103,424,c)
);
},
{
closed = 1;
nodes = (
(114,607,l),
(234,607,o),
(312,656,o),
(312,727,cs),
(312,771,o),
(290,792,o),
(245,792,cs),
(210,792,o),
(182,776,o),
(182,749,cs),
(182,728,o),
(202,721,o),
(219,717,cs),
(236,713,ls),
(245,711,o),
(251,707,o),
(251,701,cs),
(251,683,o),
(238,667,o),
(211,655,cs),
(184,643,o),
(148,634,o),
(103,629,c)
);
}
);
width = 416;
}
);
note = u1D039;
unicode = 118841;
},
{
category = Letter;
glyphname = u1D03A;
lastChange = "2018-08-24 12:55:27 +0000";
layers = (
{
layerId = "2208DBFF-11B0-48D9-BA6B-B988DFB8211A";
shapes = (
{
closed = 1;
nodes = (
(510,482,ls),
(513,458,o),
(526,446,o),
(571,446,cs),
(585,446,o),
(595,456,o),
(593,471,cs),
(584,535,ls),
(578,577,o),
(574,611,o),
(574,625,cs),
(574,679,o),
(578,722,o),
(584,754,c),
(520,750,l),
(103,215,l),
(175,217,l),
(487,650,l)
);
}
);
width = 697;
}
);
note = u1D03A;
unicode = 118842;
},
{
category = Letter;
glyphname = u1D03B;
lastChange = "2018-08-24 12:55:27 +0000";
layers = (
{
layerId = "2208DBFF-11B0-48D9-BA6B-B988DFB8211A";
shapes = (
{
closed = 1;
nodes = (
(356,567,o),
(385,537,o),
(395,491,cs),
(397,480,o),
(403,475,o),
(413,475,cs),
(427,475,o),
(447,504,o),
(462,534,cs),
(474,559,o),
(492,582,o),
(498,587,cs),
(507,595,o),
(511,601,o),
(511,605,cs),
(511,611,o),
(505,614,o),
(494,614,cs),
(474,614,o),
(448,581,o),
(415,516,c),
(414,567,o),
(354,625,o),
(330,625,cs),
(318,625,o),
(306,612,o),
(306,597,cs),
(306,596,o),
(306,593,o),
(307,588,cs),
(308,581,l)
);
},
{
closed = 1;
nodes = (
(314,308,l),
(270,339,o),
(203,395,o),
(197,409,cs),
(180,446,l),
(167,455,o),
(152,460,o),
(137,460,cs),
(115,460,o),
(104,452,o),
(104,437,cs),
(104,426,o),
(110,415,o),
(123,402,cs),
(163,362,o),
(244,306,o),
(322,266,c)
);
},
{
closed = 1;
nodes = (
(444,308,l),
(397,340,o),
(329,398,o),
(325,408,cs),
(310,446,l),
(295,455,o),
(281,460,o),
(266,460,cs),
(243,460,o),
(232,452,o),
(232,436,cs),
(232,402,o),
(350,318,o),
(449,266,c)
);
},
{
closed = 1;
nodes = (
(677,152,l),
(846,345,o),
(989,500,o),
(1106,620,c),
(1100,629,l),
(991,547,o),
(941,501,o),
(744,278,c),
(740,278,l),
(740,289,ls),
(740,398,o),
(693,456,o),
(613,456,cs),
(561,456,o),
(516,419,o),
(476,346,c),
(490,334,l),
(516,361,o),
(550,391,o),
(595,391,cs),
(640,391,o),
(667,356,o),
(667,288,cs),
(667,234,o),
(667,227,o),
(650,158,c)
);
}
);
width = 1210;
}
);
note = u1D03B;
unicode = 118843;
},
{
category = Letter;
glyphname = u1D03C;
lastChange = "2018-08-24 12:55:27 +0000";
layers = (
{
layerId = "2208DBFF-11B0-48D9-BA6B-B988DFB8211A";
shapes = (
{
closed = 1;
nodes = (
(528,403,l),
(520,398,o),
(516,388,o),
(516,373,cs),
(516,331,l),
(502,322,o),
(488,318,o),
(475,318,cs),
(448,318,o),
(430,338,o),
(430,362,cs),
(430,382,o),
(437,403,o),
(449,424,c),
(390,424,l),
(377,417,o),
(367,404,o),
(361,376,cs),
(357,355,o),
(341,334,o),
(322,334,cs),
(300,334,o),
(281,353,o),
(275,390,cs),
(271,416,o),
(248,440,o),
(209,453,cs),
(192,459,o),
(173,460,o),
(151,460,cs),
(127,460,o),
(103,460,o),
(103,444,cs),
(103,436,o),
(107,431,o),
(113,429,cs),
(124,424,o),
(142,425,o),
(160,421,cs),
(188,414,o),
(215,401,o),
(215,366,cs),
(215,343,o),
(196,331,o),
(175,330,cs),
(154,329,o),
(144,325,o),
(144,314,cs),
(144,301,o),
(156,294,o),
(180,294,cs),
(206,294,o),
(230,301,o),
(251,314,c),
(265,298,o),
(283,290,o),
(304,290,cs),
(338,290,o),
(367,312,o),
(391,354,c),
(395,314,o),
(429,290,o),
(468,290,cs),
(486,290,o),
(499,295,o),
(520,304,c),
(521,297,o),
(527,292,o),
(538,293,cs),
(550,294,ls),
(563,295,o),
(577,302,o),
(577,314,cs),
(577,371,ls),
(577,394,o),
(561,403,o),
(539,403,cs)
);
}
);
width = 682;
}
);
note = u1D03C;
unicode = 118844;
},
{
category = Letter;
glyphname = u1D03D;
lastChange = "2018-08-24 12:55:27 +0000";
layers = (
{
layerId = "2208DBFF-11B0-48D9-BA6B-B988DFB8211A";
shapes = (
{
closed = 1;
nodes = (
(790,390,l),
(796,362,o),
(823,338,o),
(852,338,cs),
(875,338,o),
(899,353,o),
(926,382,c),
(926,355,o),
(944,341,o),
(980,332,cs),
(1034,319,ls),
(1059,313,o),
(1071,303,o),
(1071,288,cs),
(1071,286,o),
(1071,285,o),
(1070,283,c),
(1068,284,o),
(1066,284,o),
(1064,284,cs),
(1051,284,o),
(1044,275,o),
(1044,258,cs),
(1044,245,o),
(1060,230,o),
(1080,230,cs),
(1107,230,o),
(1121,257,o),
(1121,290,cs),
(1121,326,o),
(1105,343,o),
(1068,352,cs),
(1036,360,ls),
(1007,367,o),
(992,378,o),
(993,395,cs),
(996,442,l),
(924,456,l),
(912,405,o),
(897,380,o),
(881,380,cs),
(868,380,o),
(850,401,o),
(845,425,cs),
(839,454,o),
(832,476,o),
(818,476,cs),
(803,476,o),
(784,462,o),
(759,436,cs),
(496,164,l),
(516,219,o),
(526,270,o),
(526,314,cs),
(526,394,o),
(484,446,o),
(418,446,cs),
(399,446,o),
(379,444,o),
(360,440,cs),
(341,436,o),
(319,434,o),
(294,434,cs),
(220,434,o),
(179,461,o),
(179,509,cs),
(179,568,o),
(229,604,o),
(319,611,c),
(325,583,o),
(346,563,o),
(370,563,cs),
(401,563,o),
(434,589,o),
(434,613,cs),
(434,642,o),
(401,656,o),
(334,656,cs),
(215,656,o),
(103,583,o),
(103,494,cs),
(103,424,o),
(159,383,o),
(288,383,cs),
(304,383,o),
(321,385,o),
(337,387,cs),
(354,389,o),
(374,390,o),
(397,390,cs),
(455,390,o),
(469,353,o),
(469,290,cs),
(469,202,o),
(448,146,o),
(396,72,c),
(455,72,l)
);
},
{
closed = 1;
nodes = (
(599,590,l),
(667,589,l),
(547,707,l),
(481,707,l)
);
},
{
closed = 1;
nodes = (
(706,604,l),
(775,602,l),
(654,719,l),
(588,719,l)
);
}
);
width = 1224;
}
);
note = u1D03D;
unicode = 118845;
},
{
category = Letter;
glyphname = u1D03E;
lastChange = "2018-08-24 12:55:27 +0000";
layers = (
{
layerId = "2208DBFF-11B0-48D9-BA6B-B988DFB8211A";
shapes = (
{
closed = 1;
nodes = (
(297,245,o),
(319,232,o),
(354,232,cs),
(406,232,o),
(441,282,o),
(462,304,cs),
(718,577,l),
(716,564,o),
(715,549,o),
(716,539,cs),
(718,511,ls),
(719,496,o),
(720,487,o),
(734,487,cs),
(749,487,o),
(775,502,o),
(779,517,c),
(778,535,o),
(778,552,o),
(778,569,cs),
(778,587,o),
(778,604,o),
(779,622,c),
(786,647,l),
(786,657,o),
(780,662,o),
(769,662,cs),
(757,662,o),
(729,633,o),
(721,624,cs),
(439,340,ls),
(409,309,o),
(383,293,o),
(361,293,cs),
(338,293,o),
(326,315,o),
(317,340,cs),
(306,372,o),
(304,408,o),
(278,408,cs),
(265,408,o),
(254,404,o),
(252,396,cs),
(239,352,ls),
(226,309,o),
(208,287,o),
(185,287,cs),
(164,287,o),
(154,306,o),
(154,344,cs),
(154,390,ls),
(154,402,o),
(145,408,o),
(128,408,cs),
(111,408,o),
(103,401,o),
(103,388,cs),
(103,348,ls),
(103,271,o),
(131,218,o),
(187,218,cs),
(227,218,o),
(258,243,o),
(280,293,c)
);
}
);
width = 890;
}
);
note = u1D03E;
unicode = 118846;
},
{
category = Letter;
glyphname = u1D03F;
lastChange = "2018-08-24 12:55:27 +0000";
layers = (
{
layerId = "2208DBFF-11B0-48D9-BA6B-B988DFB8211A";
shapes = (
{
closed = 1;
nodes = (
(168,549,o),
(167,554,o),
(167,560,cs),
(168,606,o),
(209,646,o),
(257,646,cs),
(301,646,o),
(330,628,o),
(344,593,c),
(337,581,o),
(334,565,o),
(334,546,cs),
(334,520,o),
(346,496,o),
(366,496,cs),
(390,496,o),
(401,518,o),
(401,541,cs),
(401,550,o),
(399,562,o),
(395,578,c),
(406,584,o),
(416,588,o),
(422,588,cs),
(435,588,o),
(444,581,o),
(449,568,c),
(442,553,o),
(439,540,o),
(439,528,cs),
(439,503,o),
(449,491,o),
(468,491,cs),
(489,491,o),
(499,503,o),
(499,528,cs),
(499,538,o),
(498,549,o),
(496,559,c),
(505,572,o),
(520,578,o),
(541,578,cs),
(577,578,o),
(593,553,o),
(593,526,cs),
(593,520,l),
(590,517,o),
(586,511,o),
(583,506,cs),
(580,501,o),
(578,494,o),
(578,487,cs),
(578,468,o),
(589,458,o),
(611,458,cs),
(637,458,o),
(652,493,o),
(650,518,cs),
(650,526,l),
(691,589,o),
(780,686,o),
(829,726,c),
(822,733,l),
(738,669,o),
(677,612,o),
(640,562,c),
(621,606,o),
(591,629,o),
(552,629,cs),
(524,629,o),
(499,621,o),
(478,604,c),
(465,624,o),
(447,634,o),
(426,634,cs),
(409,634,o),
(394,629,o),
(382,620,c),
(359,666,o),
(316,689,o),
(252,689,cs),
(163,689,o),
(103,642,o),
(103,590,cs),
(103,574,o),
(108,558,o),
(118,541,c),
(170,541,l)
);
},
{
closed = 1;
nodes = (
(164,447,o),
(155,447,o),
(146,446,cs),
(139,445,o),
(135,434,o),
(135,416,cs),
(135,409,o),
(138,380,o),
(138,372,cs),
(136,277,ls),
(135,230,o),
(156,193,o),
(199,193,cs),
(225,193,o),
(250,217,o),
(274,266,c),
(276,223,o),
(315,182,o),
(355,182,cs),
(385,182,o),
(414,194,o),
(442,217,c),
(446,204,o),
(467,188,o),
(496,188,cs),
(581,188,o),
(703,284,o),
(862,475,c),
(852,478,l),
(810,438,ls),
(692,324,o),
(578,235,o),
(516,235,cs),
(501,235,o),
(484,236,o),
(476,249,cs),
(468,262,o),
(468,285,o),
(468,301,cs),
(468,320,o),
(464,329,o),
(456,329,cs),
(434,329,ls),
(421,329,o),
(415,322,o),
(415,308,cs),
(415,280,ls),
(415,245,o),
(396,222,o),
(365,222,cs),
(337,222,o),
(323,241,o),
(323,278,cs),
(323,286,o),
(324,292,o),
(327,297,cs),
(329,302,o),
(330,307,o),
(330,311,cs),
(330,319,o),
(319,329,o),
(311,329,cs),
(282,329,ls),
(270,329,o),
(259,320,o),
(250,302,cs),
(238,277,ls),
(227,254,o),
(215,242,o),
(206,242,cs),
(194,242,o),
(190,253,o),
(190,266,cs),
(190,271,o),
(190,282,o),
(191,287,cs),
(200,339,ls),
(206,373,o),
(210,396,o),
(210,408,cs),
(210,423,o),
(208,432,o),
(201,438,cs),
(192,446,o),
(190,447,o),
(173,447,cs)
);
}
);
width = 965;
}
);
note = u1D03F;
unicode = 118847;
},
{
category = Letter;
glyphname = u1D040;
lastChange = "2018-08-24 12:55:27 +0000";
layers = (
{
layerId = "2208DBFF-11B0-48D9-BA6B-B988DFB8211A";
shapes = (
{
closed = 1;
nodes = (
(270,378,ls),
(277,383,o),
(315,404,o),
(336,417,cs),
(355,429,o),
(370,440,o),
(370,449,cs),
(370,460,o),
(363,466,o),
(348,466,cs),
(345,466,o),
(330,465,o),
(313,463,cs),
(295,461,o),
(275,460,o),
(266,460,cs),
(241,460,o),
(215,464,o),
(189,474,cs),
(162,484,o),
(142,487,o),
(128,487,cs),
(114,487,o),
(103,477,o),
(103,463,cs),
(103,432,o),
(139,416,o),
(210,416,cs),
(230,416,o),
(250,418,o),
(271,422,c),
(241,404,o),
(166,350,o),
(166,331,cs),
(166,322,o),
(174,318,o),
(190,318,c),
(251,311,ls),
(272,309,o),
(300,300,o),
(317,293,cs),
(334,286,o),
(346,283,o),
(352,283,cs),
(361,283,o),
(365,290,o),
(365,304,cs),
(365,324,o),
(354,337,o),
(331,343,c),
(281,345,ls),
(255,346,o),
(237,347,o),
(228,348,c)
);
},
{
closed = 1;
nodes = (
(510,371,o),
(528,385,o),
(570,408,cs),
(619,435,o),
(646,456,o),
(646,467,cs),
(646,476,o),
(639,481,o),
(624,481,cs),
(611,481,o),
(598,480,o),
(585,479,cs),
(571,478,o),
(555,476,o),
(541,476,cs),
(516,476,o),
(483,485,o),
(439,500,cs),
(430,503,o),
(421,504,o),
(412,504,cs),
(395,504,o),
(386,495,o),
(386,478,cs),
(386,448,o),
(420,433,o),
(487,433,cs),
(510,433,o),
(530,435,o),
(547,438,c),
(531,431,o),
(442,367,o),
(442,348,cs),
(442,339,o),
(450,334,o),
(467,334,cs),
(482,334,o),
(518,328,o),
(553,322,cs),
(587,316,o),
(612,301,o),
(625,301,cs),
(636,301,o),
(641,308,o),
(641,322,cs),
(641,334,o),
(632,354,o),
(607,360,c),
(577,360,ls),
(533,360,o),
(516,362,o),
(504,365,c)
);
}
);
width = 749;
}
);
note = u1D040;
unicode = 118848;
},
{
category = Letter;
glyphname = u1D041;
lastChange = "2018-08-24 12:55:27 +0000";
layers = (
{
layerId = "2208DBFF-11B0-48D9-BA6B-B988DFB8211A";
shapes = (
{
closed = 1;
nodes = (
(288,262,l),
(249,294,ls),
(203,332,o),
(172,352,o),
(154,352,cs),
(123,352,o),
(103,323,o),
(103,296,cs),
(103,281,o),
(112,268,o),
(131,260,cs),
(230,216,ls),
(247,208,o),
(263,204,o),
(278,204,cs),
(297,204,o),
(321,214,o),
(343,236,cs),
(725,620,l),
(697,620,l)
);
}
);
width = 828;
}
);
note = u1D041;
unicode = 118849;
},
{
category = Letter;
glyphname = u1D042;
lastChange = "2018-08-24 12:55:27 +0000";
layers = (
{
layerId = "2208DBFF-11B0-48D9-BA6B-B988DFB8211A";
shapes = (
{
closed = 1;
nodes = (
(462,619,o),
(406,549,o),
(336,442,c),
(190,708,l),
(103,676,l),
(137,607,ls),
(146,588,o),
(160,578,o),
(176,578,cs),
(184,578,o),
(192,580,o),
(199,584,c),
(302,391,l),
(245,305,o),
(217,254,o),
(217,240,cs),
(217,228,o),
(229,218,o),
(240,218,cs),
(250,218,o),
(261,231,o),
(275,257,cs),
(289,284,o),
(306,316,o),
(325,354,c),
(361,285,ls),
(376,256,o),
(393,236,o),
(404,226,cs),
(416,216,o),
(428,210,o),
(442,210,cs),
(463,210,o),
(475,226,o),
(475,242,cs),
(475,251,o),
(471,260,o),
(463,269,cs),
(455,277,o),
(438,286,o),
(415,296,c),
(354,406,l),
(385,459,o),
(420,508,o),
(460,552,c),
(491,555,o),
(533,583,o),
(533,612,cs),
(533,635,o),
(523,648,o),
(504,650,c)
);
}
);
width = 636;
}
);
note = u1D042;
unicode = 118850;
},
{
category = Letter;
glyphname = u1D043;
lastChange = "2018-08-24 12:55:27 +0000";
layers = (
{
layerId = "2208DBFF-11B0-48D9-BA6B-B988DFB8211A";
shapes = (
{
closed = 1;
nodes = (
(677,475,l),
(674,462,o),
(673,457,o),
(672,447,cs),
(671,428,o),
(676,413,o),
(684,404,c),
(675,382,o),
(661,362,o),
(624,362,cs),
(597,362,o),
(579,368,o),
(568,380,c),
(568,408,o),
(559,433,o),
(541,456,c),
(510,444,l),
(507,437,o),
(506,427,o),
(506,416,cs),
(506,397,o),
(511,383,o),
(520,372,c),
(518,348,o),
(494,319,o),
(446,319,cs),
(407,319,o),
(384,343,o),
(380,380,c),
(352,366,o),
(338,350,o),
(338,331,cs),
(338,302,o),
(374,278,o),
(442,278,cs),
(498,278,o),
(540,304,o),
(556,343,c),
(563,333,o),
(590,323,o),
(622,323,cs),
(667,323,o),
(697,341,o),
(714,377,c),
(728,365,o),
(763,355,o),
(790,355,cs),
(829,355,o),
(870,379,o),
(880,418,c),
(893,408,o),
(916,403,o),
(950,403,cs),
(1032,403,o),
(1101,483,o),
(1117,574,c),
(1108,577,l),
(1073,499,o),
(1008,439,o),
(952,439,cs),
(907,439,o),
(880,468,o),
(872,526,c),
(850,518,l),
(842,511,o),
(838,500,o),
(838,484,cs),
(838,469,o),
(843,456,o),
(854,444,c),
(845,413,o),
(823,397,o),
(790,397,cs),
(761,397,o),
(734,408,o),
(725,418,c),
(725,425,ls),
(725,449,o),
(719,470,o),
(707,487,c)
);
},
{
closed = 1;
nodes = (
(118,228,l),
(140,226,o),
(151,225,o),
(168,225,cs),
(254,225,o),
(301,262,o),
(301,329,cs),
(301,372,o),
(268,391,o),
(239,391,cs),
(208,391,o),
(180,377,o),
(180,353,cs),
(180,335,o),
(192,328,o),
(205,323,cs),
(218,318,o),
(232,320,o),
(232,308,cs),
(232,271,o),
(189,252,o),
(103,252,c)
);
},
{
closed = 1;
nodes = (
(118,434,l),
(133,433,o),
(149,432,o),
(164,432,cs),
(255,432,o),
(301,466,o),
(301,535,cs),
(301,577,o),
(269,599,o),
(239,599,cs),
(208,599,o),
(180,584,o),
(180,560,cs),
(180,540,o),
(193,534,o),
(207,529,cs),
(220,524,o),
(232,526,o),
(232,516,cs),
(232,479,o),
(190,460,o),
(117,460,cs),
(103,460,l)
);
}
);
width = 1222;
}
);
note = u1D043;
unicode = 118851;
},
{
category = Letter;
glyphname = u1D044;
lastChange = "2018-08-24 12:55:27 +0000";
layers = (
{
layerId = "2208DBFF-11B0-48D9-BA6B-B988DFB8211A";
shapes = (
{
closed = 1;
nodes = (
(365,396,ls),
(365,359,o),
(398,331,o),
(434,331,cs),
(469,331,o),
(493,353,o),
(506,396,c),
(517,349,o),
(541,334,o),
(584,334,cs),
(620,334,o),
(643,348,o),
(654,377,c),
(656,345,o),
(684,322,o),
(715,322,cs),
(734,322,o),
(743,329,o),
(743,343,cs),
(743,346,o),
(740,353,o),
(734,364,cs),
(728,376,o),
(723,388,o),
(718,404,cs),
(692,490,l),
(680,489,o),
(668,486,o),
(658,483,cs),
(653,481,o),
(646,478,o),
(642,476,c),
(647,439,l),
(647,404,o),
(626,370,o),
(595,370,cs),
(574,370,o),
(563,383,o),
(562,411,cs),
(561,431,ls),
(560,454,o),
(551,467,o),
(538,467,cs),
(533,467,o),
(519,464,o),
(498,458,c),
(498,417,o),
(477,380,o),
(444,380,cs),
(425,380,o),
(416,388,o),
(416,404,cs),
(416,415,o),
(418,426,o),
(423,437,cs),
(428,448,o),
(430,458,o),
(430,466,cs),
(430,476,o),
(425,481,o),
(416,481,cs),
(414,481,o),
(411,480,o),
(407,478,cs),
(402,475,o),
(380,454,o),
(338,417,cs),
(274,360,ls),
(209,303,o),
(157,254,o),
(103,209,c),
(111,204,ls),
(116,201,o),
(125,199,o),
(136,199,cs),
(176,199,o),
(297,312,o),
(365,401,c)
);
}
);
width = 847;
}
);
note = u1D044;
unicode = 118852;
},
{
category = Letter;
glyphname = u1D045;
lastChange = "2018-08-24 12:55:27 +0000";
layers = (
{
layerId = "2208DBFF-11B0-48D9-BA6B-B988DFB8211A";
shapes = (
{
closed = 1;
nodes = (
(702,550,o),
(693,583,o),
(681,606,cs),
(669,629,o),
(655,641,o),
(640,641,cs),
(611,641,o),
(581,588,o),
(570,516,c),
(510,521,l),
(484,531,ls),
(479,533,o),
(474,535,o),
(469,535,cs),
(460,535,o),
(455,527,o),
(455,511,cs),
(455,498,o),
(462,491,o),
(476,491,cs),
(568,490,l),
(568,460,l),
(380,468,l),
(366,480,o),
(343,495,o),
(312,511,c),
(372,595,l),
(325,584,l),
(283,526,l),
(260,530,o),
(240,533,o),
(228,533,c),
(290,624,l),
(245,613,l),
(115,430,l),
(139,411,o),
(206,389,o),
(226,386,c),
(290,478,l),
(360,439,o),
(395,397,o),
(395,353,cs),
(395,289,o),
(326,242,o),
(230,242,cs),
(194,242,o),
(170,246,o),
(157,254,cs),
(144,262,o),
(138,271,o),
(138,280,cs),
(138,299,o),
(150,311,o),
(174,314,c),
(174,295,o),
(187,274,o),
(206,274,cs),
(218,274,o),
(235,282,o),
(235,300,cs),
(235,319,o),
(218,340,o),
(179,340,cs),
(134,340,o),
(103,315,o),
(103,280,cs),
(103,235,o),
(158,210,o),
(230,210,cs),
(350,210,o),
(442,269,o),
(442,355,cs),
(442,386,o),
(432,414,o),
(412,438,c),
(568,434,l),
(568,345,o),
(592,301,o),
(640,301,cs),
(684,301,o),
(708,345,o),
(712,432,c),
(749,432,l),
(753,343,o),
(774,301,o),
(821,301,cs),
(867,301,o),
(891,344,o),
(893,430,c),
(956,430,l),
(966,449,l),
(893,449,l),
(893,456,o),
(893,462,o),
(893,469,cs),
(893,473,o),
(893,477,o),
(892,481,c),
(956,481,l),
(966,502,l),
(890,504,l),
(882,581,o),
(854,641,o),
(821,641,cs),
(792,641,o),
(762,579,o),
(754,509,c),
(707,510,l)
);
},
{
closed = 1;
nodes = (
(209,506,l),
(224,504,o),
(241,499,o),
(260,491,c),
(210,422,l),
(197,424,o),
(181,431,o),
(164,442,c)
);
},
{
closed = 1;
nodes = (
(790,531,o),
(794,550,o),
(802,566,cs),
(809,581,o),
(815,589,o),
(821,589,cs),
(835,589,o),
(846,561,o),
(854,506,c),
(786,509,l)
);
},
{
closed = 1;
nodes = (
(672,388,o),
(661,365,o),
(640,365,cs),
(617,365,o),
(604,388,o),
(602,433,c),
(674,433,l)
);
},
{
closed = 1;
nodes = (
(853,387,o),
(841,365,o),
(821,365,cs),
(813,365,o),
(805,369,o),
(798,378,cs),
(791,387,o),
(786,405,o),
(785,432,c),
(857,430,l)
);
},
{
closed = 1;
nodes = (
(608,534,o),
(613,553,o),
(620,567,cs),
(627,581,o),
(633,589,o),
(640,589,cs),
(646,589,o),
(651,582,o),
(658,567,cs),
(664,553,o),
(668,534,o),
(672,510,c),
(605,511,l)
);
},
{
closed = 1;
nodes = (
(785,484,l),
(858,484,l),
(858,452,l),
(785,452,l)
);
},
{
closed = 1;
nodes = (
(602,487,l),
(674,487,l),
(675,483,o),
(676,476,o),
(676,471,cs),
(676,456,l),
(602,458,l)
);
},
{
closed = 1;
nodes = (
(712,455,l),
(712,468,o),
(711,475,o),
(710,485,c),
(749,485,l),
(749,455,l)
);
}
);
width = 1070;
}
);
note = u1D045;
unicode = 118853;
},
{
category = Letter;
glyphname = u1D046;
lastChange = "2018-08-24 12:55:27 +0000";
layers = (
{
layerId = "2208DBFF-11B0-48D9-BA6B-B988DFB8211A";
shapes = (
{
closed = 1;
nodes = (
(595,338,l),
(551,366,o),
(527,380,o),
(467,380,cs),
(445,380,o),
(394,376,o),
(285,364,cs),
(271,362,o),
(256,361,o),
(242,361,cs),
(208,361,o),
(174,375,o),
(174,391,cs),
(174,402,o),
(184,408,o),
(204,408,cs),
(224,408,o),
(243,406,o),
(260,401,c),
(235,428,o),
(201,442,o),
(156,442,cs),
(121,442,o),
(103,434,o),
(103,418,cs),
(103,397,o),
(128,378,o),
(179,361,cs),
(229,344,o),
(287,336,o),
(353,336,cs),
(375,336,o),
(396,337,o),
(417,340,cs),
(440,343,o),
(462,344,o),
(484,344,cs),
(522,344,o),
(560,339,o),
(595,330,c)
);
}
);
width = 698;
}
);
note = u1D046;
unicode = 118854;
},
{
category = Letter;
glyphname = u1D047;
lastChange = "2018-08-24 12:55:27 +0000";
layers = (
{
layerId = "2208DBFF-11B0-48D9-BA6B-B988DFB8211A";
shapes = (
{
closed = 1;
nodes = (
(103,388,l),
(133,358,o),
(170,342,o),
(215,343,cs),
(476,348,ls),
(509,349,o),
(546,345,o),
(590,338,c),
(590,346,l),
(549,374,o),
(512,389,o),
(478,388,cs),
(238,382,ls),
(182,381,o),
(123,387,o),
(103,396,c)
);
}
);
width = 694;
}
);
note = u1D047;
unicode = 118855;
},
{
category = Letter;
glyphname = u1D048;
lastChange = "2018-08-24 12:55:27 +0000";
layers = (
{
layerId = "2208DBFF-11B0-48D9-BA6B-B988DFB8211A";
shapes = (
{
closed = 1;
nodes = (
(103,361,l),
(128,342,o),
(156,333,o),
(187,333,cs),
(227,333,o),
(289,343,o),
(373,364,cs),
(458,385,o),
(531,395,o),
(595,395,c),
(595,403,l),
(562,417,o),
(530,425,o),
(499,425,cs),
(472,425,o),
(416,415,o),
(331,396,cs),
(245,377,o),
(181,368,o),
(137,367,cs),
(126,367,o),
(114,368,o),
(103,370,c)
);
}
);
width = 698;
}
);
note = u1D048;
unicode = 118856;
},
{
category = Letter;
glyphname = u1D049;
lastChange = "2018-08-24 12:55:27 +0000";
layers = (
{
layerId = "2208DBFF-11B0-48D9-BA6B-B988DFB8211A";
shapes = (
{
closed = 1;
nodes = (
(510,413,o),
(539,396,o),
(539,372,cs),
(539,337,o),
(503,318,o),
(446,318,cs),
(335,318,o),
(215,361,o),
(215,401,cs),
(215,407,o),
(220,410,o),
(231,410,cs),
(237,410,o),
(244,409,o),
(250,408,c),
(250,416,l),
(225,427,o),
(197,432,o),
(164,432,cs),
(124,432,o),
(103,426,o),
(103,415,cs),
(103,393,o),
(140,367,o),
(214,339,cs),
(288,311,o),
(365,296,o),
(446,296,cs),
(555,296,o),
(614,320,o),
(614,374,cs),
(614,412,o),
(589,430,o),
(541,430,cs),
(520,430,o),
(501,426,o),
(487,418,c)
);
}
);
width = 719;
}
);
note = u1D049;
unicode = 118857;
},
{
category = Letter;
glyphname = u1D04A;
lastChange = "2018-08-24 12:55:27 +0000";
layers = (
{
layerId = "2208DBFF-11B0-48D9-BA6B-B988DFB8211A";
shapes = (
{
closed = 1;
nodes = (
(232,437,o),
(201,449,o),
(163,449,cs),
(123,449,o),
(103,441,o),
(103,424,cs),
(103,403,o),
(122,385,o),
(159,369,cs),
(197,353,o),
(242,344,o),
(296,344,cs),
(343,344,o),
(388,348,o),
(430,354,c),
(467,377,l),
(468,366,o),
(476,355,o),
(490,346,c),
(467,318,l),
(498,293,l),
(521,323,l),
(557,304,o),
(580,294,o),
(590,294,cs),
(603,294,o),
(611,296,o),
(613,301,c),
(613,304,l),
(578,317,o),
(553,331,o),
(539,343,c),
(550,355,l),
(559,373,l),
(559,383,o),
(549,391,o),
(539,391,cs),
(534,391,o),
(527,389,o),
(521,382,cs),
(510,370,l),
(484,404,l),
(432,384,o),
(339,365,o),
(278,365,cs),
(241,365,o),
(215,369,o),
(201,376,cs),
(187,383,o),
(179,390,o),
(179,397,cs),
(179,409,o),
(192,417,o),
(214,417,cs),
(224,417,o),
(245,415,o),
(257,413,c)
);
}
);
width = 718;
}
);
note = u1D04A;
unicode = 118858;
},
{
category = Letter;
glyphname = u1D04B;
lastChange = "2018-08-24 12:55:27 +0000";
layers = (
{
layerId = "2208DBFF-11B0-48D9-BA6B-B988DFB8211A";
shapes = (
{
closed = 1;
nodes = (
(722,370,l),
(708,354,l),
(695,369,o),
(687,380,o),
(683,388,c),
(634,388,l),
(622,376,ls),
(602,355,o),
(578,344,o),
(547,344,cs),
(521,344,o),
(500,349,o),
(487,359,cs),
(474,369,o),
(467,376,o),
(467,383,cs),
(467,396,o),
(475,405,o),
(490,412,c),
(490,416,l),
(413,416,l),
(360,377,o),
(312,353,o),
(247,353,cs),
(203,353,o),
(180,360,o),
(180,374,cs),
(180,392,o),
(206,401,o),
(257,401,c),
(234,417,o),
(208,425,o),
(179,425,cs),
(155,425,o),
(136,421,o),
(123,415,cs),
(110,409,o),
(103,398,o),
(103,388,cs),
(103,372,o),
(116,358,o),
(143,347,cs),
(168,337,o),
(204,330,o),
(247,330,cs),
(296,330,o),
(384,352,o),
(413,372,c),
(451,338,o),
(495,322,o),
(547,322,cs),
(591,322,o),
(629,335,o),
(662,362,c),
(664,357,o),
(672,347,o),
(689,330,c),
(665,302,l),
(697,278,l),
(722,310,l),
(750,290,o),
(773,280,o),
(790,280,cs),
(803,280,o),
(810,282,o),
(812,287,c),
(812,290,l),
(781,300,o),
(756,313,o),
(737,329,c),
(750,344,o),
(757,354,o),
(757,360,cs),
(757,371,o),
(750,377,o),
(737,377,c)
);
}
);
width = 916;
}
);
note = u1D04B;
unicode = 118859;
},
{
category = Letter;
glyphname = u1D04C;
lastChange = "2018-08-24 12:55:27 +0000";
layers = (
{
layerId = "2208DBFF-11B0-48D9-BA6B-B988DFB8211A";
shapes = (
{
closed = 1;
nodes = (
(758,371,o),
(752,377,o),
(740,377,cs),
(735,377,o),
(729,375,o),
(725,370,cs),
(712,354,l),
(700,364,o),
(690,375,o),
(684,388,c),
(636,388,l),
(599,351,o),
(578,344,o),
(550,344,cs),
(522,344,o),
(502,349,o),
(488,359,cs),
(475,369,o),
(468,376,o),
(468,383,cs),
(468,396,o),
(476,405,o),
(491,412,c),
(491,416,l),
(412,416,l),
(343,370,o),
(281,346,o),
(228,346,cs),
(201,346,o),
(182,364,o),
(182,395,cs),
(182,405,o),
(184,414,o),
(187,422,c),
(146,424,l),
(140,412,o),
(137,400,o),
(137,388,cs),
(137,377,o),
(140,368,o),
(144,361,c),
(110,315,ls),
(106,310,o),
(104,303,o),
(104,299,cs),
(104,296,o),
(105,294,o),
(107,293,cs),
(122,288,ls),
(124,287,o),
(127,286,o),
(128,286,cs),
(131,286,o),
(134,288,o),
(138,292,cs),
(143,297,o),
(154,311,o),
(173,336,c),
(176,333,o),
(187,329,o),
(204,325,c),
(172,283,ls),
(168,277,o),
(165,272,o),
(165,268,cs),
(165,265,o),
(167,262,o),
(170,261,cs),
(186,256,ls),
(188,255,o),
(189,255,o),
(191,255,cs),
(196,255,o),
(202,260,o),
(209,270,cs),
(250,323,l),
(311,333,o),
(392,357,o),
(413,373,c),
(456,339,o),
(501,322,o),
(550,322,cs),
(596,322,o),
(634,335,o),
(664,362,c),
(666,355,o),
(675,345,o),
(691,330,c),
(667,302,l),
(698,278,l),
(725,310,l),
(753,290,o),
(775,280,o),
(792,280,cs),
(805,280,o),
(813,282,o),
(815,287,c),
(815,290,l),
(780,301,o),
(755,314,o),
(740,329,c),
(751,345,o),
(757,354,o),
(757,355,cs),
(758,357,o),
(758,358,o),
(758,360,cs)
);
}
);
width = 919;
}
);
note = u1D04C;
unicode = 118860;
},
{
category = Letter;
glyphname = u1D04D;
lastChange = "2018-08-24 12:55:27 +0000";
layers = (
{
layerId = "2208DBFF-11B0-48D9-BA6B-B988DFB8211A";
shapes = (
{
closed = 1;
nodes = (
(365,260,l),
(403,260,ls),
(419,260,o),
(434,270,o),
(448,287,cs),
(535,391,l),
(540,406,l),
(540,410,o),
(536,412,o),
(530,412,cs),
(509,412,l),
(462,388,o),
(359,365,o),
(259,365,cs),
(231,365,o),
(211,369,o),
(198,376,cs),
(186,383,o),
(179,390,o),
(179,397,cs),
(179,409,o),
(191,417,o),
(213,417,cs),
(229,417,o),
(242,416,o),
(257,413,c),
(232,437,o),
(201,449,o),
(163,449,cs),
(123,449,o),
(103,441,o),
(103,424,cs),
(103,393,o),
(198,344,o),
(258,344,cs),
(292,344,o),
(388,351,o),
(446,360,c)
);
}
);
width = 646;
}
);
note = u1D04D;
unicode = 118861;
},
{
category = Letter;
glyphname = u1D050;
lastChange = "2018-08-24 12:55:27 +0000";
layers = (
{
layerId = "2208DBFF-11B0-48D9-BA6B-B988DFB8211A";
shapes = (
{
closed = 1;
nodes = (
(103,474,l),
(170,474,o),
(231,463,o),
(288,442,c),
(290,448,l),
(274,469,o),
(238,485,o),
(197,485,c),
(326,495,o),
(428,566,o),
(455,665,c),
(457,672,o),
(475,683,o),
(487,685,c),
(475,693,o),
(467,697,o),
(448,697,cs),
(429,697,o),
(410,690,o),
(391,676,c),
(341,548,o),
(291,516,o),
(103,487,c)
);
}
);
width = 590;
}
);
note = u1D050;
unicode = 118864;
},
{
category = Letter;
glyphname = u1D051;
lastChange = "2018-08-24 12:55:27 +0000";
layers = (
{
layerId = "2208DBFF-11B0-48D9-BA6B-B988DFB8211A";
shapes = (
{
closed = 1;
nodes = (
(426,294,o),
(432,305,o),
(432,322,cs),
(432,376,o),
(308,418,o),
(185,418,cs),
(164,418,o),
(136,416,o),
(103,412,c),
(103,406,l),
(167,404,o),
(224,396,o),
(273,381,cs),
(322,366,o),
(346,349,o),
(346,331,cs),
(346,320,o),
(338,312,o),
(323,308,c),
(339,300,o),
(385,290,o),
(413,290,c)
);
}
);
width = 535;
}
);
note = u1D051;
unicode = 118865;
},
{
category = Letter;
glyphname = u1D052;
lastChange = "2018-08-24 12:55:27 +0000";
layers = (
{
layerId = "2208DBFF-11B0-48D9-BA6B-B988DFB8211A";
shapes = (
{
closed = 1;
nodes = (
(376,294,o),
(382,306,o),
(382,323,cs),
(382,374,o),
(258,416,o),
(164,416,cs),
(144,416,o),
(125,415,o),
(103,413,c),
(103,408,l),
(164,405,o),
(212,396,o),
(248,382,cs),
(283,368,o),
(301,351,o),
(301,331,cs),
(301,320,o),
(293,312,o),
(278,308,c),
(293,300,o),
(335,290,o),
(365,290,c)
);
},
{
closed = 1;
nodes = (
(511,272,o),
(516,282,o),
(516,300,cs),
(516,369,o),
(379,417,o),
(296,418,cs),
(284,418,o),
(271,417,o),
(259,416,c),
(259,413,l),
(375,401,o),
(433,363,o),
(433,310,cs),
(433,299,o),
(422,287,o),
(412,283,c),
(439,273,o),
(467,268,o),
(498,268,c)
);
}
);
width = 619;
}
);
note = u1D052;
unicode = 118866;
},
{
category = Letter;
glyphname = u1D053;
lastChange = "2018-08-24 12:55:27 +0000";
layers = (
{
layerId = "2208DBFF-11B0-48D9-BA6B-B988DFB8211A";
shapes = (
{
closed = 1;
nodes = (
(131,291,o),
(178,278,o),
(217,278,cs),
(244,278,o),
(271,287,o),
(271,312,cs),
(271,321,o),
(262,345,o),
(242,380,cs),
(236,391,l),
(236,395,o),
(239,397,o),
(245,397,cs),
(250,397,ls),
(254,397,o),
(258,396,o),
(259,394,cs),
(261,392,o),
(264,391,o),
(269,391,cs),
(276,391,o),
(280,396,o),
(280,404,cs),
(280,412,o),
(270,416,o),
(251,416,cs),
(196,416,ls),
(174,416,o),
(163,408,o),
(163,391,cs),
(163,387,o),
(168,376,o),
(177,357,cs),
(186,338,o),
(190,326,o),
(190,322,cs),
(190,314,o),
(181,310,o),
(164,310,cs),
(142,310,o),
(122,312,o),
(103,314,c),
(103,310,l)
);
}
);
width = 383;
}
);
note = u1D053;
unicode = 118867;
},
{
category = Letter;
glyphname = u1D054;
lastChange = "2018-08-24 12:55:27 +0000";
layers = (
{
layerId = "2208DBFF-11B0-48D9-BA6B-B988DFB8211A";
shapes = (
{
closed = 1;
nodes = (
(106,208,l),
(112,206,o),
(125,204,o),
(145,204,c),
(164,218,o),
(174,239,o),
(174,266,c),
(160,268,o),
(145,269,o),
(131,269,c),
(114,258,o),
(106,240,o),
(106,217,cs)
);
},
{
closed = 1;
nodes = (
(356,187,o),
(354,169,o),
(352,142,c),
(337,135,o),
(315,131,o),
(287,131,c),
(287,124,l),
(314,117,o),
(336,114,o),
(355,114,cs),
(380,114,o),
(400,122,o),
(415,138,c),
(418,199,l),
(425,208,o),
(437,214,o),
(452,216,c),
(452,226,l),
(412,226,ls),
(389,226,o),
(372,221,o),
(362,210,c),
(337,209,o),
(319,209,o),
(294,209,cs),
(265,209,o),
(242,222,o),
(242,239,cs),
(242,243,o),
(243,245,o),
(252,252,c),
(237,257,o),
(229,259,o),
(218,259,cs),
(196,259,o),
(185,250,o),
(185,232,cs),
(185,205,o),
(229,187,o),
(276,187,cs),
(310,187,o),
(337,190,o),
(360,196,c)
);
}
);
width = 556;
}
);
note = u1D054;
unicode = 118868;
},
{
category = Letter;
glyphname = u1D055;
lastChange = "2018-08-24 12:55:27 +0000";
layers = (
{
layerId = "2208DBFF-11B0-48D9-BA6B-B988DFB8211A";
shapes = (
{
closed = 1;
nodes = (
(220,293,o),
(229,293,o),
(239,294,c),
(213,303,o),
(187,332,o),
(187,348,cs),
(187,376,o),
(214,390,o),
(268,390,cs),
(397,390,o),
(500,337,o),
(506,271,c),
(533,264,o),
(557,260,o),
(577,260,cs),
(587,260,o),
(597,261,o),
(607,262,c),
(593,306,o),
(507,363,o),
(396,397,cs),
(341,414,o),
(285,422,o),
(230,422,cs),
(148,422,o),
(103,405,o),
(103,360,cs),
(103,321,o),
(151,293,o),
(210,293,cs)
);
}
);
width = 712;
}
);
note = u1D055;
unicode = 118869;
},
{
category = Letter;
glyphname = u1D056;
lastChange = "2018-08-24 12:55:27 +0000";
layers = (
{
layerId = "2208DBFF-11B0-48D9-BA6B-B988DFB8211A";
shapes = (
{
closed = 1;
nodes = (
(322,254,o),
(333,252,o),
(336,252,cs),
(360,252,o),
(378,265,o),
(391,290,c),
(501,289,ls),
(536,289,o),
(565,291,o),
(589,293,c),
(562,304,o),
(542,311,o),
(527,312,cs),
(403,318,l),
(416,354,l),
(384,359,ls),
(369,361,o),
(353,354,o),
(348,342,cs),
(340,322,l),
(259,333,o),
(208,363,o),
(187,412,c),
(187,444,l),
(172,451,o),
(160,455,o),
(149,455,cs),
(143,455,o),
(127,452,o),
(103,446,c),
(108,390,o),
(115,381,o),
(145,353,cs),
(179,321,o),
(224,301,o),
(331,293,c),
(329,282,o),
(323,270,o),
(312,258,c)
);
}
);
width = 692;
}
);
note = u1D056;
unicode = 118870;
},
{
category = Letter;
glyphname = u1D057;
lastChange = "2018-08-24 12:55:27 +0000";
layers = (
{
layerId = "2208DBFF-11B0-48D9-BA6B-B988DFB8211A";
shapes = (
{
closed = 1;
nodes = (
(121,401,l),
(109,401,o),
(103,396,o),
(103,386,cs),
(103,363,o),
(118,344,o),
(147,331,cs),
(177,318,o),
(230,311,o),
(308,311,c),
(308,318,l),
(211,327,o),
(163,346,o),
(163,374,cs),
(163,382,o),
(165,389,o),
(167,395,c)
);
}
);
width = 412;
}
);
note = u1D057;
unicode = 118871;
},
{
category = Letter;
glyphname = u1D058;
lastChange = "2018-08-24 12:55:27 +0000";
layers = (
{
layerId = "2208DBFF-11B0-48D9-BA6B-B988DFB8211A";
shapes = (
{
closed = 1;
nodes = (
(103,432,l),
(119,365,o),
(163,302,o),
(227,263,cs),
(294,222,o),
(383,192,o),
(484,174,c),
(484,179,l),
(327,217,o),
(230,281,o),
(188,370,cs),
(175,398,ls),
(162,425,o),
(155,432,o),
(138,432,cs)
);
}
);
width = 588;
}
);
note = u1D058;
unicode = 118872;
},
{
category = Letter;
glyphname = u1D059;
lastChange = "2018-08-24 12:55:27 +0000";
layers = (
{
layerId = "2208DBFF-11B0-48D9-BA6B-B988DFB8211A";
shapes = (
{
closed = 1;
nodes = (
(188,197,l),
(209,134,o),
(232,92,o),
(331,49,cs),
(380,28,o),
(431,11,o),
(484,0,c),
(484,2,l),
(415,32,ls),
(337,66,o),
(281,114,o),
(252,170,cs),
(243,187,o),
(237,197,o),
(217,197,cs)
);
},
{
closed = 1;
nodes = (
(103,197,l),
(109,172,o),
(124,149,o),
(145,127,cs),
(158,113,l),
(208,106,l),
(190,126,o),
(177,146,o),
(169,167,cs),
(161,187,o),
(148,197,o),
(132,197,cs)
);
}
);
width = 588;
}
);
note = u1D059;
unicode = 118873;
},
{
category = Letter;
glyphname = u1D05A;
lastChange = "2018-08-24 12:55:27 +0000";
layers = (
{
layerId = "2208DBFF-11B0-48D9-BA6B-B988DFB8211A";
shapes = (
{
closed = 1;
nodes = (
(419,145,o),
(423,145,o),
(427,146,cs),
(622,218,l),
(597,230,o),
(541,241,o),
(524,241,cs),
(514,241,o),
(503,238,o),
(491,232,cs),
(393,184,ls),
(384,180,o),
(369,175,o),
(360,175,cs),
(354,175,o),
(270,193,o),
(106,230,c),
(106,226,ls),
(106,217,o),
(109,211,o),
(116,209,cs),
(386,149,ls),
(396,147,o),
(405,146,o),
(415,145,cs)
);
}
);
width = 726;
}
);
note = u1D05A;
unicode = 118874;
},
{
category = Letter;
glyphname = u1D05B;
lastChange = "2018-08-24 12:55:27 +0000";
layers = (
{
layerId = "2208DBFF-11B0-48D9-BA6B-B988DFB8211A";
shapes = (
{
closed = 1;
nodes = (
(103,146,l),
(588,157,l),
(552,110,l),
(634,102,l),
(719,163,l),
(631,179,l),
(103,164,l)
);
}
);
width = 822;
}
);
note = u1D05B;
unicode = 118875;
},
{
category = Letter;
glyphname = u1D05C;
lastChange = "2018-08-24 12:55:27 +0000";
layers = (
{
layerId = "2208DBFF-11B0-48D9-BA6B-B988DFB8211A";
shapes = (
{
closed = 1;
nodes = (
(103,179,l),
(191,187,o),
(269,190,o),
(338,190,cs),
(401,190,o),
(449,185,o),
(483,175,cs),
(517,165,o),
(533,152,o),
(533,137,cs),
(533,131,o),
(528,123,o),
(518,113,c),
(531,105,o),
(567,95,o),
(582,95,cs),
(601,95,o),
(611,104,o),
(611,122,cs),
(611,143,o),
(587,163,o),
(537,180,cs),
(487,197,o),
(420,206,o),
(338,206,cs),
(246,206,o),
(167,200,o),
(103,188,c)
);
}
);
width = 714;
}
);
note = u1D05C;
unicode = 118876;
},
{
category = Letter;
glyphname = u1D05D;
lastChange = "2018-08-24 12:55:27 +0000";
layers = (
{
layerId = "2208DBFF-11B0-48D9-BA6B-B988DFB8211A";
shapes = (
{
closed = 1;
nodes = (
(245,146,l),
(253,154,o),
(258,164,o),
(258,174,cs),
(258,195,o),
(235,209,o),
(196,209,cs),
(148,209,o),
(119,204,o),
(103,149,c),
(149,149,l),
(155,178,o),
(171,193,o),
(196,193,cs),
(213,193,o),
(222,186,o),
(222,173,cs),
(222,162,o),
(214,147,o),
(197,131,c),
(612,115,l),
(612,132,l)
);
}
);
width = 715;
}
);
note = u1D05D;
unicode = 118877;
},
{
category = Letter;
glyphname = u1D05E;
lastChange = "2018-08-24 12:55:27 +0000";
layers = (
{
layerId = "2208DBFF-11B0-48D9-BA6B-B988DFB8211A";
shapes = (
{
closed = 1;
nodes = (
(331,521,l),
(318,519,o),
(311,511,o),
(311,496,cs),
(311,477,o),
(332,467,o),
(372,467,cs),
(676,467,l),
(665,485,l),
(439,485,ls),
(406,485,o),
(390,492,o),
(390,506,cs),
(390,521,o),
(406,533,o),
(416,535,c),
(416,541,l),
(103,541,l),
(113,521,l)
);
}
);
width = 779;
}
);
note = u1D05E;
unicode = 118878;
},
{
category = Letter;
glyphname = u1D05F;
lastChange = "2018-08-24 12:55:27 +0000";
layers = (
{
layerId = "2208DBFF-11B0-48D9-BA6B-B988DFB8211A";
shapes = (
{
closed = 1;
nodes = (
(370,373,o),
(344,391,o),
(308,391,cs),
(243,391,o),
(103,361,o),
(103,352,cs),
(103,340,o),
(131,336,o),
(162,333,cs),
(181,331,o),
(203,326,o),
(218,322,cs),
(239,317,o),
(250,310,o),
(250,302,cs),
(250,298,o),
(247,291,o),
(241,281,cs),
(206,222,o),
(188,178,o),
(188,149,cs),
(188,104,o),
(229,71,o),
(296,71,cs),
(355,71,o),
(408,101,o),
(408,142,cs),
(408,156,o),
(401,163,o),
(386,163,cs),
(370,163,o),
(355,154,o),
(355,144,cs),
(355,136,o),
(362,127,o),
(377,118,c),
(372,103,o),
(335,86,o),
(296,86,cs),
(259,86,o),
(226,115,o),
(226,144,cs),
(226,154,o),
(229,164,o),
(234,174,cs),
(269,245,ls),
(275,258,o),
(278,276,o),
(278,301,cs),
(278,324,o),
(261,340,o),
(229,343,cs),
(145,352,l),
(182,359,ls),
(192,361,o),
(248,366,o),
(260,366,cs),
(307,366,o),
(330,359,o),
(330,346,cs),
(330,335,o),
(328,327,o),
(323,322,c),
(354,338,o),
(370,351,o),
(370,361,cs)
);
}
);
width = 511;
}
);
note = u1D05F;
unicode = 118879;
},
{
category = Letter;
glyphname = u1D060;
lastChange = "2018-08-24 12:55:27 +0000";
layers = (
{
layerId = "2208DBFF-11B0-48D9-BA6B-B988DFB8211A";
shapes = (
{
closed = 1;
nodes = (
(165,132,o),
(310,158,o),
(382,158,cs),
(452,158,o),
(474,144,o),
(495,130,cs),
(527,109,o),
(562,86,o),
(647,86,cs),
(696,86,o),
(771,110,o),
(812,138,c),
(809,149,l),
(760,124,o),
(694,110,o),
(654,110,cs),
(583,110,o),
(557,150,o),
(501,171,cs),
(475,181,o),
(435,188,o),
(383,188,cs),
(350,188,o),
(282,178,o),
(179,157,c),
(176,177,l),
(180,200,l),
(148,200,o),
(129,191,o),
(121,174,c),
(122,152,ls),
(123,136,o),
(116,123,o),
(103,113,c)
);
}
);
width = 916;
}
);
note = u1D060;
unicode = 118880;
},
{
category = Letter;
glyphname = u1D061;
lastChange = "2018-08-24 12:55:27 +0000";
layers = (
{
layerId = "2208DBFF-11B0-48D9-BA6B-B988DFB8211A";
shapes = (
{
closed = 1;
nodes = (
(233,82,o),
(257,80,o),
(288,80,cs),
(308,80,l),
(330,102,o),
(411,132,o),
(469,132,cs),
(513,132,o),
(569,120,o),
(638,97,cs),
(707,74,o),
(749,62,o),
(763,62,cs),
(788,62,o),
(800,73,o),
(800,94,cs),
(800,112,o),
(790,121,o),
(769,121,cs),
(750,121,o),
(740,113,o),
(740,96,cs),
(740,89,o),
(735,85,o),
(726,85,cs),
(722,85,o),
(710,89,o),
(693,96,cs),
(596,137,o),
(517,156,o),
(456,156,cs),
(389,156,o),
(329,140,o),
(274,107,c),
(283,114,o),
(287,125,o),
(287,137,cs),
(287,159,o),
(261,170,o),
(209,170,cs),
(142,170,o),
(106,150,o),
(103,110,c),
(157,110,l),
(159,137,o),
(179,152,o),
(210,152,cs),
(233,152,o),
(245,145,o),
(245,131,cs),
(245,116,o),
(235,101,o),
(215,86,c)
);
}
);
width = 905;
}
);
note = u1D061;
unicode = 118881;
},
{
category = Letter;
glyphname = u1D062;
lastChange = "2018-08-24 12:55:27 +0000";
layers = (
{
layerId = "2208DBFF-11B0-48D9-BA6B-B988DFB8211A";
shapes = (
{
closed = 1;
nodes = (
(373,186,o),
(471,206,o),
(574,206,cs),
(607,206,o),
(630,205,o),
(644,201,cs),
(658,197,o),
(665,191,o),
(665,182,cs),
(665,177,o),
(662,171,o),
(656,165,cs),
(649,158,o),
(646,153,o),
(646,149,cs),
(646,145,o),
(659,142,o),
(685,142,cs),
(714,142,o),
(719,145,o),
(719,164,cs),
(719,184,o),
(708,200,o),
(687,211,cs),
(666,222,o),
(627,228,o),
(571,228,cs),
(481,228,o),
(350,201,o),
(274,173,c),
(283,179,o),
(287,189,o),
(287,204,cs),
(287,225,o),
(261,236,o),
(209,236,cs),
(142,236,o),
(106,215,o),
(103,175,c),
(157,175,l),
(159,200,o),
(179,217,o),
(210,217,cs),
(233,217,o),
(245,210,o),
(245,197,cs),
(245,184,o),
(235,169,o),
(215,154,c),
(232,148,o),
(250,146,o),
(268,146,cs),
(280,146,l)
);
}
);
width = 822;
}
);
note = u1D062;
unicode = 118882;
},
{
category = Letter;
glyphname = u1D063;
lastChange = "2018-08-24 12:55:27 +0000";
layers = (
{
layerId = "2208DBFF-11B0-48D9-BA6B-B988DFB8211A";
shapes = (
{
closed = 1;
nodes = (
(133,276,o),
(123,275,o),
(115,274,cs),
(107,273,o),
(103,270,o),
(103,262,cs),
(103,247,o),
(208,203,o),
(238,175,cs),
(259,156,o),
(271,137,o),
(271,113,cs),
(271,74,o),
(222,39,o),
(173,28,c),
(182,22,o),
(194,20,o),
(208,20,cs),
(271,20,o),
(323,57,o),
(323,106,cs),
(323,135,o),
(291,174,o),
(227,208,cs),
(154,247,l),
(310,242,l),
(303,265,o),
(279,276,o),
(239,276,cs),
(145,276,ls)
);
}
);
width = 426;
}
);
note = u1D063;
unicode = 118883;
},
{
category = Letter;
glyphname = u1D064;
lastChange = "2018-08-24 12:55:27 +0000";
layers = (
{
layerId = "2208DBFF-11B0-48D9-BA6B-B988DFB8211A";
shapes = (
{
closed = 1;
nodes = (
(308,247,ls),
(339,247,o),
(343,221,o),
(347,191,cs),
(350,168,o),
(357,138,o),
(378,120,cs),
(415,88,o),
(462,71,o),
(562,71,c),
(492,94,o),
(447,116,o),
(426,137,cs),
(420,143,o),
(418,150,o),
(417,160,cs),
(413,198,ls),
(409,240,o),
(378,271,o),
(329,271,cs),
(115,269,ls),
(108,269,o),
(105,266,o),
(105,260,cs),
(105,253,o),
(113,245,o),
(122,245,cs)
);
}
);
width = 665;
}
);
note = u1D064;
unicode = 118884;
},
{
category = Letter;
glyphname = u1D065;
lastChange = "2018-08-24 12:55:27 +0000";
layers = (
{
layerId = "2208DBFF-11B0-48D9-BA6B-B988DFB8211A";
shapes = (
{
closed = 1;
nodes = (
(371,165,o),
(359,145,o),
(351,124,cs),
(346,112,o),
(343,99,o),
(343,84,c),
(350,81,o),
(363,78,o),
(377,79,cs),
(396,80,l),
(432,98,o),
(466,107,o),
(499,107,cs),
(524,107,o),
(562,95,o),
(613,71,cs),
(663,47,o),
(694,35,o),
(706,35,cs),
(726,35,o),
(737,50,o),
(737,70,cs),
(737,86,o),
(729,94,o),
(714,94,cs),
(699,94,o),
(692,87,o),
(692,72,cs),
(692,65,o),
(689,62,o),
(684,62,cs),
(679,62,o),
(669,66,o),
(656,73,cs),
(584,113,o),
(528,132,o),
(487,132,cs),
(471,132,o),
(446,128,o),
(413,121,c),
(432,160,o),
(442,186,o),
(442,199,cs),
(442,206,o),
(436,209,o),
(425,209,cs),
(412,209,o),
(319,190,o),
(262,190,cs),
(206,190,o),
(133,207,o),
(120,207,cs),
(109,207,o),
(103,205,o),
(103,199,cs),
(103,196,o),
(106,190,o),
(115,188,cs),
(172,174,o),
(214,170,o),
(262,170,cs),
(299,170,o),
(339,174,o),
(382,182,c)
);
}
);
width = 841;
}
);
note = u1D065;
unicode = 118885;
},
{
category = Letter;
glyphname = u1D066;
lastChange = "2018-08-24 12:55:27 +0000";
layers = (
{
layerId = "2208DBFF-11B0-48D9-BA6B-B988DFB8211A";
shapes = (
{
closed = 1;
nodes = (
(156,170,ls),
(127,170,o),
(103,152,o),
(103,131,cs),
(103,118,o),
(112,109,o),
(127,106,cs),
(143,103,o),
(166,101,o),
(196,101,cs),
(211,101,o),
(256,108,o),
(330,122,cs),
(403,136,o),
(450,142,o),
(469,142,cs),
(479,142,o),
(484,140,o),
(484,136,cs),
(484,128,o),
(468,115,o),
(448,110,c),
(456,104,o),
(466,101,o),
(481,101,cs),
(509,101,o),
(539,113,o),
(539,136,cs),
(539,151,o),
(521,158,o),
(484,158,cs),
(452,158,o),
(401,151,o),
(329,138,cs),
(257,125,o),
(213,118,o),
(197,118,cs),
(186,118,o),
(178,119,o),
(174,121,cs),
(169,122,o),
(167,125,o),
(167,131,cs),
(167,135,o),
(173,141,o),
(185,147,cs),
(197,153,o),
(203,159,o),
(203,162,cs),
(203,167,o),
(197,170,o),
(185,170,cs)
);
}
);
width = 642;
}
);
note = u1D066;
unicode = 118886;
},
{
category = Letter;
glyphname = u1D067;
lastChange = "2018-08-24 12:55:27 +0000";
layers = (
{
layerId = "2208DBFF-11B0-48D9-BA6B-B988DFB8211A";
shapes = (
{
closed = 1;
nodes = (
(252,187,l),
(276,187,l),
(271,224,l),
(288,230,l),
(293,196,l),
(314,196,l),
(311,239,l),
(319,241,o),
(326,242,o),
(334,242,cs),
(363,242,o),
(377,223,o),
(377,185,cs),
(377,149,o),
(347,128,o),
(325,128,cs),
(311,128,o),
(296,131,o),
(282,136,c),
(282,131,l),
(293,123,o),
(309,118,o),
(329,118,cs),
(374,118,o),
(406,147,o),
(406,187,cs),
(406,235,o),
(375,259,o),
(312,259,cs),
(310,259,l),
(308,283,l),
(283,283,l),
(287,257,l),
(269,250,l),
(268,276,l),
(245,276,l),
(247,239,l),
(232,230,o),
(217,221,o),
(202,213,cs),
(188,205,o),
(175,200,o),
(166,200,cs),
(142,200,o),
(128,225,o),
(128,240,cs),
(128,260,o),
(144,274,o),
(163,274,cs),
(174,274,o),
(186,271,o),
(199,266,c),
(199,271,l),
(185,288,o),
(169,296,o),
(152,296,cs),
(128,296,o),
(103,281,o),
(103,250,cs),
(103,214,o),
(140,188,o),
(187,188,cs),
(194,188,o),
(215,197,o),
(250,215,c)
);
}
);
width = 510;
}
);
note = u1D067;
unicode = 118887;
},
{
category = Letter;
glyphname = u1D068;
lastChange = "2018-08-24 12:55:27 +0000";
layers = (
{
layerId = "2208DBFF-11B0-48D9-BA6B-B988DFB8211A";
shapes = (
{
closed = 1;
nodes = (
(208,189,o),
(268,174,o),
(377,174,cs),
(424,174,o),
(483,181,o),
(552,196,c),
(552,199,l),
(491,192,o),
(434,188,o),
(380,188,cs),
(365,188,l),
(334,258,l),
(308,259,l),
(338,190,l),
(308,197,l),
(276,266,l),
(250,268,l),
(276,209,l),
(235,228,o),
(217,247,o),
(192,268,cs),
(171,285,o),
(149,311,o),
(132,311,cs),
(119,311,o),
(109,308,o),
(103,301,c)
);
}
);
width = 655;
}
);
note = u1D068;
unicode = 118888;
},
{
category = Letter;
glyphname = u1D069;
lastChange = "2018-08-24 12:55:27 +0000";
layers = (
{
layerId = "2208DBFF-11B0-48D9-BA6B-B988DFB8211A";
shapes = (
{
closed = 1;
nodes = (
(188,260,l),
(210,196,o),
(232,154,o),
(331,113,cs),
(380,93,o),
(431,75,o),
(484,64,c),
(484,70,l),
(385,107,o),
(353,129,o),
(323,151,cs),
(304,165,o),
(262,215,o),
(254,230,cs),
(245,247,o),
(236,260,o),
(220,260,cs)
);
},
{
closed = 1;
nodes = (
(103,260,l),
(112,225,o),
(144,193,o),
(158,175,c),
(208,170,l),
(188,193,o),
(175,214,o),
(167,232,cs),
(159,250,o),
(148,260,o),
(132,260,cs)
);
},
{
closed = 1;
nodes = (
(354,188,o),
(395,173,o),
(438,173,cs),
(458,173,o),
(478,181,o),
(478,200,cs),
(478,206,o),
(471,224,o),
(457,255,cs),
(452,266,l),
(452,270,o),
(454,271,o),
(458,271,cs),
(466,271,o),
(474,266,o),
(478,266,cs),
(482,266,o),
(487,270,o),
(487,276,cs),
(487,283,o),
(479,287,o),
(463,287,cs),
(418,287,ls),
(399,287,o),
(390,280,o),
(390,266,c),
(415,208,l),
(415,202,o),
(407,199,o),
(391,199,cs),
(368,199,o),
(353,201,o),
(344,204,c),
(344,199,l)
);
}
);
width = 590;
}
);
note = u1D069;
unicode = 118889;
},
{
category = Letter;
glyphname = u1D06A;
lastChange = "2018-08-24 12:55:27 +0000";
layers = (
{
layerId = "2208DBFF-11B0-48D9-BA6B-B988DFB8211A";
shapes = (
{
closed = 1;
nodes = (
(120,-5,o),
(137,-8,o),
(154,-8,cs),
(206,-8,o),
(268,6,o),
(348,48,cs),
(387,68,ls),
(415,82,o),
(435,89,o),
(449,89,cs),
(453,89,o),
(465,85,o),
(484,77,c),
(427,35,ls),
(418,29,o),
(406,21,o),
(397,15,cs),
(387,8,o),
(382,3,o),
(382,-1,cs),
(382,-12,o),
(391,-17,o),
(408,-17,cs),
(418,-17,o),
(433,-12,o),
(449,0,cs),
(521,55,l),
(557,40,o),
(599,23,o),
(632,23,cs),
(667,23,o),
(684,33,o),
(684,53,cs),
(684,70,o),
(674,84,o),
(655,84,cs),
(645,84,o),
(636,79,o),
(629,70,c),
(638,64,o),
(642,58,o),
(642,52,cs),
(642,46,o),
(636,43,o),
(625,43,cs),
(603,43,o),
(568,57,o),
(521,83,cs),
(473,110,o),
(441,124,o),
(425,124,cs),
(396,124,o),
(362,108,o),
(329,85,cs),
(287,56,o),
(242,27,o),
(197,16,cs),
(161,7,o),
(130,1,o),
(103,1,c),
(103,-2,l)
);
}
);
width = 787;
}
);
note = u1D06A;
unicode = 118890;
},
{
category = Letter;
glyphname = u1D06B;
lastChange = "2018-08-24 12:55:27 +0000";
layers = (
{
layerId = "2208DBFF-11B0-48D9-BA6B-B988DFB8211A";
shapes = (
{
closed = 1;
nodes = (
(144,108,l),
(250,108,o),
(347,148,o),
(406,215,c),
(418,202,o),
(425,185,o),
(425,164,cs),
(425,141,o),
(411,122,o),
(382,107,cs),
(361,96,l),
(431,96,o),
(467,132,o),
(467,173,cs),
(467,200,o),
(453,223,o),
(426,240,c),
(459,291,o),
(473,305,o),
(510,323,c),
(510,329,l),
(458,329,ls),
(431,329,o),
(409,314,o),
(394,284,cs),
(383,262,l),
(350,277,o),
(313,293,o),
(273,308,cs),
(247,318,l),
(279,333,o),
(311,344,o),
(343,352,cs),
(375,360,o),
(391,366,o),
(391,372,cs),
(391,375,o),
(372,386,o),
(362,386,cs),
(345,386,o),
(249,355,o),
(196,318,c),
(196,312,l),
(226,303,o),
(255,293,o),
(286,281,cs),
(312,271,o),
(322,267,o),
(352,253,cs),
(356,252,o),
(367,246,o),
(370,242,c),
(306,152,o),
(223,120,o),
(103,110,c)
);
}
);
width = 613;
}
);
note = u1D06B;
unicode = 118891;
},
{
category = Letter;
glyphname = u1D06C;
lastChange = "2018-08-24 12:55:27 +0000";
layers = (
{
layerId = "2208DBFF-11B0-48D9-BA6B-B988DFB8211A";
shapes = (
{
closed = 1;
nodes = (
(504,166,l),
(523,217,o),
(552,251,o),
(589,266,c),
(589,269,l),
(538,269,ls),
(507,269,o),
(486,252,o),
(472,219,cs),
(449,166,l),
(245,170,l),
(253,177,o),
(258,186,o),
(258,197,cs),
(258,204,o),
(254,211,o),
(246,220,cs),
(238,229,o),
(222,232,o),
(197,232,cs),
(153,232,o),
(134,223,o),
(121,211,cs),
(115,205,o),
(108,192,o),
(103,173,c),
(149,173,l),
(156,202,o),
(171,216,o),
(196,216,cs),
(213,216,o),
(222,209,o),
(222,196,cs),
(222,183,o),
(214,168,o),
(197,152,c),
(439,145,l),
(402,75,o),
(362,53,o),
(196,41,c),
(196,34,l),
(213,33,o),
(231,32,o),
(248,32,cs),
(348,32,o),
(442,52,o),
(494,144,c),
(728,137,l),
(728,163,l)
);
}
);
width = 833;
}
);
note = u1D06C;
unicode = 118892;
},
{
category = Letter;
glyphname = u1D06D;
lastChange = "2018-08-24 12:55:27 +0000";
layers = (
{
layerId = "2208DBFF-11B0-48D9-BA6B-B988DFB8211A";
shapes = (
{
closed = 1;
nodes = (
(353,250,o),
(342,250,o),
(335,249,cs),
(327,248,o),
(323,243,o),
(323,236,cs),
(323,233,o),
(327,229,o),
(335,224,cs),
(347,216,o),
(367,204,o),
(395,189,cs),
(408,182,o),
(420,175,o),
(433,166,c),
(245,170,l),
(253,177,o),
(258,186,o),
(258,197,cs),
(258,204,o),
(254,211,o),
(246,220,cs),
(238,229,o),
(222,232,o),
(197,232,cs),
(153,232,o),
(134,223,o),
(121,211,cs),
(115,205,o),
(108,192,o),
(103,173,c),
(149,173,l),
(156,202,o),
(171,216,o),
(196,216,cs),
(213,216,o),
(222,209,o),
(222,196,cs),
(222,183,o),
(214,168,o),
(197,152,c),
(466,144,l),
(483,126,o),
(491,106,o),
(491,85,cs),
(491,50,o),
(450,16,o),
(391,0,c),
(408,-4,l),
(426,-7,l),
(494,-7,o),
(542,30,o),
(542,79,cs),
(542,98,o),
(529,120,o),
(504,144,c),
(728,137,l),
(728,163,l),
(474,166,l),
(443,185,o),
(410,203,o),
(373,218,c),
(528,216,l),
(522,239,o),
(499,250,o),
(458,250,cs),
(365,250,ls)
);
}
);
width = 833;
}
);
note = u1D06D;
unicode = 118893;
},
{
category = Letter;
glyphname = u1D06E;
lastChange = "2018-08-24 12:55:27 +0000";
layers = (
{
layerId = "2208DBFF-11B0-48D9-BA6B-B988DFB8211A";
shapes = (
{
closed = 1;
nodes = (
(166,133,o),
(300,158,o),
(373,158,c),
(404,138,o),
(422,121,o),
(422,85,cs),
(422,53,o),
(382,18,o),
(322,0,c),
(341,-5,o),
(350,-7,o),
(355,-7,cs),
(420,-7,o),
(474,27,o),
(474,79,cs),
(474,105,o),
(454,131,o),
(412,158,c),
(472,154,o),
(505,118,o),
(551,101,cs),
(573,93,o),
(605,86,o),
(647,86,cs),
(696,86,o),
(771,110,o),
(812,138,c),
(809,149,l),
(760,124,o),
(694,110,o),
(653,110,cs),
(580,110,o),
(558,150,o),
(501,171,cs),
(475,181,o),
(435,188,o),
(383,188,cs),
(365,188,l),
(302,218,l),
(458,216,l),
(452,239,o),
(429,250,o),
(388,250,cs),
(294,250,ls),
(281,250,o),
(271,250,o),
(264,249,cs),
(256,248,o),
(252,243,o),
(252,236,cs),
(252,229,o),
(271,217,o),
(306,198,cs),
(330,185,l),
(288,178,o),
(238,169,o),
(179,157,c),
(176,177,l),
(180,200,l),
(148,200,o),
(129,191,o),
(121,174,c),
(122,152,ls),
(123,136,o),
(116,123,o),
(103,113,c)
);
}
);
width = 916;
}
);
note = u1D06E;
unicode = 118894;
},
{
category = Letter;
glyphname = u1D06F;
lastChange = "2018-08-24 12:55:27 +0000";
layers = (
{
layerId = "2208DBFF-11B0-48D9-BA6B-B988DFB8211A";
shapes = (
{
closed = 1;
nodes = (
(113,34,l),
(143,30,o),
(170,28,o),
(195,28,cs),
(259,28,o),
(343,38,o),
(396,110,c),
(435,71,o),
(478,60,o),
(547,60,cs),
(601,60,o),
(644,68,o),
(676,84,c),
(674,95,l),
(643,85,o),
(601,80,o),
(547,80,cs),
(498,80,o),
(448,106,o),
(416,145,c),
(433,185,o),
(449,212,o),
(462,226,cs),
(475,239,o),
(490,248,o),
(506,252,c),
(506,258,l),
(455,258,ls),
(419,258,o),
(397,239,o),
(377,175,c),
(344,192,o),
(312,198,o),
(241,198,cs),
(223,198,o),
(205,197,o),
(187,196,c),
(187,213,o),
(190,228,o),
(197,242,c),
(171,244,ls),
(155,245,o),
(139,237,o),
(132,228,c),
(132,216,ls),
(132,206,o),
(124,181,o),
(103,170,c),
(156,175,o),
(194,178,o),
(216,178,cs),
(249,178,o),
(316,178,o),
(362,145,c),
(321,61,o),
(287,43,o),
(113,41,c)
);
}
);
width = 779;
}
);
note = u1D06F;
unicode = 118895;
},
{
category = Letter;
glyphname = u1D070;
lastChange = "2018-08-24 12:55:27 +0000";
layers = (
{
layerId = "2208DBFF-11B0-48D9-BA6B-B988DFB8211A";
shapes = (
{
closed = 1;
nodes = (
(468,391,o),
(458,391,o),
(450,390,cs),
(443,389,o),
(439,385,o),
(439,380,cs),
(439,374,o),
(448,362,o),
(466,346,c),
(445,345,o),
(414,338,o),
(374,325,c),
(394,365,o),
(404,391,o),
(404,404,cs),
(404,411,o),
(398,415,o),
(388,415,cs),
(383,415,o),
(373,413,o),
(365,412,cs),
(300,401,o),
(256,396,o),
(226,396,cs),
(199,396,o),
(177,398,o),
(160,402,cs),
(142,406,o),
(129,408,o),
(121,408,cs),
(109,408,o),
(103,406,o),
(103,401,cs),
(103,395,o),
(115,388,o),
(136,383,cs),
(159,378,o),
(188,374,o),
(226,374,cs),
(268,374,o),
(307,379,o),
(344,388,c),
(338,376,o),
(329,360,o),
(319,344,cs),
(309,327,o),
(304,309,o),
(304,288,c),
(312,286,o),
(321,284,o),
(331,284,cs),
(341,284,o),
(350,285,o),
(360,287,c),
(387,300,o),
(442,319,o),
(476,319,cs),
(496,319,l),
(510,306,ls),
(543,275,o),
(584,254,o),
(584,199,cs),
(584,168,o),
(550,138,o),
(485,118,c),
(494,115,o),
(505,113,o),
(520,113,cs),
(582,113,o),
(636,149,o),
(636,199,cs),
(636,236,o),
(596,273,o),
(553,308,c),
(567,303,o),
(581,297,o),
(595,290,cs),
(662,257,o),
(683,250,o),
(718,250,cs),
(737,250,o),
(750,262,o),
(750,282,cs),
(750,299,o),
(742,308,o),
(726,308,cs),
(713,308,o),
(706,301,o),
(706,287,cs),
(706,280,o),
(703,276,o),
(697,276,cs),
(689,276,o),
(679,279,o),
(667,285,cs),
(625,306,ls),
(595,321,o),
(556,337,o),
(509,344,c),
(490,362,l),
(646,360,l),
(640,381,o),
(616,391,o),
(574,391,cs),
(481,391,ls)
);
}
);
width = 854;
}
);
note = u1D070;
unicode = 118896;
},
{
category = Letter;
glyphname = u1D071;
lastChange = "2018-08-24 12:55:27 +0000";
layers = (
{
layerId = "2208DBFF-11B0-48D9-BA6B-B988DFB8211A";
shapes = (
{
closed = 1;
nodes = (
(266,74,l),
(307,73,ls),
(311,73,o),
(315,73,o),
(319,73,cs),
(447,73,o),
(538,121,o),
(578,215,c),
(612,198,ls),
(651,178,o),
(685,166,o),
(718,166,cs),
(737,166,o),
(750,180,o),
(750,199,cs),
(750,216,o),
(742,224,o),
(726,224,cs),
(713,224,o),
(706,217,o),
(706,204,cs),
(706,197,o),
(703,193,o),
(697,193,cs),
(686,193,o),
(672,199,o),
(654,208,cs),
(636,217,o),
(614,228,o),
(589,239,c),
(607,275,o),
(631,298,o),
(660,308,c),
(660,311,l),
(607,311,ls),
(577,311,o),
(554,293,o),
(539,257,c),
(516,260,o),
(494,262,o),
(475,262,cs),
(443,262,o),
(409,255,o),
(374,242,c),
(388,266,o),
(404,310,o),
(404,322,cs),
(404,328,o),
(398,331,o),
(388,331,cs),
(382,331,o),
(376,330,o),
(365,328,cs),
(346,325,o),
(327,322,o),
(301,318,cs),
(272,314,o),
(242,312,o),
(226,312,cs),
(191,312,o),
(177,315,o),
(160,319,cs),
(143,323,o),
(129,325,o),
(121,325,cs),
(109,325,o),
(103,323,o),
(103,318,cs),
(103,313,o),
(111,306,o),
(128,301,cs),
(144,296,o),
(177,293,o),
(226,293,cs),
(266,293,o),
(305,297,o),
(344,304,c),
(337,291,o),
(328,276,o),
(319,260,cs),
(309,242,o),
(304,225,o),
(304,206,c),
(312,202,o),
(321,200,o),
(332,200,cs),
(346,200,o),
(367,206,o),
(395,218,cs),
(423,230,o),
(450,236,o),
(476,236,cs),
(501,236,o),
(520,234,o),
(530,230,c),
(491,142,o),
(460,118,o),
(403,102,cs),
(369,92,o),
(332,86,o),
(266,80,c)
);
}
);
width = 854;
}
);
note = u1D071;
unicode = 118897;
},
{
category = Letter;
glyphname = u1D072;
lastChange = "2018-08-24 12:55:27 +0000";
layers = (
{
layerId = "2208DBFF-11B0-48D9-BA6B-B988DFB8211A";
shapes = (
{
closed = 1;
nodes = (
(425,127,l),
(403,72,l),
(456,66,l),
(484,127,l),
(553,128,l),
(516,43,l),
(569,37,l),
(614,138,l),
(581,152,l),
(494,149,l),
(516,196,l),
(478,208,l),
(103,199,l),
(113,180,l),
(452,185,l),
(434,149,l),
(190,144,l),
(199,124,l)
);
}
);
width = 719;
}
);
note = u1D072;
unicode = 118898;
},
{
category = Letter;
glyphname = u1D073;
lastChange = "2018-08-24 12:55:27 +0000";
layers = (
{
layerId = "2208DBFF-11B0-48D9-BA6B-B988DFB8211A";
shapes = (
{
closed = 1;
nodes = (
(365,45,o),
(372,43,o),
(385,40,cs),
(398,37,o),
(414,35,o),
(432,35,cs),
(464,35,o),
(486,48,o),
(494,75,cs),
(504,107,l),
(588,107,l),
(541,8,l),
(595,1,l),
(649,118,l),
(613,131,l),
(510,128,l),
(514,142,ls),
(520,163,o),
(525,175,o),
(537,178,cs),
(548,181,o),
(553,183,o),
(553,187,cs),
(553,191,o),
(548,193,o),
(539,193,cs),
(502,193,ls),
(486,193,o),
(475,188,o),
(468,180,c),
(425,177,o),
(376,174,o),
(330,174,cs),
(305,174,o),
(285,177,o),
(271,183,cs),
(257,189,o),
(250,197,o),
(250,206,cs),
(250,208,o),
(253,213,o),
(259,218,c),
(257,219,o),
(254,220,o),
(248,222,cs),
(240,225,o),
(233,226,o),
(226,226,cs),
(208,226,o),
(190,217,o),
(190,199,cs),
(190,187,o),
(200,176,o),
(219,167,cs),
(238,158,o),
(269,154,o),
(312,154,cs),
(373,154,o),
(422,157,o),
(458,163,c),
(446,127,l),
(239,122,l),
(247,103,l),
(439,106,l),
(433,81,ls),
(429,64,o),
(420,59,o),
(403,59,cs),
(378,59,o),
(365,56,o),
(365,49,cs)
);
},
{
closed = 1;
nodes = (
(131,235,l),
(114,224,o),
(106,207,o),
(106,184,cs),
(106,174,l),
(145,174,l),
(162,181,o),
(171,197,o),
(171,224,c),
(170,235,l)
);
}
);
width = 754;
}
);
note = u1D073;
unicode = 118899;
},
{
category = Letter;
glyphname = u1D074;
lastChange = "2018-08-24 12:55:27 +0000";
layers = (
{
layerId = "2208DBFF-11B0-48D9-BA6B-B988DFB8211A";
shapes = (
{
closed = 1;
nodes = (
(412,46,o),
(434,42,o),
(476,42,cs),
(509,42,o),
(531,55,o),
(539,80,cs),
(550,113,l),
(631,114,l),
(593,34,l),
(647,28,l),
(692,124,l),
(656,137,l),
(556,136,l),
(560,153,ls),
(563,165,o),
(565,177,o),
(572,180,cs),
(583,185,o),
(599,186,o),
(599,193,cs),
(599,197,o),
(594,199,o),
(584,199,cs),
(547,199,ls),
(530,199,o),
(520,193,o),
(516,182,c),
(245,182,l),
(253,188,o),
(258,197,o),
(258,209,cs),
(258,232,o),
(236,245,o),
(197,245,cs),
(155,245,o),
(134,234,o),
(122,222,cs),
(115,215,o),
(109,204,o),
(103,185,c),
(149,185,l),
(156,214,o),
(171,228,o),
(196,228,cs),
(213,228,o),
(222,221,o),
(222,208,cs),
(222,199,o),
(218,188,o),
(209,178,cs),
(197,164,l),
(502,164,l),
(491,132,l),
(283,128,l),
(293,110,l),
(485,113,l),
(476,83,ls),
(472,71,o),
(464,64,o),
(448,64,cs),
(424,64,o),
(412,61,o),
(412,53,cs)
);
}
);
width = 797;
}
);
note = u1D074;
unicode = 118900;
},
{
category = Letter;
glyphname = u1D075;
lastChange = "2018-08-24 12:55:27 +0000";
layers = (
{
layerId = "2208DBFF-11B0-48D9-BA6B-B988DFB8211A";
shapes = (
{
closed = 1;
nodes = (
(163,59,o),
(168,64,o),
(178,67,cs),
(188,70,o),
(204,72,o),
(224,72,cs),
(248,72,o),
(274,69,o),
(302,64,c),
(301,49,l),
(307,39,o),
(315,34,o),
(325,34,cs),
(334,34,o),
(341,39,o),
(344,49,c),
(346,55,l),
(370,52,l),
(370,29,o),
(378,18,o),
(393,18,cs),
(405,18,o),
(413,22,o),
(416,31,c),
(415,38,l),
(415,43,l),
(504,27,o),
(566,19,o),
(602,19,cs),
(667,19,o),
(704,40,o),
(714,80,c),
(757,80,o),
(790,82,o),
(811,84,c),
(809,62,l),
(813,55,o),
(819,50,o),
(830,50,cs),
(841,50,o),
(849,54,o),
(852,62,c),
(854,85,l),
(881,86,l),
(884,62,l),
(887,54,o),
(896,50,o),
(908,50,cs),
(918,50,o),
(925,55,o),
(930,62,c),
(926,70,o),
(924,80,o),
(924,92,c),
(984,95,ls),
(1018,97,o),
(1051,91,o),
(1065,83,cs),
(1079,75,o),
(1086,66,o),
(1086,59,cs),
(1086,47,o),
(1074,41,o),
(1062,37,cs),
(1044,31,ls),
(1039,29,o),
(1037,26,o),
(1037,24,cs),
(1037,16,o),
(1051,12,o),
(1080,12,cs),
(1109,12,o),
(1139,28,o),
(1139,55,cs),
(1139,95,o),
(1089,115,o),
(988,115,cs),
(966,115,o),
(945,114,o),
(924,113,c),
(924,125,o),
(926,136,o),
(930,145,c),
(921,146,l),
(901,146,o),
(889,141,o),
(884,132,c),
(881,107,l),
(854,106,l),
(854,121,ls),
(854,138,o),
(842,146,o),
(819,146,c),
(809,145,l),
(810,138,o),
(811,130,o),
(811,123,cs),
(811,103,l),
(714,101,l),
(702,171,o),
(634,222,o),
(570,222,cs),
(522,222,o),
(487,202,o),
(487,167,cs),
(487,124,o),
(595,80,o),
(683,80,c),
(676,51,o),
(647,37,o),
(599,37,cs),
(568,37,o),
(506,47,o),
(413,66,c),
(416,114,l),
(407,115,l),
(383,115,o),
(370,111,o),
(370,74,c),
(346,79,l),
(346,101,l),
(344,118,l),
(340,126,o),
(329,131,o),
(311,133,c),
(301,131,l),
(302,124,o),
(302,117,o),
(302,110,cs),
(302,89,l),
(247,98,o),
(215,102,o),
(208,102,cs),
(177,102,o),
(151,98,o),
(132,89,cs),
(113,80,o),
(103,70,o),
(103,59,cs),
(103,48,o),
(122,44,o),
(128,44,c),
(149,47,l),
(163,50,l)
);
},
{
closed = 1;
nodes = (
(527,187,o),
(542,196,o),
(571,196,cs),
(620,196,o),
(673,145,o),
(684,101,c),
(639,103,o),
(601,110,o),
(571,123,cs),
(542,135,o),
(527,151,o),
(527,170,cs)
);
}
);
width = 1243;
}
);
note = u1D075;
unicode = 118901;
},
{
category = Letter;
glyphname = u1D076;
lastChange = "2018-08-24 12:55:27 +0000";
layers = (
{
layerId = "2208DBFF-11B0-48D9-BA6B-B988DFB8211A";
shapes = (
{
closed = 1;
nodes = (
(272,145,o),
(230,143,o),
(180,138,cs),
(148,135,o),
(128,133,o),
(118,130,cs),
(108,127,o),
(103,125,o),
(103,124,cs),
(103,120,o),
(112,117,o),
(124,118,cs),
(304,127,l),
(304,76,o),
(321,50,o),
(354,50,cs),
(387,50,o),
(404,76,o),
(404,127,c),
(442,125,o),
(474,120,o),
(498,111,cs),
(521,102,o),
(533,90,o),
(533,77,cs),
(533,68,o),
(527,59,o),
(516,52,c),
(527,45,o),
(540,42,o),
(552,42,cs),
(563,42,o),
(581,52,o),
(581,72,cs),
(581,92,o),
(565,109,o),
(533,123,cs),
(501,137,o),
(458,144,o),
(403,145,c),
(396,193,o),
(379,218,o),
(354,218,cs),
(330,218,o),
(311,190,o),
(304,145,c)
);
},
{
closed = 1;
nodes = (
(380,95,o),
(371,79,o),
(354,79,cs),
(338,79,o),
(330,95,o),
(330,128,c),
(380,128,l)
);
},
{
closed = 1;
nodes = (
(332,179,o),
(339,196,o),
(354,196,cs),
(365,196,o),
(374,179,o),
(380,146,c),
(330,146,l)
);
}
);
width = 684;
}
);
note = u1D076;
unicode = 118902;
},
{
category = Letter;
glyphname = u1D077;
lastChange = "2018-08-24 12:55:27 +0000";
layers = (
{
layerId = "2208DBFF-11B0-48D9-BA6B-B988DFB8211A";
shapes = (
{
closed = 1;
nodes = (
(516,193,o),
(521,184,o),
(521,173,cs),
(521,142,o),
(477,136,o),
(422,136,c),
(418,185,o),
(397,218,o),
(372,218,cs),
(344,218,o),
(324,188,o),
(322,137,c),
(227,138,ls),
(197,138,o),
(167,137,o),
(139,133,cs),
(103,128,l),
(103,122,l),
(133,121,l),
(185,121,l),
(322,114,l),
(323,71,o),
(340,50,o),
(372,50,cs),
(399,50,o),
(416,71,o),
(422,113,c),
(477,113,o),
(517,118,o),
(542,127,cs),
(566,136,o),
(578,151,o),
(578,174,cs),
(578,198,o),
(566,210,o),
(541,210,cs),
(528,210,o),
(517,207,o),
(506,199,c)
);
},
{
closed = 1;
nodes = (
(346,158,o),
(349,173,o),
(355,183,cs),
(360,191,o),
(367,196,o),
(372,196,cs),
(377,196,o),
(383,191,o),
(388,182,cs),
(393,173,o),
(396,157,o),
(396,136,c),
(346,137,l)
);
},
{
closed = 1;
nodes = (
(392,90,o),
(384,79,o),
(372,79,cs),
(360,79,o),
(352,91,o),
(346,114,c),
(351,113,o),
(356,113,o),
(361,113,cs),
(395,113,l)
);
}
);
width = 683;
}
);
note = u1D077;
unicode = 118903;
},
{
category = Letter;
glyphname = u1D078;
lastChange = "2018-08-24 12:55:27 +0000";
layers = (
{
layerId = "2208DBFF-11B0-48D9-BA6B-B988DFB8211A";
shapes = (
{
closed = 1;
nodes = (
(222,124,l),
(222,75,o),
(238,50,o),
(271,50,cs),
(305,50,o),
(322,75,o),
(322,124,c),
(388,124,l),
(377,122,o),
(362,110,o),
(362,94,cs),
(362,69,o),
(397,50,o),
(449,50,cs),
(512,50,o),
(665,68,o),
(665,90,cs),
(665,98,o),
(660,98,o),
(658,98,cs),
(656,98,o),
(648,96,o),
(641,95,cs),
(562,80,o),
(509,72,o),
(496,72,cs),
(454,72,o),
(430,77,o),
(430,102,cs),
(430,116,o),
(443,128,o),
(468,137,c),
(468,144,l),
(322,144,l),
(318,188,o),
(296,218,o),
(271,218,cs),
(244,218,o),
(226,188,o),
(222,144,c),
(110,144,l),
(103,124,l)
);
},
{
closed = 1;
nodes = (
(250,179,o),
(258,196,o),
(271,196,cs),
(275,196,o),
(281,192,o),
(286,184,cs),
(292,175,o),
(294,162,o),
(296,144,c),
(247,144,l)
);
},
{
closed = 1;
nodes = (
(294,94,o),
(286,79,o),
(271,79,cs),
(255,79,o),
(247,94,o),
(247,124,c),
(296,124,l)
);
}
);
width = 770;
}
);
note = u1D078;
unicode = 118904;
},
{
category = Letter;
glyphname = u1D079;
lastChange = "2018-08-24 12:55:27 +0000";
layers = (
{
layerId = "2208DBFF-11B0-48D9-BA6B-B988DFB8211A";
shapes = (
{
closed = 1;
nodes = (
(589,136,o),
(571,166,o),
(547,166,cs),
(520,166,o),
(500,136,o),
(498,89,c),
(466,89,ls),
(431,89,o),
(413,95,o),
(413,107,cs),
(413,120,o),
(422,130,o),
(439,137,c),
(439,144,l),
(288,144,l),
(283,187,o),
(262,217,o),
(240,217,cs),
(216,217,o),
(196,187,o),
(190,144,c),
(110,144,l),
(103,124,l),
(190,124,l),
(190,71,o),
(216,55,o),
(240,55,cs),
(260,55,o),
(287,71,o),
(288,124,c),
(360,124,l),
(344,121,o),
(336,113,o),
(336,101,cs),
(336,81,o),
(367,71,o),
(430,71,cs),
(498,71,l),
(500,25,o),
(516,2,o),
(547,2,cs),
(576,2,o),
(592,25,o),
(595,71,c),
(737,71,l),
(727,89,l),
(595,89,l)
);
},
{
closed = 1;
nodes = (
(521,112,o),
(531,142,o),
(547,142,cs),
(562,142,o),
(569,115,o),
(570,89,c),
(521,89,l)
);
},
{
closed = 1;
nodes = (
(217,177,o),
(225,193,o),
(240,193,cs),
(252,193,o),
(259,177,o),
(262,144,c),
(216,144,l)
);
},
{
closed = 1;
nodes = (
(260,98,o),
(252,85,o),
(240,85,cs),
(225,85,o),
(217,98,o),
(216,124,c),
(262,124,l)
);
},
{
closed = 1;
nodes = (
(568,46,o),
(561,34,o),
(547,34,cs),
(534,34,o),
(525,46,o),
(521,71,c),
(570,71,l)
);
}
);
width = 841;
}
);
note = u1D079;
unicode = 118905;
},
{
category = Letter;
glyphname = u1D07A;
lastChange = "2018-08-24 12:55:27 +0000";
layers = (
{
layerId = "2208DBFF-11B0-48D9-BA6B-B988DFB8211A";
shapes = (
{
closed = 1;
nodes = (
(110,92,l),
(167,95,o),
(210,117,o),
(210,156,cs),
(210,177,o),
(196,188,o),
(167,188,cs),
(143,188,o),
(131,181,o),
(131,166,cs),
(131,156,o),
(141,150,o),
(152,149,cs),
(167,147,ls),
(171,146,o),
(173,145,o),
(173,142,cs),
(173,124,o),
(149,111,o),
(103,103,c)
);
},
{
closed = 1;
nodes = (
(110,197,l),
(177,200,o),
(210,221,o),
(210,260,cs),
(210,283,o),
(196,294,o),
(167,294,cs),
(143,294,o),
(131,286,o),
(131,271,cs),
(131,263,o),
(138,258,o),
(152,255,cs),
(166,252,o),
(173,250,o),
(173,247,cs),
(173,230,o),
(149,217,o),
(103,209,c)
);
},
{
closed = 1;
nodes = (
(110,302,l),
(177,310,o),
(210,332,o),
(210,366,cs),
(210,389,o),
(196,401,o),
(167,401,cs),
(143,401,o),
(131,393,o),
(131,377,cs),
(131,368,o),
(138,361,o),
(152,359,cs),
(166,357,o),
(173,356,o),
(173,352,cs),
(173,336,o),
(149,323,o),
(103,314,c)
);
}
);
width = 314;
}
);
note = u1D07A;
unicode = 118906;
},
{
category = Letter;
glyphname = u1D07B;
lastChange = "2018-08-24 12:55:27 +0000";
layers = (
{
layerId = "2208DBFF-11B0-48D9-BA6B-B988DFB8211A";
shapes = (
{
closed = 1;
nodes = (
(354,100,o),
(371,84,o),
(406,84,cs),
(442,84,o),
(467,102,o),
(475,121,c),
(511,112,o),
(543,102,o),
(571,91,cs),
(600,80,o),
(625,74,o),
(646,74,cs),
(676,74,o),
(691,84,o),
(691,103,cs),
(691,115,ls),
(691,124,o),
(685,128,o),
(674,128,cs),
(649,128,ls),
(635,128,o),
(634,122,o),
(634,110,cs),
(634,100,o),
(629,95,o),
(619,95,c),
(605,100,ls),
(561,116,o),
(518,128,o),
(481,137,c),
(483,144,o),
(484,148,o),
(484,154,cs),
(483,189,o),
(464,206,o),
(425,206,cs),
(394,206,o),
(361,182,o),
(353,149,c),
(309,146,o),
(262,136,o),
(210,123,cs),
(179,115,l),
(177,130,l),
(180,146,l),
(148,146,o),
(128,138,o),
(121,121,c),
(122,97,ls),
(123,82,o),
(116,68,o),
(103,59,c),
(209,95,o),
(290,122,o),
(352,131,c)
);
},
{
closed = 1;
nodes = (
(383,152,l),
(380,152,l),
(387,177,o),
(402,190,o),
(425,190,cs),
(446,190,o),
(456,179,o),
(456,156,cs),
(456,152,o),
(456,148,o),
(455,144,c)
);
},
{
closed = 1;
nodes = (
(383,132,ls),
(408,132,o),
(430,130,o),
(449,127,c),
(442,109,o),
(425,96,o),
(406,96,cs),
(387,96,o),
(377,108,o),
(377,132,c)
);
}
);
width = 794;
}
);
note = u1D07B;
unicode = 118907;
},
{
category = Letter;
glyphname = u1D07C;
lastChange = "2018-08-24 12:55:27 +0000";
layers = (
{
layerId = "2208DBFF-11B0-48D9-BA6B-B988DFB8211A";
shapes = (
{
closed = 1;
nodes = (
(103,222,l),
(178,159,o),
(250,128,o),
(322,128,cs),
(389,128,o),
(475,168,o),
(535,224,c),
(535,251,l),
(461,188,o),
(390,157,o),
(322,157,cs),
(256,157,o),
(183,188,o),
(103,250,c)
);
}
);
width = 640;
}
);
note = u1D07C;
unicode = 118908;
},
{
category = Letter;
glyphname = u1D07D;
lastChange = "2018-08-24 12:55:27 +0000";
layers = (
{
layerId = "2208DBFF-11B0-48D9-BA6B-B988DFB8211A";
shapes = (
{
closed = 1;
nodes = (
(192,568,o),
(235,582,o),
(296,582,cs),
(337,582,o),
(375,572,o),
(409,553,cs),
(426,544,o),
(452,523,o),
(490,490,c),
(490,517,l),
(436,580,o),
(371,612,o),
(296,612,cs),
(221,612,o),
(156,580,o),
(103,517,c),
(103,490,l)
);
}
);
width = 593;
}
);
note = u1D07D;
unicode = 118909;
},
{
category = Letter;
glyphname = u1D07E;
lastChange = "2018-08-24 12:55:27 +0000";
layers = (
{
layerId = "2208DBFF-11B0-48D9-BA6B-B988DFB8211A";
shapes = (
{
closed = 1;
nodes = (
(236,510,ls),
(236,498,o),
(244,491,o),
(259,491,cs),
(302,491,l),
(302,530,l),
(452,530,l),
(444,547,l),
(302,541,l),
(302,552,ls),
(302,571,o),
(292,581,o),
(274,581,cs),
(236,581,l),
(236,542,l),
(103,542,l),
(114,526,l),
(236,533,l)
);
}
);
width = 556;
}
);
note = u1D07E;
unicode = 118910;
},
{
category = Letter;
glyphname = u1D07F;
lastChange = "2023-04-17 15:48:20 +0000";
layers = (
{
layerId = "2208DBFF-11B0-48D9-BA6B-B988DFB8211A";
shapes = (
{
closed = 1;
nodes = (
(103,648,l),
(185,606,o),
(241,584,o),
(271,584,cs),
(306,584,o),
(323,595,o),
(323,616,c),
(319,631,l),
(268,652,l),
(270,641,l),
(270,625,o),
(258,617,o),
(235,617,cs),
(212,617,o),
(169,629,o),
(106,652,c)
);
}
);
width = 426;
}
);
note = u1D07F;
unicode = 118911;
},
{
category = Letter;
glyphname = u1D080;
lastChange = "2018-08-24 12:55:27 +0000";
layers = (
{
layerId = "2208DBFF-11B0-48D9-BA6B-B988DFB8211A";
shapes = (
{
closed = 1;
nodes = (
(236,128,o),
(262,163,o),
(262,173,cs),
(262,175,o),
(239,188,o),
(226,188,cs),
(212,188,o),
(185,155,o),
(185,146,cs),
(185,138,o),
(207,128,o),
(222,128,cs)
);
},
{
closed = 1;
nodes = (
(155,163,o),
(182,197,o),
(182,206,cs),
(182,208,o),
(157,222,o),
(145,222,cs),
(131,222,o),
(103,187,o),
(103,180,cs),
(103,173,o),
(127,163,o),
(142,163,cs)
);
}
);
width = 366;
}
);
note = u1D080;
unicode = 118912;
},
{
category = Letter;
glyphname = u1D081;
lastChange = "2018-08-24 12:55:27 +0000";
layers = (
{
layerId = "2208DBFF-11B0-48D9-BA6B-B988DFB8211A";
shapes = (
{
closed = 1;
nodes = (
(118,112,o),
(105,93,o),
(105,90,cs),
(105,81,o),
(124,69,o),
(128,69,cs),
(131,69,o),
(137,74,o),
(145,85,cs),
(170,121,l),
(176,116,o),
(186,112,o),
(199,110,c),
(182,89,o),
(172,76,o),
(170,72,cs),
(168,68,o),
(167,64,o),
(167,62,cs),
(167,59,o),
(169,56,o),
(173,52,cs),
(178,46,o),
(187,40,o),
(190,40,cs),
(193,40,o),
(201,46,o),
(209,58,cs),
(242,107,l),
(310,118,o),
(417,185,o),
(468,247,c),
(466,251,l),
(371,176,o),
(295,138,o),
(240,138,cs),
(205,138,o),
(185,165,o),
(185,193,cs),
(185,209,l),
(132,209,l),
(132,199,ls),
(132,177,o),
(136,159,o),
(144,146,c)
);
}
);
width = 571;
}
);
note = u1D081;
unicode = 118913;
},
{
category = Letter;
glyphname = u1D082;
lastChange = "2018-08-24 12:55:27 +0000";
layers = (
{
layerId = "2208DBFF-11B0-48D9-BA6B-B988DFB8211A";
shapes = (
{
closed = 1;
nodes = (
(257,330,o),
(245,321,o),
(239,304,c),
(224,330,o),
(193,343,o),
(149,343,cs),
(118,343,o),
(103,332,o),
(103,311,cs),
(103,295,o),
(112,287,o),
(131,287,cs),
(140,287,o),
(148,289,o),
(154,293,cs),
(159,298,o),
(167,300,o),
(175,300,cs),
(196,300,o),
(210,289,o),
(210,271,cs),
(210,252,o),
(198,239,o),
(174,230,c),
(198,227,l),
(222,227,o),
(238,237,o),
(245,257,c),
(266,230,o),
(329,217,o),
(433,217,cs),
(517,217,o),
(582,231,o),
(605,242,c),
(605,247,l),
(551,240,o),
(493,236,o),
(432,236,cs),
(389,236,o),
(354,241,o),
(323,250,cs),
(293,259,o),
(278,269,o),
(278,280,cs),
(278,293,o),
(290,293,o),
(298,293,cs),
(311,293,l),
(304,312,o),
(292,324,o),
(276,330,c)
);
}
);
width = 708;
}
);
note = u1D082;
unicode = 118914;
},
{
category = Letter;
glyphname = u1D083;
lastChange = "2018-08-24 12:55:27 +0000";
layers = (
{
layerId = "2208DBFF-11B0-48D9-BA6B-B988DFB8211A";
shapes = (
{
closed = 1;
nodes = (
(154,200,o),
(173,242,o),
(173,259,cs),
(173,266,o),
(159,269,o),
(132,269,cs),
(123,269,o),
(103,229,o),
(103,216,cs),
(103,206,o),
(127,200,o),
(142,200,cs)
);
},
{
closed = 1;
nodes = (
(209,269,l),
(195,267,o),
(188,259,o),
(188,245,cs),
(188,213,o),
(229,197,o),
(311,197,cs),
(339,197,o),
(370,201,o),
(404,208,c),
(404,215,l),
(380,213,o),
(367,212,o),
(349,212,cs),
(281,212,o),
(247,225,o),
(247,250,cs),
(247,256,o),
(250,262,o),
(257,269,c)
);
}
);
width = 509;
}
);
note = u1D083;
unicode = 118915;
},
{
category = Letter;
glyphname = u1D084;
lastChange = "2018-08-24 12:55:27 +0000";
layers = (
{
layerId = "2208DBFF-11B0-48D9-BA6B-B988DFB8211A";
shapes = (
{
closed = 1;
nodes = (
(144,257,l),
(300,257,l),
(304,216,l),
(373,204,l),
(365,257,l),
(476,257,l),
(434,271,l),
(103,271,l)
);
}
);
width = 581;
}
);
note = u1D084;
unicode = 118916;
},
{
category = Letter;
glyphname = u1D085;
lastChange = "2018-08-24 12:55:27 +0000";
layers = (
{
layerId = "2208DBFF-11B0-48D9-BA6B-B988DFB8211A";
shapes = (
{
closed = 1;
nodes = (
(155,209,o),
(170,243,o),
(170,257,cs),
(170,263,o),
(146,268,o),
(131,268,cs),
(121,268,o),
(103,238,o),
(103,224,cs),
(103,214,o),
(127,209,o),
(142,209,cs)
);
}
);
width = 274;
}
);
note = u1D085;
unicode = 118917;
},
{
category = Letter;
glyphname = u1D086;
lastChange = "2018-08-24 12:55:27 +0000";
layers = (
{
layerId = "2208DBFF-11B0-48D9-BA6B-B988DFB8211A";
shapes = (
{
closed = 1;
nodes = (
(155,209,o),
(170,243,o),
(170,257,cs),
(170,263,o),
(146,268,o),
(131,268,cs),
(121,268,o),
(103,238,o),
(103,224,cs),
(103,214,o),
(127,209,o),
(142,209,cs)
);
},
{
closed = 1;
nodes = (
(250,209,o),
(266,240,o),
(266,257,cs),
(266,263,o),
(242,268,o),
(226,268,cs),
(217,268,o),
(199,238,o),
(199,224,cs),
(199,214,o),
(222,209,o),
(236,209,cs)
);
}
);
width = 370;
}
);
note = u1D086;
unicode = 118918;
},
{
category = Letter;
glyphname = u1D087;
lastChange = "2018-08-24 12:55:27 +0000";
layers = (
{
layerId = "2208DBFF-11B0-48D9-BA6B-B988DFB8211A";
shapes = (
{
closed = 1;
nodes = (
(155,209,o),
(170,243,o),
(170,257,cs),
(170,263,o),
(146,268,o),
(131,268,cs),
(121,268,o),
(103,238,o),
(103,224,cs),
(103,214,o),
(127,209,o),
(142,209,cs)
);
},
{
closed = 1;
nodes = (
(250,209,o),
(266,240,o),
(266,257,cs),
(266,263,o),
(242,268,o),
(226,268,cs),
(217,268,o),
(199,238,o),
(199,224,cs),
(199,214,o),
(222,209,o),
(236,209,cs)
);
},
{
closed = 1;
nodes = (
(344,209,o),
(361,240,o),
(361,257,cs),
(361,263,o),
(338,268,o),
(322,268,cs),
(313,268,o),
(294,240,o),
(294,224,cs),
(294,214,o),
(317,209,o),
(331,209,cs)
);
}
);
width = 466;
}
);
note = u1D087;
unicode = 118919;
},
{
category = Letter;
glyphname = u1D088;
lastChange = "2018-08-24 12:55:27 +0000";
layers = (
{
layerId = "2208DBFF-11B0-48D9-BA6B-B988DFB8211A";
shapes = (
{
closed = 1;
nodes = (
(155,209,o),
(170,243,o),
(170,257,cs),
(170,263,o),
(146,268,o),
(131,268,cs),
(121,268,o),
(103,238,o),
(103,224,cs),
(103,214,o),
(127,209,o),
(142,209,cs)
);
},
{
closed = 1;
nodes = (
(250,209,o),
(266,240,o),
(266,257,cs),
(266,263,o),
(242,268,o),
(226,268,cs),
(217,268,o),
(199,238,o),
(199,224,cs),
(199,214,o),
(222,209,o),
(236,209,cs)
);
},
{
closed = 1;
nodes = (
(344,209,o),
(361,240,o),
(361,257,cs),
(361,263,o),
(338,268,o),
(322,268,cs),
(313,268,o),
(294,240,o),
(294,224,cs),
(294,214,o),
(317,209,o),
(331,209,cs)
);
},
{
closed = 1;
nodes = (
(439,209,o),
(456,237,o),
(456,257,cs),
(456,263,o),
(434,268,o),
(416,268,cs),
(406,268,o),
(390,237,o),
(390,224,cs),
(390,214,o),
(413,209,o),
(426,209,cs)
);
}
);
width = 560;
}
);
note = u1D088;
unicode = 118920;
},
{
category = Letter;
glyphname = u1D089;
lastChange = "2018-08-24 12:55:27 +0000";
layers = (
{
layerId = "2208DBFF-11B0-48D9-BA6B-B988DFB8211A";
shapes = (
{
closed = 1;
nodes = (
(114,612,l),
(137,635,o),
(158,656,o),
(199,656,cs),
(236,656,o),
(261,646,o),
(288,612,c),
(296,619,l),
(271,662,o),
(239,683,o),
(199,683,cs),
(163,683,o),
(130,664,o),
(103,624,c)
);
},
{
closed = 1;
nodes = (
(187,629,o),
(180,622,o),
(180,607,cs),
(180,594,o),
(187,588,o),
(200,588,cs),
(215,588,o),
(222,594,o),
(222,607,cs),
(222,622,o),
(215,629,o),
(200,629,cs)
);
}
);
width = 401;
}
);
note = u1D089;
unicode = 118921;
},
{
category = Letter;
glyphname = u1D08A;
lastChange = "2018-08-24 12:55:27 +0000";
layers = (
{
layerId = "2208DBFF-11B0-48D9-BA6B-B988DFB8211A";
shapes = (
{
closed = 1;
nodes = (
(138,325,o),
(183,278,o),
(277,238,cs),
(323,218,o),
(393,196,o),
(485,173,c),
(485,175,l),
(317,224,o),
(216,290,o),
(174,403,cs),
(167,422,o),
(152,432,o),
(132,432,cs),
(125,432,o),
(115,430,o),
(103,426,c)
);
},
{
closed = 1;
nodes = (
(276,354,o),
(293,385,o),
(293,401,cs),
(293,407,o),
(270,413,o),
(252,413,cs),
(242,413,o),
(226,380,o),
(226,370,cs),
(226,359,o),
(250,354,o),
(262,354,cs)
);
}
);
width = 589;
}
);
note = u1D08A;
unicode = 118922;
},
{
category = Letter;
glyphname = u1D08B;
lastChange = "2018-08-24 12:55:27 +0000";
layers = (
{
layerId = "2208DBFF-11B0-48D9-BA6B-B988DFB8211A";
shapes = (
{
closed = 1;
nodes = (
(138,325,o),
(183,278,o),
(277,238,cs),
(323,218,o),
(393,196,o),
(485,173,c),
(485,175,l),
(317,224,o),
(216,290,o),
(174,403,cs),
(167,422,o),
(152,432,o),
(132,432,cs),
(125,432,o),
(115,430,o),
(103,426,c)
);
},
{
closed = 1;
nodes = (
(276,354,o),
(293,385,o),
(293,401,cs),
(293,407,o),
(270,413,o),
(252,413,cs),
(242,413,o),
(226,380,o),
(226,370,cs),
(226,359,o),
(250,354,o),
(262,354,cs)
);
},
{
closed = 1;
nodes = (
(371,354,o),
(388,387,o),
(388,401,cs),
(388,407,o),
(365,413,o),
(348,413,cs),
(337,413,o),
(322,380,o),
(322,370,cs),
(322,359,o),
(344,354,o),
(360,354,cs)
);
}
);
width = 589;
}
);
note = u1D08B;
unicode = 118923;
},
{
category = Letter;
glyphname = u1D08C;
lastChange = "2018-08-24 12:55:27 +0000";
layers = (
{
layerId = "2208DBFF-11B0-48D9-BA6B-B988DFB8211A";
shapes = (
{
closed = 1;
nodes = (
(138,325,o),
(183,278,o),
(277,238,cs),
(323,218,o),
(393,196,o),
(485,173,c),
(485,175,l),
(317,224,o),
(216,290,o),
(174,403,cs),
(167,422,o),
(152,432,o),
(132,432,cs),
(125,432,o),
(115,430,o),
(103,426,c)
);
},
{
closed = 1;
nodes = (
(276,354,o),
(293,385,o),
(293,401,cs),
(293,407,o),
(270,413,o),
(252,413,cs),
(242,413,o),
(226,380,o),
(226,370,cs),
(226,359,o),
(250,354,o),
(262,354,cs)
);
},
{
closed = 1;
nodes = (
(371,354,o),
(388,387,o),
(388,401,cs),
(388,407,o),
(365,413,o),
(348,413,cs),
(337,413,o),
(322,380,o),
(322,370,cs),
(322,359,o),
(344,354,o),
(360,354,cs)
);
},
{
closed = 1;
nodes = (
(467,354,o),
(484,385,o),
(484,401,cs),
(484,407,o),
(460,413,o),
(444,413,cs),
(435,413,o),
(416,384,o),
(416,370,cs),
(416,359,o),
(439,354,o),
(455,354,cs)
);
}
);
width = 589;
}
);
note = u1D08C;
unicode = 118924;
},
{
category = Letter;
glyphname = u1D08D;
lastChange = "2018-08-24 12:55:27 +0000";
layers = (
{
layerId = "2208DBFF-11B0-48D9-BA6B-B988DFB8211A";
shapes = (
{
closed = 1;
nodes = (
(138,325,o),
(183,278,o),
(277,238,cs),
(323,218,o),
(393,196,o),
(485,173,c),
(485,175,l),
(317,224,o),
(216,290,o),
(174,403,cs),
(167,422,o),
(152,432,o),
(132,432,cs),
(125,432,o),
(115,430,o),
(103,426,c)
);
},
{
closed = 1;
nodes = (
(276,354,o),
(293,385,o),
(293,401,cs),
(293,407,o),
(270,413,o),
(252,413,cs),
(242,413,o),
(226,380,o),
(226,370,cs),
(226,359,o),
(250,354,o),
(262,354,cs)
);
},
{
closed = 1;
nodes = (
(371,354,o),
(388,387,o),
(388,401,cs),
(388,407,o),
(365,413,o),
(348,413,cs),
(337,413,o),
(322,380,o),
(322,370,cs),
(322,359,o),
(344,354,o),
(360,354,cs)
);
},
{
closed = 1;
nodes = (
(467,354,o),
(484,385,o),
(484,401,cs),
(484,407,o),
(460,413,o),
(444,413,cs),
(435,413,o),
(416,384,o),
(416,370,cs),
(416,359,o),
(439,354,o),
(455,354,cs)
);
},
{
closed = 1;
nodes = (
(563,354,o),
(578,384,o),
(578,401,cs),
(578,407,o),
(556,413,o),
(539,413,cs),
(530,413,o),
(511,384,o),
(511,370,cs),
(511,359,o),
(536,354,o),
(550,354,cs)
);
}
);
width = 683;
}
);
note = u1D08D;
unicode = 118925;
},
{
category = Letter;
glyphname = u1D08E;
lastChange = "2018-08-24 12:55:27 +0000";
layers = (
{
layerId = "2208DBFF-11B0-48D9-BA6B-B988DFB8211A";
shapes = (
{
closed = 1;
nodes = (
(317,224,o),
(216,290,o),
(174,403,cs),
(167,422,o),
(152,432,o),
(132,432,cs),
(125,432,o),
(115,430,o),
(103,426,c),
(138,325,o),
(183,278,o),
(277,238,cs),
(323,218,o),
(393,196,o),
(485,173,c),
(485,175,l)
);
},
{
closed = 1;
nodes = (
(218,490,l),
(230,490,l),
(247,449,ls),
(250,442,o),
(256,439,o),
(266,439,cs),
(288,439,ls),
(294,439,o),
(297,440,o),
(297,444,c),
(280,487,l),
(403,485,l),
(403,502,l),
(218,502,l)
);
},
{
closed = 1;
nodes = (
(276,354,o),
(293,385,o),
(293,401,cs),
(293,407,o),
(270,413,o),
(252,413,cs),
(242,413,o),
(226,380,o),
(226,370,cs),
(226,359,o),
(250,354,o),
(262,354,cs)
);
}
);
width = 589;
}
);
note = u1D08E;
unicode = 118926;
},
{
category = Letter;
glyphname = u1D08F;
lastChange = "2023-04-17 15:49:47 +0000";
layers = (
{
layerId = "2208DBFF-11B0-48D9-BA6B-B988DFB8211A";
shapes = (
{
closed = 1;
nodes = (
(103,637,l),
(114,637,l),
(127,605,o),
(135,589,o),
(137,588,cs),
(139,586,o),
(143,586,o),
(149,586,cs),
(173,586,ls),
(176,586,o),
(179,587,o),
(179,589,c),
(179,590,l),
(164,634,l),
(287,632,l),
(287,649,l),
(103,649,l)
);
}
);
width = 390;
}
);
note = u1D08F;
unicode = 118927;
},
{
category = Letter;
glyphname = u1D090;
lastChange = "2018-08-24 12:55:27 +0000";
layers = (
{
layerId = "2208DBFF-11B0-48D9-BA6B-B988DFB8211A";
shapes = (
{
closed = 1;
nodes = (
(167,490,l),
(179,490,l),
(195,450,ls),
(199,439,o),
(201,439,o),
(212,439,cs),
(236,439,ls),
(241,439,o),
(244,440,o),
(244,442,c),
(244,443,l),
(228,487,l),
(352,485,l),
(352,502,l),
(167,502,l)
);
},
{
closed = 1;
nodes = (
(113,510,o),
(103,502,o),
(103,494,cs),
(103,484,o),
(113,476,o),
(121,476,cs),
(127,476,o),
(137,484,o),
(137,494,cs),
(137,502,o),
(127,510,o),
(121,510,cs)
);
}
);
width = 455;
}
);
note = u1D090;
unicode = 118928;
},
{
category = Letter;
glyphname = u1D091;
lastChange = "2018-08-24 12:55:27 +0000";
layers = (
{
layerId = "2208DBFF-11B0-48D9-BA6B-B988DFB8211A";
shapes = (
{
closed = 1;
nodes = (
(103,490,l),
(114,490,l),
(127,458,o),
(135,442,o),
(137,441,cs),
(139,439,o),
(143,439,o),
(149,439,cs),
(173,439,ls),
(176,439,o),
(179,440,o),
(179,442,c),
(179,443,l),
(164,487,l),
(287,485,l),
(287,502,l),
(103,502,l)
);
},
{
closed = 1;
nodes = (
(325,510,o),
(318,502,o),
(318,494,cs),
(318,484,o),
(325,476,o),
(334,476,cs),
(343,476,o),
(352,484,o),
(352,494,cs),
(352,502,o),
(343,510,o),
(334,510,cs)
);
}
);
width = 455;
}
);
note = u1D091;
unicode = 118929;
},
{
category = Letter;
glyphname = u1D092;
lastChange = "2018-08-24 12:55:27 +0000";
layers = (
{
layerId = "2208DBFF-11B0-48D9-BA6B-B988DFB8211A";
shapes = (
{
closed = 1;
nodes = (
(204,538,l),
(215,538,l),
(228,502,l),
(103,502,l),
(103,490,l),
(114,490,l),
(127,458,o),
(135,442,o),
(137,441,cs),
(139,439,o),
(143,439,o),
(149,439,cs),
(173,439,ls),
(176,439,o),
(179,440,o),
(179,442,c),
(179,443,l),
(164,487,l),
(287,485,l),
(287,502,l),
(278,502,l),
(262,535,l),
(386,533,l),
(386,550,l),
(204,550,l)
);
}
);
width = 490;
}
);
note = u1D092;
unicode = 118930;
},
{
category = Letter;
glyphname = u1D093;
lastChange = "2018-08-24 12:55:27 +0000";
layers = (
{
layerId = "2208DBFF-11B0-48D9-BA6B-B988DFB8211A";
shapes = (
{
closed = 1;
nodes = (
(260,538,l),
(271,538,l),
(287,502,l),
(163,502,l),
(163,490,l),
(173,490,l),
(188,451,ls),
(192,440,o),
(197,439,o),
(208,439,cs),
(230,439,ls),
(235,439,o),
(238,440,o),
(238,444,cs),
(238,447,o),
(233,460,o),
(222,487,c),
(344,485,l),
(344,502,l),
(336,502,l),
(322,535,l),
(444,533,l),
(444,550,l),
(260,550,l)
);
},
{
closed = 1;
nodes = (
(113,509,o),
(103,499,o),
(103,491,cs),
(103,484,o),
(113,475,o),
(121,475,cs),
(127,475,o),
(137,484,o),
(137,491,cs),
(137,499,o),
(127,509,o),
(121,509,cs)
);
}
);
width = 547;
}
);
note = u1D093;
unicode = 118931;
},
{
category = Letter;
glyphname = u1D094;
lastChange = "2018-08-24 12:55:27 +0000";
layers = (
{
layerId = "2208DBFF-11B0-48D9-BA6B-B988DFB8211A";
shapes = (
{
closed = 1;
nodes = (
(204,538,l),
(215,538,l),
(228,502,l),
(103,502,l),
(103,490,l),
(114,490,l),
(127,458,o),
(135,442,o),
(137,441,cs),
(139,439,o),
(143,439,o),
(149,439,cs),
(173,439,ls),
(176,439,o),
(179,440,o),
(179,442,c),
(179,443,l),
(164,487,l),
(287,485,l),
(287,502,l),
(278,502,l),
(262,535,l),
(386,533,l),
(386,550,l),
(204,550,l)
);
},
{
closed = 1;
nodes = (
(156,562,o),
(146,552,o),
(146,546,cs),
(146,538,o),
(156,528,o),
(164,528,cs),
(173,528,o),
(180,538,o),
(180,546,cs),
(180,552,o),
(173,562,o),
(164,562,cs)
);
}
);
width = 490;
}
);
note = u1D094;
unicode = 118932;
},
{
category = Letter;
glyphname = u1D095;
lastChange = "2018-08-24 12:55:27 +0000";
layers = (
{
layerId = "2208DBFF-11B0-48D9-BA6B-B988DFB8211A";
shapes = (
{
closed = 1;
nodes = (
(204,538,l),
(215,538,l),
(228,502,l),
(103,502,l),
(103,490,l),
(114,490,l),
(127,458,o),
(135,442,o),
(137,441,cs),
(139,439,o),
(143,439,o),
(149,439,cs),
(173,439,ls),
(176,439,o),
(179,440,o),
(179,442,c),
(179,443,l),
(164,487,l),
(287,485,l),
(287,502,l),
(278,502,l),
(262,535,l),
(386,533,l),
(386,550,l),
(204,550,l)
);
},
{
closed = 1;
nodes = (
(415,562,o),
(406,552,o),
(406,546,cs),
(406,538,o),
(415,528,o),
(424,528,cs),
(432,528,o),
(439,538,o),
(439,546,cs),
(439,552,o),
(432,562,o),
(424,562,cs)
);
}
);
width = 542;
}
);
note = u1D095;
unicode = 118933;
},
{
category = Letter;
glyphname = u1D096;
lastChange = "2018-08-24 12:55:27 +0000";
layers = (
{
layerId = "2208DBFF-11B0-48D9-BA6B-B988DFB8211A";
shapes = (
{
closed = 1;
nodes = (
(485,598,l),
(302,598,l),
(302,584,l),
(312,584,l),
(329,550,l),
(204,550,l),
(204,538,l),
(215,538,l),
(228,502,l),
(103,502,l),
(103,490,l),
(114,490,l),
(127,458,o),
(135,442,o),
(137,441,cs),
(139,439,o),
(143,439,o),
(149,439,cs),
(173,439,ls),
(176,439,o),
(179,440,o),
(179,442,c),
(179,443,l),
(164,487,l),
(287,485,l),
(287,502,l),
(278,502,l),
(262,535,l),
(386,533,l),
(386,550,l),
(377,550,l),
(362,582,l),
(485,581,l)
);
}
);
width = 589;
}
);
note = u1D096;
unicode = 118934;
},
{
category = Letter;
glyphname = u1D097;
lastChange = "2018-08-24 12:55:27 +0000";
layers = (
{
layerId = "2208DBFF-11B0-48D9-BA6B-B988DFB8211A";
shapes = (
{
closed = 1;
nodes = (
(287,502,l),
(103,502,l),
(103,485,l),
(226,485,l),
(211,442,l),
(211,440,o),
(213,439,o),
(217,439,cs),
(243,439,ls),
(254,439,o),
(254,439,o),
(259,450,cs),
(276,490,l),
(287,490,l)
);
}
);
width = 390;
}
);
note = u1D097;
unicode = 118935;
},
{
category = Letter;
glyphname = u1D098;
lastChange = "2018-08-24 12:55:27 +0000";
layers = (
{
layerId = "2208DBFF-11B0-48D9-BA6B-B988DFB8211A";
shapes = (
{
closed = 1;
nodes = (
(179,502,l),
(193,544,l),
(193,548,o),
(189,550,o),
(182,550,cs),
(163,550,ls),
(152,550,o),
(147,546,o),
(144,539,cs),
(128,502,l),
(103,502,l),
(103,485,l),
(226,487,l),
(211,442,l),
(211,440,o),
(213,439,o),
(217,439,cs),
(243,439,ls),
(254,439,o),
(255,439,o),
(259,449,cs),
(276,490,l),
(287,490,l),
(287,502,l)
);
}
);
width = 390;
}
);
note = u1D098;
unicode = 118936;
},
{
category = Letter;
glyphname = u1D099;
lastChange = "2018-08-24 12:55:27 +0000";
layers = (
{
layerId = "2208DBFF-11B0-48D9-BA6B-B988DFB8211A";
shapes = (
{
closed = 1;
nodes = (
(287,550,l),
(103,550,l),
(103,533,l),
(226,535,l),
(210,502,l),
(204,502,l),
(204,485,l),
(325,487,l),
(313,458,ls),
(312,455,o),
(310,449,o),
(310,445,cs),
(310,441,o),
(313,439,o),
(318,439,cs),
(338,439,ls),
(351,439,o),
(356,439,o),
(360,451,cs),
(374,490,l),
(386,490,l),
(386,502,l),
(260,502,l),
(276,538,l),
(287,538,l)
);
}
);
width = 490;
}
);
note = u1D099;
unicode = 118937;
},
{
category = Letter;
glyphname = u1D09A;
lastChange = "2018-08-24 12:55:27 +0000";
layers = (
{
layerId = "2208DBFF-11B0-48D9-BA6B-B988DFB8211A";
shapes = (
{
closed = 1;
nodes = (
(287,452,l),
(103,452,l),
(103,434,l),
(226,438,l),
(210,404,l),
(204,404,l),
(204,388,l),
(325,390,l),
(313,361,ls),
(311,357,o),
(310,352,o),
(310,348,cs),
(310,345,o),
(313,343,o),
(318,343,cs),
(339,343,ls),
(351,343,o),
(356,343,o),
(360,354,cs),
(374,391,l),
(386,391,l),
(386,404,l),
(260,404,l),
(276,439,l),
(287,439,l)
);
},
{
closed = 1;
nodes = (
(232,283,l),
(250,281,o),
(274,272,o),
(304,258,c),
(230,185,l),
(262,185,l),
(319,247,l),
(346,230,o),
(369,209,o),
(390,185,c),
(395,184,o),
(396,184,o),
(399,184,cs),
(412,184,o),
(418,187,o),
(418,193,cs),
(418,200,o),
(411,210,o),
(397,223,cs),
(383,236,o),
(363,250,o),
(338,266,c),
(362,290,o),
(384,302,o),
(403,302,c),
(403,308,l),
(372,308,o),
(353,297,o),
(325,274,c),
(296,291,o),
(274,300,o),
(259,300,cs),
(248,300,o),
(239,296,o),
(232,290,c)
);
}
);
width = 521;
}
);
note = u1D09A;
unicode = 118938;
},
{
category = Letter;
glyphname = u1D09B;
lastChange = "2018-08-24 12:55:27 +0000";
layers = (
{
layerId = "2208DBFF-11B0-48D9-BA6B-B988DFB8211A";
shapes = (
{
closed = 1;
nodes = (
(142,283,l),
(160,281,o),
(184,272,o),
(215,258,c),
(138,185,l),
(173,185,l),
(228,247,l),
(249,234,o),
(273,214,o),
(300,185,c),
(303,184,o),
(306,184,o),
(309,184,cs),
(323,185,o),
(329,187,o),
(329,193,cs),
(329,205,o),
(302,229,o),
(247,266,c),
(271,290,o),
(292,302,o),
(311,302,c),
(311,308,l),
(286,308,o),
(260,297,o),
(235,274,c),
(204,291,o),
(181,300,o),
(167,300,cs),
(157,300,o),
(148,296,o),
(142,290,c)
);
},
{
closed = 1;
nodes = (
(179,404,l),
(193,445,l),
(192,450,o),
(189,452,o),
(182,452,cs),
(162,452,ls),
(150,452,o),
(148,452,o),
(144,442,cs),
(128,404,l),
(103,404,l),
(103,388,l),
(226,390,l),
(211,346,l),
(211,344,o),
(213,343,o),
(217,343,cs),
(240,343,ls),
(253,343,o),
(255,344,o),
(259,353,cs),
(276,391,l),
(287,391,l),
(287,404,l)
);
}
);
width = 432;
}
);
note = u1D09B;
unicode = 118939;
},
{
category = Letter;
glyphname = u1D09C;
lastChange = "2018-08-24 12:55:27 +0000";
layers = (
{
layerId = "2208DBFF-11B0-48D9-BA6B-B988DFB8211A";
shapes = (
{
closed = 1;
nodes = (
(103,404,l),
(103,388,l),
(226,390,l),
(211,346,l),
(211,344,o),
(213,343,o),
(217,343,cs),
(241,343,ls),
(254,343,o),
(255,344,o),
(259,353,cs),
(276,391,l),
(287,391,l),
(287,404,l)
);
},
{
closed = 1;
nodes = (
(142,283,l),
(160,281,o),
(184,272,o),
(215,258,c),
(138,185,l),
(173,185,l),
(228,247,l),
(249,234,o),
(273,214,o),
(300,185,c),
(303,184,o),
(306,184,o),
(309,184,cs),
(323,185,o),
(329,187,o),
(329,193,cs),
(329,205,o),
(302,229,o),
(247,266,c),
(271,290,o),
(292,302,o),
(311,302,c),
(311,308,l),
(286,308,o),
(260,297,o),
(235,274,c),
(204,291,o),
(181,300,o),
(167,300,cs),
(157,300,o),
(148,296,o),
(142,290,c)
);
}
);
width = 432;
}
);
note = u1D09C;
unicode = 118940;
},
{
category = Letter;
glyphname = u1D09D;
lastChange = "2018-08-24 12:55:27 +0000";
layers = (
{
layerId = "2208DBFF-11B0-48D9-BA6B-B988DFB8211A";
shapes = (
{
closed = 1;
nodes = (
(103,404,l),
(103,388,l),
(226,390,l),
(211,346,l),
(211,344,o),
(213,343,o),
(217,343,cs),
(241,343,ls),
(254,343,o),
(255,344,o),
(259,353,cs),
(276,391,l),
(287,391,l),
(287,404,l)
);
},
{
closed = 1;
nodes = (
(310,404,l),
(310,391,l),
(319,391,l),
(336,353,ls),
(340,344,o),
(342,343,o),
(354,343,cs),
(377,343,l),
(386,346,l),
(386,348,l),
(370,390,l),
(491,388,l),
(491,404,l)
);
},
{
closed = 1;
nodes = (
(214,283,l),
(232,281,o),
(256,272,o),
(287,258,c),
(210,185,l),
(245,185,l),
(300,247,l),
(321,234,o),
(345,214,o),
(372,185,c),
(375,184,o),
(378,184,o),
(381,184,cs),
(395,184,o),
(401,187,o),
(401,193,cs),
(401,205,o),
(374,229,o),
(319,266,c),
(343,290,o),
(365,302,o),
(383,302,c),
(383,308,l),
(358,308,o),
(333,295,o),
(307,274,c),
(276,292,o),
(253,300,o),
(239,300,cs),
(229,300,o),
(221,296,o),
(214,290,c)
);
}
);
width = 595;
}
);
note = u1D09D;
unicode = 118941;
},
{
category = Letter;
glyphname = u1D09E;
lastChange = "2018-08-24 12:55:27 +0000";
layers = (
{
layerId = "2208DBFF-11B0-48D9-BA6B-B988DFB8211A";
shapes = (
{
closed = 1;
nodes = (
(167,283,l),
(188,281,o),
(212,272,o),
(240,258,c),
(223,243,o),
(217,237,o),
(206,226,cs),
(166,185,l),
(199,185,l),
(257,247,l),
(285,228,o),
(308,207,o),
(325,185,c),
(329,184,o),
(331,184,o),
(334,184,cs),
(347,184,o),
(354,187,o),
(354,193,cs),
(354,206,o),
(327,230,o),
(274,266,c),
(298,290,o),
(319,302,o),
(338,302,c),
(338,308,l),
(314,308,o),
(288,297,o),
(260,274,c),
(231,291,o),
(210,300,o),
(196,300,cs),
(188,300,o),
(181,298,o),
(174,295,cs),
(172,294,o),
(168,292,o),
(167,290,c)
);
},
{
closed = 1;
nodes = (
(205,350,o),
(218,338,o),
(240,338,cs),
(259,338,o),
(271,349,o),
(274,372,c),
(276,345,o),
(288,331,o),
(310,331,cs),
(327,331,o),
(336,339,o),
(336,354,c),
(331,354,l),
(331,349,o),
(327,346,o),
(319,346,cs),
(310,346,o),
(300,377,o),
(300,395,c),
(296,402,o),
(291,406,o),
(282,406,cs),
(273,406,o),
(270,402,o),
(268,395,cs),
(264,373,o),
(255,362,o),
(245,362,cs),
(234,362,o),
(228,368,o),
(228,380,c),
(234,407,ls),
(236,413,o),
(232,415,o),
(226,415,cs),
(216,415,o),
(209,408,o),
(200,397,cs),
(103,278,l),
(105,273,o),
(112,271,o),
(121,271,cs),
(140,271,o),
(185,334,o),
(200,373,c)
);
}
);
width = 458;
}
);
note = u1D09E;
unicode = 118942;
},
{
category = Letter;
glyphname = u1D09F;
lastChange = "2018-08-24 12:55:27 +0000";
layers = (
{
layerId = "2208DBFF-11B0-48D9-BA6B-B988DFB8211A";
shapes = (
{
closed = 1;
nodes = (
(106,283,l),
(125,281,o),
(149,272,o),
(179,258,c),
(103,185,l),
(137,185,l),
(193,247,l),
(228,223,o),
(251,202,o),
(262,185,c),
(267,184,o),
(269,184,o),
(272,184,cs),
(287,184,o),
(293,187,o),
(293,193,cs),
(293,207,o),
(265,231,o),
(210,266,c),
(237,290,o),
(259,302,o),
(276,302,c),
(276,308,l),
(251,308,o),
(226,297,o),
(199,274,c),
(169,291,o),
(146,300,o),
(132,300,cs),
(122,300,o),
(113,296,o),
(106,290,c)
);
},
{
closed = 1;
nodes = (
(142,404,l),
(142,391,l),
(152,391,l),
(167,354,ls),
(171,344,o),
(175,343,o),
(187,343,cs),
(209,343,ls),
(213,343,o),
(215,344,o),
(216,346,c),
(216,349,l),
(215,360,l),
(200,390,l),
(323,388,l),
(323,404,l)
);
}
);
width = 426;
}
);
note = u1D09F;
unicode = 118943;
},
{
category = Letter;
glyphname = u1D0A0;
lastChange = "2018-08-24 12:55:27 +0000";
layers = (
{
layerId = "2208DBFF-11B0-48D9-BA6B-B988DFB8211A";
shapes = (
{
closed = 1;
nodes = (
(239,439,l),
(250,439,l),
(262,404,l),
(138,404,l),
(138,391,l),
(149,391,l),
(166,353,ls),
(170,343,o),
(173,343,o),
(185,343,cs),
(208,343,ls),
(212,343,o),
(214,344,o),
(215,346,c),
(199,390,l),
(322,388,l),
(322,404,l),
(312,404,l),
(300,438,l),
(422,434,l),
(422,452,l),
(239,452,l)
);
},
{
closed = 1;
nodes = (
(106,283,l),
(125,281,o),
(149,272,o),
(179,258,c),
(103,185,l),
(137,185,l),
(193,247,l),
(228,223,o),
(251,202,o),
(262,185,c),
(267,184,o),
(269,184,o),
(272,184,cs),
(287,184,o),
(293,187,o),
(293,193,cs),
(293,207,o),
(265,231,o),
(210,266,c),
(237,290,o),
(259,302,o),
(276,302,c),
(276,308,l),
(251,308,o),
(226,297,o),
(199,274,c),
(169,291,o),
(146,300,o),
(132,300,cs),
(122,300,o),
(113,296,o),
(106,290,c)
);
}
);
width = 526;
}
);
note = u1D0A0;
unicode = 118944;
},
{
category = Letter;
glyphname = u1D0A1;
lastChange = "2018-08-24 12:55:27 +0000";
layers = (
{
layerId = "2208DBFF-11B0-48D9-BA6B-B988DFB8211A";
shapes = (
{
closed = 1;
nodes = (
(518,499,l),
(336,499,l),
(336,487,l),
(346,487,l),
(361,452,l),
(236,452,l),
(236,439,l),
(247,439,l),
(260,404,l),
(137,404,l),
(137,391,l),
(146,391,l),
(164,353,ls),
(168,344,o),
(170,343,o),
(182,343,cs),
(206,343,ls),
(210,343,o),
(213,344,o),
(214,346,c),
(197,390,l),
(319,388,l),
(319,404,l),
(311,404,l),
(296,438,l),
(418,434,l),
(418,452,l),
(412,452,l),
(396,485,l),
(518,484,l)
);
},
{
closed = 1;
nodes = (
(106,283,l),
(125,281,o),
(149,272,o),
(179,258,c),
(103,185,l),
(137,185,l),
(193,247,l),
(228,223,o),
(251,202,o),
(262,185,c),
(267,184,o),
(269,184,o),
(272,184,cs),
(287,184,o),
(293,187,o),
(293,193,cs),
(293,207,o),
(265,231,o),
(210,266,c),
(237,290,o),
(259,302,o),
(276,302,c),
(276,308,l),
(251,308,o),
(226,297,o),
(199,274,c),
(169,291,o),
(146,300,o),
(132,300,cs),
(122,300,o),
(113,296,o),
(106,290,c)
);
}
);
width = 622;
}
);
note = u1D0A1;
unicode = 118945;
},
{
category = Letter;
glyphname = u1D0A2;
lastChange = "2018-08-24 12:55:27 +0000";
layers = (
{
layerId = "2208DBFF-11B0-48D9-BA6B-B988DFB8211A";
shapes = (
{
closed = 1;
nodes = (
(216,280,l),
(209,287,o),
(202,290,o),
(193,290,cs),
(148,290,o),
(103,246,o),
(103,209,cs),
(103,190,o),
(116,180,o),
(142,180,cs),
(181,180,o),
(208,203,o),
(217,226,c),
(223,197,o),
(243,182,o),
(278,182,cs),
(296,182,o),
(320,187,o),
(348,196,cs),
(376,205,o),
(398,209,o),
(413,209,cs),
(442,209,o),
(449,191,o),
(455,166,c),
(498,170,l),
(483,227,o),
(456,236,o),
(424,236,cs),
(408,236,o),
(385,230,o),
(354,218,cs),
(325,207,o),
(302,200,o),
(290,200,cs),
(265,200,o),
(252,213,o),
(252,240,cs),
(252,252,o),
(254,267,o),
(258,283,c),
(217,296,l)
);
},
{
closed = 1;
nodes = (
(146,234,o),
(178,276,o),
(196,276,cs),
(203,276,o),
(206,271,o),
(206,260,cs),
(206,235,o),
(179,199,o),
(158,199,cs),
(150,199,o),
(146,203,o),
(146,210,cs)
);
}
);
width = 602;
}
);
note = u1D0A2;
unicode = 118946;
},
{
category = Letter;
glyphname = u1D0A3;
lastChange = "2018-08-24 12:55:27 +0000";
layers = (
{
layerId = "2208DBFF-11B0-48D9-BA6B-B988DFB8211A";
shapes = (
{
closed = 1;
nodes = (
(216,280,l),
(209,287,o),
(202,290,o),
(193,290,cs),
(148,290,o),
(103,246,o),
(103,209,cs),
(103,190,o),
(116,180,o),
(142,180,cs),
(177,180,o),
(202,194,o),
(215,222,c),
(212,210,ls),
(210,202,o),
(209,190,o),
(209,173,cs),
(209,140,o),
(232,111,o),
(277,82,cs),
(300,67,o),
(311,55,o),
(311,44,cs),
(311,31,o),
(307,19,o),
(300,8,c),
(346,10,l),
(350,24,o),
(352,35,o),
(352,44,cs),
(352,67,o),
(327,89,o),
(287,102,cs),
(283,104,o),
(272,109,o),
(263,113,cs),
(244,122,o),
(235,146,o),
(235,174,cs),
(235,182,o),
(236,196,o),
(239,207,cs),
(258,283,l),
(217,296,l)
);
},
{
closed = 1;
nodes = (
(146,234,o),
(178,276,o),
(196,276,cs),
(203,276,o),
(206,271,o),
(206,260,cs),
(206,235,o),
(179,199,o),
(158,199,cs),
(150,199,o),
(146,203,o),
(146,210,cs)
);
}
);
width = 455;
}
);
note = u1D0A3;
unicode = 118947;
},
{
category = Letter;
glyphname = u1D0A4;
lastChange = "2018-08-24 12:55:27 +0000";
layers = (
{
layerId = "2208DBFF-11B0-48D9-BA6B-B988DFB8211A";
shapes = (
{
closed = 1;
nodes = (
(204,296,l),
(195,253,o),
(188,229,o),
(183,221,cs),
(178,214,o),
(171,210,o),
(162,210,cs),
(145,210,o),
(136,229,o),
(139,256,cs),
(142,287,l),
(106,290,l),
(104,284,o),
(103,274,o),
(103,262,cs),
(103,218,o),
(121,196,o),
(156,196,cs),
(178,196,o),
(195,203,o),
(208,217,c),
(210,196,o),
(236,182,o),
(258,182,cs),
(275,182,o),
(301,187,o),
(334,196,cs),
(368,205,o),
(390,209,o),
(401,209,cs),
(422,209,o),
(433,197,o),
(433,174,c),
(478,173,l),
(478,208,o),
(449,236,o),
(406,236,cs),
(390,236,o),
(367,230,o),
(336,218,cs),
(306,206,o),
(283,200,o),
(269,200,cs),
(244,200,o),
(232,215,o),
(232,245,cs),
(232,251,o),
(235,266,o),
(240,287,c)
);
}
);
width = 582;
}
);
note = u1D0A4;
unicode = 118948;
},
{
category = Letter;
glyphname = u1D0A5;
lastChange = "2018-08-24 12:55:27 +0000";
layers = (
{
layerId = "2208DBFF-11B0-48D9-BA6B-B988DFB8211A";
shapes = (
{
closed = 1;
nodes = (
(383,208,l),
(381,250,o),
(357,271,o),
(311,271,cs),
(296,271,o),
(273,264,o),
(237,253,cs),
(200,242,o),
(177,236,o),
(170,236,cs),
(153,236,o),
(144,244,o),
(144,260,cs),
(144,272,o),
(147,282,o),
(154,290,c),
(107,300,l),
(104,293,o),
(103,287,o),
(103,280,cs),
(104,243,o),
(124,217,o),
(164,217,cs),
(177,217,o),
(198,221,o),
(248,232,cs),
(257,234,o),
(285,242,o),
(303,242,cs),
(328,242,o),
(340,231,o),
(340,209,c)
);
}
);
width = 487;
}
);
note = u1D0A5;
unicode = 118949;
},
{
category = Letter;
glyphname = u1D0A6;
lastChange = "2018-08-24 12:55:27 +0000";
layers = (
{
layerId = "2208DBFF-11B0-48D9-BA6B-B988DFB8211A";
shapes = (
{
closed = 1;
nodes = (
(538,388,l),
(526,398,o),
(514,406,o),
(487,412,c),
(469,412,o),
(452,412,o),
(421,410,cs),
(400,409,o),
(375,408,o),
(360,408,cs),
(329,408,o),
(294,412,o),
(274,416,c),
(274,413,l),
(289,395,o),
(312,388,o),
(322,386,c),
(324,386,o),
(334,386,o),
(354,387,cs),
(370,388,o),
(429,388,o),
(467,388,cs),
(488,388,o),
(518,388,o),
(538,383,c)
);
},
{
closed = 1;
nodes = (
(432,334,l),
(421,344,o),
(405,355,o),
(379,355,cs),
(351,355,ls),
(339,355,o),
(322,354,o),
(313,354,cs),
(300,354,o),
(289,354,o),
(279,354,cs),
(252,354,ls),
(221,354,o),
(188,355,o),
(167,362,c),
(167,360,l),
(181,341,o),
(205,333,o),
(216,331,c),
(235,332,o),
(242,332,o),
(250,332,cs),
(322,333,ls),
(335,333,o),
(354,334,o),
(361,334,cs),
(388,334,o),
(413,334,o),
(432,330,c)
);
},
{
closed = 1;
nodes = (
(453,361,o),
(459,351,o),
(466,334,cs),
(473,318,o),
(485,308,o),
(499,308,cs),
(506,308,o),
(510,309,o),
(516,311,c),
(508,319,o),
(502,331,o),
(496,344,cs),
(490,357,o),
(480,363,o),
(465,363,cs),
(455,363,o),
(454,363,o),
(448,362,c)
);
},
{
closed = 1;
nodes = (
(504,361,o),
(510,352,o),
(518,334,cs),
(525,317,o),
(537,308,o),
(552,308,cs),
(553,308,o),
(561,308,o),
(568,311,c),
(561,317,o),
(554,328,o),
(548,342,cs),
(542,356,o),
(531,363,o),
(516,363,cs),
(508,363,o),
(503,363,o),
(499,362,c)
);
},
{
closed = 1;
nodes = (
(103,283,l),
(114,283,l),
(122,221,ls),
(123,210,o),
(131,209,o),
(142,209,cs),
(173,209,ls),
(177,209,o),
(181,215,o),
(180,226,cs),
(173,282,l),
(290,280,l),
(290,296,l),
(103,296,l)
);
},
{
closed = 1;
nodes = (
(408,294,o),
(396,301,o),
(390,301,cs),
(386,301,o),
(371,288,o),
(365,278,c),
(365,271,o),
(376,266,o),
(386,266,c),
(392,269,o),
(408,283,o),
(412,288,c)
);
},
{
closed = 1;
nodes = (
(365,312,o),
(354,319,o),
(346,319,cs),
(344,319,o),
(325,303,o),
(322,296,c),
(322,290,o),
(333,283,o),
(343,283,c),
(349,287,o),
(365,302,o),
(366,308,c)
);
}
);
width = 671;
}
);
note = u1D0A6;
unicode = 118950;
},
{
category = Letter;
glyphname = u1D0A7;
lastChange = "2018-08-24 12:55:27 +0000";
layers = (
{
layerId = "2208DBFF-11B0-48D9-BA6B-B988DFB8211A";
shapes = (
{
closed = 1;
nodes = (
(163,204,l),
(146,204,o),
(138,213,o),
(138,230,cs),
(138,250,o),
(147,260,o),
(164,260,cs),
(180,260,o),
(187,249,o),
(188,227,cs),
(190,175,ls),
(190,163,o),
(199,142,o),
(225,142,cs),
(239,142,o),
(251,144,o),
(259,146,c),
(259,152,l),
(240,155,o),
(230,163,o),
(230,175,cs),
(228,224,ls),
(227,256,o),
(202,274,o),
(164,274,cs),
(124,274,o),
(103,257,o),
(103,224,cs),
(103,205,o),
(114,196,o),
(136,196,cs),
(145,196,o),
(154,197,o),
(163,199,c)
);
},
{
closed = 1;
nodes = (
(300,204,l),
(284,204,o),
(276,213,o),
(276,230,cs),
(276,250,o),
(284,260,o),
(301,260,cs),
(317,260,o),
(323,251,o),
(325,229,cs),
(329,175,ls),
(330,164,o),
(338,142,o),
(361,142,cs),
(375,142,o),
(388,144,o),
(396,146,c),
(396,152,l),
(376,155,o),
(366,163,o),
(366,175,cs),
(365,223,ls),
(364,255,o),
(340,274,o),
(301,274,cs),
(260,274,o),
(240,257,o),
(240,224,cs),
(240,205,o),
(250,196,o),
(271,196,cs),
(281,196,o),
(290,197,o),
(300,199,c)
);
}
);
width = 499;
}
);
note = u1D0A7;
unicode = 118951;
},
{
category = Letter;
glyphname = u1D0A8;
lastChange = "2018-08-24 12:55:27 +0000";
layers = (
{
layerId = "2208DBFF-11B0-48D9-BA6B-B988DFB8211A";
shapes = (
{
closed = 1;
nodes = (
(188,72,o),
(224,111,o),
(224,154,cs),
(224,165,o),
(222,173,o),
(215,180,cs),
(192,203,o),
(175,234,o),
(175,246,cs),
(175,261,o),
(182,268,o),
(196,268,cs),
(217,268,o),
(249,230,o),
(247,197,cs),
(245,156,ls),
(244,140,o),
(255,130,o),
(272,128,cs),
(291,126,o),
(300,117,o),
(300,101,cs),
(300,92,o),
(298,86,o),
(296,84,c),
(322,74,l),
(325,94,l),
(325,120,o),
(305,142,o),
(278,144,cs),
(271,145,o),
(266,146,o),
(262,149,c),
(261,153,l),
(265,170,l),
(268,197,l),
(268,252,o),
(234,294,o),
(188,294,cs),
(162,294,o),
(149,283,o),
(149,260,cs),
(149,239,o),
(162,213,o),
(188,180,c),
(147,176,o),
(103,135,o),
(103,103,cs),
(103,82,o),
(114,72,o),
(137,72,cs)
);
},
{
closed = 1;
nodes = (
(148,92,o),
(145,95,o),
(145,102,cs),
(145,124,o),
(177,167,o),
(193,167,cs),
(203,167,o),
(208,162,o),
(208,153,cs),
(208,130,o),
(177,92,o),
(156,92,cs)
);
}
);
width = 430;
}
);
note = u1D0A8;
unicode = 118952;
},
{
category = Letter;
glyphname = u1D0A9;
lastChange = "2018-08-24 12:55:27 +0000";
layers = (
{
layerId = "2208DBFF-11B0-48D9-BA6B-B988DFB8211A";
shapes = (
{
closed = 1;
nodes = (
(245,188,l),
(240,193,o),
(232,205,o),
(224,222,cs),
(201,272,o),
(167,295,o),
(128,296,cs),
(120,296,o),
(111,295,o),
(103,294,c),
(103,290,l),
(138,288,o),
(160,273,o),
(180,232,c),
(176,216,o),
(149,177,o),
(118,152,c),
(156,146,l),
(171,164,o),
(185,182,o),
(196,200,c),
(223,162,o),
(252,142,o),
(282,142,cs),
(291,142,o),
(298,143,o),
(310,145,c),
(310,149,l),
(303,149,o),
(292,152,o),
(276,158,c),
(271,209,l),
(336,206,l),
(336,216,l),
(245,222,l)
);
}
);
width = 439;
}
);
note = u1D0A9;
unicode = 118953;
},
{
category = Letter;
glyphname = u1D0AA;
lastChange = "2018-08-24 12:55:27 +0000";
layers = (
{
layerId = "2208DBFF-11B0-48D9-BA6B-B988DFB8211A";
shapes = (
{
closed = 1;
nodes = (
(491,156,o),
(511,184,o),
(511,209,cs),
(511,223,o),
(504,230,o),
(490,230,cs),
(469,230,o),
(452,220,o),
(439,199,c),
(428,191,o),
(417,184,o),
(409,180,cs),
(401,176,o),
(396,174,o),
(391,174,cs),
(386,174,o),
(383,178,o),
(383,185,cs),
(383,204,o),
(399,223,o),
(432,240,c),
(453,240,o),
(473,246,o),
(491,257,c),
(491,260,l),
(469,258,l),
(452,258,l),
(355,273,l),
(325,276,l),
(304,276,o),
(282,270,o),
(259,259,c),
(259,257,l),
(276,258,o),
(293,259,o),
(311,259,cs),
(328,259,o),
(345,256,o),
(363,251,cs),
(381,246,o),
(402,242,o),
(413,240,c),
(373,227,o),
(348,197,o),
(348,174,cs),
(348,159,o),
(354,152,o),
(366,152,cs),
(387,152,o),
(409,161,o),
(432,180,c),
(432,164,o),
(441,156,o),
(460,156,cs)
);
},
{
closed = 1;
nodes = (
(499,190,o),
(484,170,o),
(467,170,cs),
(462,170,o),
(460,173,o),
(460,179,cs),
(460,199,o),
(480,218,o),
(491,218,cs),
(497,218,o),
(499,215,o),
(499,209,cs)
);
},
{
closed = 1;
nodes = (
(496,127,l),
(529,130,o),
(569,148,o),
(569,175,cs),
(569,182,o),
(567,187,o),
(564,190,cs),
(562,194,o),
(560,199,o),
(560,204,cs),
(560,211,o),
(565,216,o),
(574,218,c),
(574,224,l),
(547,228,l),
(535,228,o),
(521,217,o),
(521,204,cs),
(521,197,o),
(522,191,o),
(525,188,cs),
(528,186,o),
(530,180,o),
(530,173,cs),
(530,157,o),
(517,139,o),
(494,132,c)
);
},
{
closed = 1;
nodes = (
(245,188,l),
(240,193,o),
(232,205,o),
(224,222,cs),
(201,272,o),
(167,295,o),
(128,296,cs),
(120,296,o),
(111,295,o),
(103,294,c),
(103,290,l),
(138,288,o),
(160,273,o),
(180,232,c),
(176,216,o),
(149,177,o),
(118,152,c),
(156,146,l),
(171,164,o),
(185,182,o),
(196,200,c),
(223,162,o),
(252,142,o),
(282,142,cs),
(291,142,o),
(298,143,o),
(310,145,c),
(310,149,l),
(303,149,o),
(292,152,o),
(276,158,c),
(271,209,l),
(336,206,l),
(336,216,l),
(245,222,l)
);
}
);
width = 677;
}
);
note = u1D0AA;
unicode = 118954;
},
{
category = Letter;
glyphname = u1D0AB;
lastChange = "2018-08-24 12:55:27 +0000";
layers = (
{
layerId = "2208DBFF-11B0-48D9-BA6B-B988DFB8211A";
shapes = (
{
closed = 1;
nodes = (
(238,265,o),
(236,251,o),
(236,242,cs),
(236,213,o),
(248,199,o),
(271,199,cs),
(282,199,o),
(291,201,o),
(296,204,c),
(296,208,l),
(280,222,o),
(276,229,o),
(276,250,cs),
(276,261,o),
(276,272,o),
(278,283,c),
(329,283,l),
(329,296,l),
(121,296,ls),
(109,296,o),
(103,293,o),
(103,287,cs),
(103,278,o),
(107,274,o),
(115,274,cs),
(122,274,o),
(127,277,o),
(132,283,c),
(182,283,l),
(179,255,o),
(172,230,o),
(164,208,c),
(167,206,o),
(171,205,o),
(177,205,cs),
(187,205,o),
(199,208,o),
(206,216,c),
(208,232,o),
(210,254,o),
(210,283,c),
(242,283,l)
);
},
{
closed = 1;
nodes = (
(115,474,l),
(149,470,o),
(175,450,o),
(193,415,c),
(189,397,o),
(159,358,o),
(131,334,c),
(167,330,l),
(185,348,o),
(199,366,o),
(208,383,c),
(233,343,o),
(262,323,o),
(294,323,cs),
(309,323,o),
(318,325,o),
(322,329,c),
(322,331,l),
(288,333,o),
(259,359,o),
(235,407,cs),
(211,454,o),
(180,477,o),
(142,478,cs),
(133,478,o),
(124,477,o),
(115,476,c)
);
}
);
width = 432;
}
);
note = u1D0AB;
unicode = 118955;
},
{
category = Letter;
glyphname = u1D0AC;
lastChange = "2018-08-24 12:55:27 +0000";
layers = (
{
layerId = "2208DBFF-11B0-48D9-BA6B-B988DFB8211A";
shapes = (
{
closed = 1;
nodes = (
(106,398,o),
(103,395,o),
(103,386,cs),
(103,374,o),
(115,363,o),
(138,356,cs),
(162,349,o),
(194,344,o),
(236,344,c),
(236,348,l),
(211,351,o),
(190,354,o),
(171,360,cs),
(153,366,o),
(142,373,o),
(142,383,cs),
(142,389,o),
(144,394,o),
(146,396,c),
(113,403,l)
);
},
{
closed = 1;
nodes = (
(217,401,o),
(215,396,o),
(215,386,cs),
(215,375,o),
(226,364,o),
(249,356,cs),
(272,348,o),
(304,344,o),
(346,344,c),
(346,348,l),
(283,354,o),
(251,366,o),
(251,383,cs),
(251,387,o),
(253,392,o),
(258,396,c),
(222,403,l)
);
}
);
width = 449;
}
);
note = u1D0AC;
unicode = 118956;
},
{
category = Letter;
glyphname = u1D0AD;
lastChange = "2018-08-24 12:55:27 +0000";
layers = (
{
layerId = "2208DBFF-11B0-48D9-BA6B-B988DFB8211A";
shapes = (
{
closed = 1;
nodes = (
(173,323,l),
(175,326,o),
(179,333,o),
(179,338,cs),
(179,345,o),
(173,353,o),
(162,361,cs),
(151,369,o),
(131,373,o),
(103,374,c),
(103,372,l),
(131,362,o),
(145,352,o),
(145,343,cs),
(145,337,o),
(143,333,o),
(137,330,c)
);
},
{
closed = 1;
nodes = (
(232,314,l),
(236,320,o),
(239,326,o),
(239,330,cs),
(239,336,o),
(233,345,o),
(221,355,cs),
(208,366,o),
(190,372,o),
(164,374,c),
(164,372,l),
(192,361,o),
(206,348,o),
(206,334,cs),
(206,330,o),
(203,325,o),
(197,322,c)
);
}
);
width = 343;
}
);
note = u1D0AD;
unicode = 118957;
},
{
category = Letter;
glyphname = u1D0AE;
lastChange = "2018-08-24 12:55:27 +0000";
layers = (
{
layerId = "2208DBFF-11B0-48D9-BA6B-B988DFB8211A";
shapes = (
{
closed = 1;
nodes = (
(173,308,l),
(177,312,o),
(179,316,o),
(179,322,cs),
(179,328,o),
(173,335,o),
(162,343,cs),
(151,351,o),
(131,356,o),
(103,360,c),
(103,354,l),
(122,352,o),
(145,339,o),
(145,325,cs),
(145,322,o),
(143,317,o),
(137,312,c)
);
},
{
closed = 1;
nodes = (
(240,300,l),
(245,303,o),
(247,307,o),
(247,312,cs),
(247,331,o),
(218,354,o),
(173,360,c),
(173,354,l),
(189,352,o),
(215,333,o),
(215,318,cs),
(215,314,o),
(213,311,o),
(209,307,cs),
(206,304,l)
);
},
{
closed = 1;
nodes = (
(128,396,l),
(139,385,o),
(148,380,o),
(156,380,cs),
(165,380,o),
(190,386,o),
(205,390,cs),
(213,392,o),
(229,396,o),
(241,396,cs),
(246,396,o),
(253,396,o),
(259,395,c),
(259,397,l),
(249,408,o),
(237,413,o),
(224,413,cs),
(212,413,o),
(194,410,o),
(183,405,cs),
(161,396,o),
(155,396,o),
(146,396,cs),
(140,396,o),
(134,397,o),
(128,401,c)
);
},
{
closed = 1;
nodes = (
(257,424,l),
(250,428,o),
(240,432,o),
(226,434,c),
(262,439,o),
(277,450,o),
(288,459,cs),
(298,468,o),
(305,479,o),
(310,489,cs),
(314,497,o),
(318,504,o),
(325,504,c),
(325,509,l),
(321,509,ls),
(318,509,o),
(310,510,o),
(308,510,cs),
(296,510,o),
(296,504,o),
(291,496,cs),
(284,486,o),
(275,473,o),
(263,463,cs),
(244,448,o),
(213,442,o),
(190,439,c),
(190,430,l),
(209,430,o),
(232,426,o),
(257,418,c)
);
}
);
width = 430;
}
);
note = u1D0AE;
unicode = 118958;
},
{
category = Letter;
glyphname = u1D0AF;
lastChange = "2018-08-24 12:55:27 +0000";
layers = (
{
layerId = "2208DBFF-11B0-48D9-BA6B-B988DFB8211A";
shapes = (
{
closed = 1;
nodes = (
(366,318,l),
(355,329,o),
(339,336,o),
(318,340,c),
(188,338,ls),
(148,337,o),
(120,341,o),
(103,346,c),
(103,343,l),
(112,330,o),
(129,320,o),
(152,314,c),
(296,318,ls),
(332,319,o),
(355,316,o),
(366,312,c)
);
},
{
closed = 1;
nodes = (
(343,279,o),
(335,283,o),
(325,283,cs),
(323,283,o),
(304,269,o),
(301,260,c),
(301,257,o),
(312,250,o),
(322,250,cs),
(325,250,o),
(333,258,o),
(346,271,c)
);
},
{
closed = 1;
nodes = (
(302,290,l),
(300,296,o),
(290,302,o),
(282,302,cs),
(278,302,o),
(260,288,o),
(258,280,c),
(258,273,o),
(269,268,o),
(279,268,cs),
(281,268,o),
(287,272,o),
(293,279,cs)
);
}
);
width = 469;
}
);
note = u1D0AF;
unicode = 118959;
},
{
category = Letter;
glyphname = u1D0B0;
lastChange = "2018-08-24 12:55:27 +0000";
layers = (
{
layerId = "2208DBFF-11B0-48D9-BA6B-B988DFB8211A";
shapes = (
{
closed = 1;
nodes = (
(373,386,l),
(360,396,o),
(344,402,o),
(326,402,cs),
(318,402,o),
(288,396,o),
(238,386,cs),
(187,376,o),
(142,370,o),
(103,370,c),
(106,365,l),
(119,356,o),
(133,351,o),
(147,351,cs),
(172,351,o),
(214,359,o),
(253,368,cs),
(283,375,o),
(326,382,o),
(339,382,cs),
(350,382,o),
(362,382,o),
(373,382,c)
);
},
{
closed = 1;
nodes = (
(353,319,l),
(348,319,o),
(340,323,o),
(337,331,cs),
(332,343,ls),
(327,355,o),
(315,360,o),
(304,360,cs),
(299,360,o),
(294,358,o),
(288,355,c),
(288,353,l),
(294,353,o),
(297,348,o),
(301,340,cs),
(308,324,ls),
(312,316,o),
(319,311,o),
(336,311,cs),
(347,311,o),
(353,312,o),
(353,314,c)
);
},
{
closed = 1;
nodes = (
(403,329,l),
(395,329,o),
(391,332,o),
(388,337,cs),
(380,353,ls),
(375,362,o),
(365,366,o),
(354,366,cs),
(349,366,o),
(343,366,o),
(338,365,c),
(338,361,l),
(342,361,o),
(352,352,o),
(353,345,cs),
(354,337,ls),
(355,326,o),
(371,319,o),
(386,319,cs),
(392,319,o),
(397,320,o),
(403,323,c)
);
}
);
width = 506;
}
);
note = u1D0B0;
unicode = 118960;
},
{
category = Letter;
glyphname = u1D0B1;
lastChange = "2018-08-24 12:55:27 +0000";
layers = (
{
layerId = "2208DBFF-11B0-48D9-BA6B-B988DFB8211A";
shapes = (
{
closed = 1;
nodes = (
(115,262,l),
(108,251,o),
(103,240,o),
(103,230,cs),
(103,207,o),
(115,185,o),
(142,185,cs),
(154,185,o),
(163,187,o),
(168,191,cs),
(174,195,o),
(190,208,o),
(217,232,c),
(250,213,o),
(280,170,o),
(280,146,cs),
(280,138,o),
(277,125,o),
(271,107,c),
(288,101,l),
(449,213,ls),
(458,219,o),
(463,227,o),
(463,236,cs),
(463,245,o),
(457,250,o),
(444,250,cs),
(434,250,o),
(425,240,o),
(425,232,cs),
(425,224,o),
(422,214,o),
(415,209,cs),
(310,132,l),
(313,143,o),
(314,153,o),
(314,164,cs),
(314,212,o),
(287,247,o),
(232,268,c),
(192,228,o),
(167,208,o),
(158,208,cs),
(149,208,o),
(145,214,o),
(145,226,cs),
(145,243,o),
(148,256,o),
(156,266,c)
);
}
);
width = 568;
}
);
note = u1D0B1;
unicode = 118961;
},
{
category = Letter;
glyphname = u1D0B2;
lastChange = "2018-08-24 12:55:27 +0000";
layers = (
{
layerId = "2208DBFF-11B0-48D9-BA6B-B988DFB8211A";
shapes = (
{
closed = 1;
nodes = (
(422,288,l),
(414,296,o),
(407,300,o),
(401,300,cs),
(362,300,o),
(325,265,o),
(325,232,cs),
(325,215,o),
(335,206,o),
(355,206,cs),
(386,206,o),
(407,218,o),
(416,242,c),
(411,224,o),
(409,213,o),
(409,203,cs),
(409,197,o),
(410,192,o),
(412,188,c),
(310,132,l),
(313,143,o),
(314,153,o),
(314,164,cs),
(314,212,o),
(287,247,o),
(232,268,c),
(192,228,o),
(167,208,o),
(158,208,cs),
(149,208,o),
(145,214,o),
(145,226,cs),
(145,243,o),
(148,256,o),
(156,266,c),
(115,262,l),
(108,251,o),
(103,243,o),
(103,230,cs),
(103,207,o),
(115,185,o),
(142,185,cs),
(154,185,o),
(163,187,o),
(168,191,cs),
(174,195,o),
(190,208,o),
(217,232,c),
(250,213,o),
(280,170,o),
(280,146,cs),
(280,138,o),
(277,125,o),
(271,107,c),
(288,101,l),
(416,173,l),
(424,160,o),
(436,147,o),
(458,133,cs),
(480,119,o),
(490,104,o),
(490,92,cs),
(490,79,o),
(485,60,o),
(474,37,c),
(481,37,l),
(500,61,o),
(509,80,o),
(509,94,cs),
(509,111,o),
(499,127,o),
(477,144,cs),
(454,161,o),
(442,173,o),
(438,185,c),
(480,208,o),
(506,223,o),
(517,232,cs),
(528,241,o),
(533,249,o),
(533,258,cs),
(533,265,o),
(527,269,o),
(516,269,cs),
(504,269,o),
(496,260,o),
(496,252,cs),
(496,245,o),
(491,236,o),
(483,231,cs),
(433,200,l),
(433,209,ls),
(433,218,o),
(436,230,o),
(438,241,cs),
(449,294,l),
(422,301,l)
);
},
{
closed = 1;
nodes = (
(361,254,o),
(389,287,o),
(403,287,cs),
(409,287,o),
(412,283,o),
(412,274,cs),
(412,251,o),
(387,222,o),
(373,222,cs),
(365,222,o),
(361,227,o),
(361,235,cs)
);
},
{
closed = 1;
nodes = (
(467,319,l),
(472,326,o),
(474,332,o),
(474,334,cs),
(474,340,o),
(468,348,o),
(457,359,cs),
(445,370,o),
(425,376,o),
(397,380,c),
(397,374,l),
(416,372,o),
(439,354,o),
(439,338,cs),
(439,334,o),
(437,330,o),
(432,325,c)
);
},
{
closed = 1;
nodes = (
(404,325,l),
(409,332,o),
(412,337,o),
(412,340,cs),
(412,347,o),
(406,353,o),
(395,362,cs),
(384,371,o),
(364,375,o),
(336,377,c),
(336,373,l),
(354,371,o),
(377,360,o),
(377,344,cs),
(377,340,o),
(375,335,o),
(370,331,c)
);
}
);
width = 636;
}
);
note = u1D0B2;
unicode = 118962;
},
{
category = Letter;
glyphname = u1D0B3;
lastChange = "2018-08-24 12:55:27 +0000";
layers = (
{
layerId = "2208DBFF-11B0-48D9-BA6B-B988DFB8211A";
shapes = (
{
closed = 1;
nodes = (
(238,265,o),
(236,251,o),
(236,242,cs),
(236,213,o),
(248,199,o),
(271,199,cs),
(282,199,o),
(291,201,o),
(296,204,c),
(296,208,l),
(280,222,o),
(276,229,o),
(276,250,cs),
(276,261,o),
(276,272,o),
(278,283,c),
(329,283,l),
(329,296,l),
(121,296,ls),
(109,296,o),
(103,293,o),
(103,287,cs),
(103,278,o),
(107,274,o),
(115,274,cs),
(122,274,o),
(127,277,o),
(132,283,c),
(182,283,l),
(179,255,o),
(172,230,o),
(164,208,c),
(168,206,o),
(171,205,o),
(177,205,cs),
(189,205,o),
(199,208,o),
(206,216,c),
(208,232,o),
(210,254,o),
(210,283,c),
(242,283,l)
);
},
{
closed = 1;
nodes = (
(115,474,l),
(149,470,o),
(175,450,o),
(193,415,c),
(189,397,o),
(159,358,o),
(131,334,c),
(167,330,l),
(185,348,o),
(199,366,o),
(208,383,c),
(233,343,o),
(262,323,o),
(294,323,cs),
(309,323,o),
(318,325,o),
(322,329,c),
(322,331,l),
(288,333,o),
(259,359,o),
(235,407,cs),
(211,454,o),
(180,478,o),
(142,478,cs),
(133,478,o),
(124,477,o),
(115,476,c)
);
},
{
closed = 1;
nodes = (
(460,193,o),
(494,232,o),
(494,268,cs),
(494,279,o),
(491,288,o),
(485,294,cs),
(462,315,o),
(455,332,o),
(454,352,cs),
(454,360,o),
(459,366,o),
(469,366,cs),
(490,366,o),
(506,345,o),
(506,310,cs),
(506,269,ls),
(506,262,o),
(507,256,o),
(510,252,c),
(535,245,ls),
(549,241,o),
(556,232,o),
(556,217,c),
(553,204,l),
(577,196,l),
(581,210,l),
(581,237,o),
(561,259,o),
(538,259,cs),
(531,259,o),
(525,261,o),
(521,266,c),
(521,269,l),
(524,282,o),
(527,295,o),
(527,310,cs),
(527,364,o),
(507,391,o),
(467,391,cs),
(442,391,o),
(430,381,o),
(430,361,cs),
(430,342,o),
(440,320,o),
(460,294,c),
(423,291,o),
(382,250,o),
(382,222,cs),
(382,203,o),
(393,193,o),
(414,193,cs)
);
},
{
closed = 1;
nodes = (
(424,209,o),
(422,212,o),
(422,218,cs),
(422,238,o),
(448,282,o),
(466,282,cs),
(474,282,o),
(478,277,o),
(478,267,cs),
(478,243,o),
(449,209,o),
(430,209,cs)
);
},
{
closed = 1;
nodes = (
(506,404,l),
(509,407,o),
(511,412,o),
(511,418,cs),
(511,425,o),
(506,435,o),
(496,445,cs),
(485,455,o),
(466,462,o),
(438,466,c),
(438,460,l),
(456,456,o),
(478,439,o),
(478,424,cs),
(478,419,o),
(475,416,o),
(469,412,c)
);
},
{
closed = 1;
nodes = (
(444,412,l),
(447,415,o),
(449,419,o),
(449,425,cs),
(449,432,o),
(444,439,o),
(434,447,cs),
(423,456,o),
(403,460,o),
(374,463,c),
(374,458,l),
(392,456,o),
(416,444,o),
(416,430,cs),
(416,426,o),
(415,422,o),
(412,420,cs),
(408,416,l)
);
}
);
width = 684;
}
);
note = u1D0B3;
unicode = 118963;
},
{
category = Letter;
glyphname = u1D0B4;
lastChange = "2018-08-24 12:55:27 +0000";
layers = (
{
layerId = "2208DBFF-11B0-48D9-BA6B-B988DFB8211A";
shapes = (
{
closed = 1;
nodes = (
(175,122,l),
(156,122,o),
(146,133,o),
(146,154,cs),
(146,180,o),
(157,193,o),
(179,193,cs),
(199,193,o),
(209,177,o),
(209,148,cs),
(210,90,ls),
(210,74,o),
(223,44,o),
(255,44,cs),
(271,44,o),
(286,48,o),
(296,55,c),
(296,60,l),
(271,64,o),
(259,74,o),
(259,89,cs),
(258,149,ls),
(257,185,o),
(227,208,o),
(179,208,cs),
(128,208,o),
(103,188,o),
(103,146,cs),
(103,122,o),
(117,110,o),
(144,110,cs),
(154,110,o),
(165,113,o),
(175,118,c)
);
}
);
width = 401;
}
);
note = u1D0B4;
unicode = 118964;
},
{
category = Letter;
glyphname = u1D0B5;
lastChange = "2018-08-24 12:55:27 +0000";
layers = (
{
layerId = "2208DBFF-11B0-48D9-BA6B-B988DFB8211A";
shapes = (
{
closed = 1;
nodes = (
(131,252,ls),
(117,252,o),
(111,243,o),
(110,226,cs),
(106,134,ls),
(106,133,o),
(106,132,o),
(106,131,cs),
(106,94,o),
(139,60,o),
(175,60,cs),
(200,60,o),
(216,69,o),
(222,86,c),
(230,70,o),
(243,62,o),
(262,62,cs),
(278,62,o),
(291,67,o),
(301,77,c),
(301,84,l),
(295,81,o),
(286,79,o),
(271,79,cs),
(250,79,o),
(240,95,o),
(240,125,cs),
(240,138,o),
(234,144,o),
(222,144,cs),
(207,144,o),
(200,137,o),
(199,124,cs),
(197,102,ls),
(195,85,o),
(188,77,o),
(174,77,cs),
(155,77,o),
(144,96,o),
(146,127,cs),
(151,211,ls),
(152,220,o),
(152,223,o),
(152,232,cs),
(152,245,o),
(146,252,o),
(138,252,cs)
);
}
);
width = 404;
}
);
note = u1D0B5;
unicode = 118965;
},
{
category = Letter;
glyphname = u1D0B6;
lastChange = "2018-08-24 12:55:27 +0000";
layers = (
{
layerId = "2208DBFF-11B0-48D9-BA6B-B988DFB8211A";
shapes = (
{
closed = 1;
nodes = (
(314,481,l),
(298,522,o),
(260,547,o),
(215,547,cs),
(196,547,o),
(171,544,o),
(142,539,c),
(148,546,o),
(156,553,o),
(180,567,cs),
(192,574,o),
(208,583,o),
(228,593,c),
(234,600,l),
(234,605,o),
(204,611,o),
(185,611,c),
(187,613,o),
(190,614,o),
(193,615,cs),
(202,618,o),
(209,622,o),
(215,625,cs),
(225,630,o),
(230,635,o),
(230,640,c),
(203,642,ls),
(188,643,o),
(180,646,o),
(174,654,c),
(190,658,o),
(206,666,o),
(220,673,cs),
(234,680,o),
(242,688,o),
(242,692,cs),
(242,699,o),
(238,703,o),
(230,703,cs),
(226,703,o),
(223,702,o),
(221,701,cs),
(218,699,o),
(217,698,o),
(217,697,cs),
(217,693,o),
(219,691,o),
(222,691,c),
(215,684,o),
(209,680,o),
(194,673,cs),
(183,668,o),
(169,666,o),
(162,664,cs),
(156,662,o),
(152,659,o),
(152,655,cs),
(152,646,o),
(164,638,o),
(188,631,c),
(172,622,ls),
(159,615,o),
(152,606,o),
(152,604,cs),
(152,597,o),
(163,593,o),
(185,593,cs),
(196,593,l),
(172,587,o),
(103,547,o),
(103,530,cs),
(103,524,o),
(109,521,o),
(122,521,cs),
(127,521,o),
(136,523,o),
(149,527,cs),
(162,531,o),
(180,533,o),
(204,533,cs),
(235,533,o),
(253,525,o),
(276,491,c)
);
}
);
width = 418;
}
);
note = u1D0B6;
unicode = 118966;
},
{
category = Letter;
glyphname = u1D0B7;
lastChange = "2018-08-24 12:55:27 +0000";
layers = (
{
layerId = "2208DBFF-11B0-48D9-BA6B-B988DFB8211A";
shapes = (
{
closed = 1;
nodes = (
(397,216,o),
(416,230,o),
(416,258,cs),
(416,283,o),
(388,314,o),
(355,314,cs),
(319,314,o),
(293,282,o),
(293,258,cs),
(293,231,o),
(308,217,o),
(338,215,c),
(334,173,l),
(307,175,o),
(268,188,o),
(252,215,c),
(257,222,o),
(260,231,o),
(260,242,cs),
(260,262,o),
(251,282,o),
(232,282,cs),
(213,282,o),
(204,271,o),
(204,247,cs),
(204,231,o),
(211,217,o),
(224,206,c),
(199,170,o),
(174,152,o),
(149,152,cs),
(143,152,o),
(136,154,o),
(129,158,cs),
(123,162,o),
(117,163,o),
(114,163,cs),
(106,163,o),
(103,157,o),
(103,144,cs),
(103,130,o),
(114,121,o),
(128,121,cs),
(163,121,o),
(218,161,o),
(236,190,c),
(255,171,o),
(287,156,o),
(331,146,c),
(330,111,ls),
(329,93,o),
(330,74,o),
(343,74,cs),
(354,74,o),
(362,89,o),
(362,96,cs),
(362,103,o),
(359,107,o),
(353,110,c),
(354,146,l),
(394,146,o),
(447,161,o),
(474,190,c),
(487,163,o),
(545,121,o),
(581,121,cs),
(597,121,o),
(605,129,o),
(605,144,cs),
(605,157,o),
(602,163,o),
(595,163,cs),
(592,163,o),
(587,161,o),
(581,158,cs),
(574,154,o),
(567,152,o),
(560,152,cs),
(535,152,o),
(510,170,o),
(485,206,c),
(499,218,o),
(506,232,o),
(506,247,cs),
(506,261,o),
(499,282,o),
(476,282,cs),
(460,282,o),
(448,262,o),
(448,242,cs),
(448,231,o),
(451,222,o),
(456,215,c),
(440,188,o),
(399,173,o),
(355,173,c),
(361,215,l)
);
},
{
closed = 1;
nodes = (
(323,240,o),
(314,248,o),
(314,260,cs),
(314,279,o),
(325,293,o),
(346,301,c),
(340,239,l)
);
},
{
closed = 1;
nodes = (
(387,291,o),
(395,277,o),
(395,260,cs),
(395,248,o),
(384,240,o),
(362,239,c),
(370,300,l)
);
}
);
width = 708;
}
);
note = u1D0B7;
unicode = 118967;
},
{
category = Letter;
glyphname = u1D0B8;
lastChange = "2018-08-24 12:55:27 +0000";
layers = (
{
layerId = "2208DBFF-11B0-48D9-BA6B-B988DFB8211A";
shapes = (
{
closed = 1;
nodes = (
(255,171,o),
(287,156,o),
(331,146,c),
(330,114,ls),
(329,96,o),
(330,74,o),
(343,74,cs),
(354,74,o),
(362,89,o),
(362,96,cs),
(362,103,o),
(359,107,o),
(353,110,c),
(354,146,l),
(394,146,o),
(447,161,o),
(474,190,c),
(487,163,o),
(545,121,o),
(581,121,cs),
(597,121,o),
(605,129,o),
(605,144,cs),
(605,157,o),
(602,163,o),
(595,163,cs),
(592,163,o),
(587,161,o),
(581,158,cs),
(574,154,o),
(567,152,o),
(560,152,cs),
(535,152,o),
(510,170,o),
(485,206,c),
(499,218,o),
(506,232,o),
(506,247,cs),
(506,261,o),
(499,282,o),
(476,282,cs),
(460,282,o),
(448,262,o),
(448,242,cs),
(448,231,o),
(451,222,o),
(456,215,c),
(440,188,o),
(399,173,o),
(355,173,c),
(361,215,l),
(397,216,o),
(416,230,o),
(416,258,cs),
(416,282,o),
(399,307,o),
(370,312,c),
(370,319,l),
(407,322,o),
(425,334,o),
(425,355,cs),
(425,374,o),
(415,383,o),
(395,383,cs),
(370,383,o),
(354,365,o),
(352,334,c),
(343,334,l),
(343,319,l),
(348,319,l),
(348,314,l),
(317,313,o),
(293,283,o),
(293,258,cs),
(293,231,o),
(308,217,o),
(338,215,c),
(334,173,l),
(307,175,o),
(268,188,o),
(252,215,c),
(257,222,o),
(260,231,o),
(260,242,cs),
(260,262,o),
(251,282,o),
(232,282,cs),
(213,282,o),
(204,271,o),
(204,247,cs),
(204,231,o),
(211,217,o),
(224,206,c),
(199,170,o),
(174,152,o),
(149,152,cs),
(143,152,o),
(136,154,o),
(129,158,cs),
(123,162,o),
(117,163,o),
(114,163,cs),
(106,163,o),
(103,157,o),
(103,144,cs),
(103,130,o),
(114,121,o),
(128,121,cs),
(163,121,o),
(218,161,o),
(236,190,c)
);
},
{
closed = 1;
nodes = (
(323,240,o),
(314,248,o),
(314,260,cs),
(314,279,o),
(325,293,o),
(346,301,c),
(340,239,l)
);
},
{
closed = 1;
nodes = (
(387,291,o),
(395,277,o),
(395,260,cs),
(395,248,o),
(384,240,o),
(362,239,c),
(370,300,l)
);
},
{
closed = 1;
nodes = (
(404,370,o),
(408,365,o),
(408,355,cs),
(408,343,o),
(391,334,o),
(372,334,c),
(374,358,o),
(382,370,o),
(395,370,cs)
);
}
);
width = 708;
}
);
note = u1D0B8;
unicode = 118968;
},
{
category = Letter;
glyphname = u1D0B9;
lastChange = "2018-08-24 12:55:27 +0000";
layers = (
{
layerId = "2208DBFF-11B0-48D9-BA6B-B988DFB8211A";
shapes = (
{
closed = 1;
nodes = (
(103,487,l),
(117,475,o),
(129,469,o),
(138,469,cs),
(152,469,o),
(164,482,o),
(176,498,cs),
(181,505,o),
(187,513,o),
(193,521,c),
(201,519,o),
(209,517,o),
(217,517,cs),
(240,517,o),
(251,525,o),
(251,542,cs),
(251,557,o),
(243,566,o),
(226,571,c),
(230,578,l),
(238,577,o),
(241,577,o),
(246,577,cs),
(266,577,o),
(276,583,o),
(276,595,cs),
(276,606,o),
(268,612,o),
(252,612,cs),
(236,612,o),
(226,600,o),
(210,578,c),
(204,582,o),
(196,584,o),
(185,584,cs),
(164,584,o),
(154,575,o),
(154,558,cs),
(154,542,o),
(170,533,o),
(179,528,c),
(158,499,o),
(142,485,o),
(132,485,cs),
(122,485,o),
(112,488,o),
(103,494,c)
);
},
{
closed = 1;
nodes = (
(187,541,l),
(178,543,o),
(174,549,o),
(174,559,cs),
(174,568,o),
(180,573,o),
(196,573,cs),
(198,573,o),
(204,572,o),
(208,570,c)
);
},
{
closed = 1;
nodes = (
(218,563,l),
(227,560,o),
(232,554,o),
(232,547,cs),
(232,536,o),
(226,531,o),
(215,531,cs),
(210,531,o),
(205,533,o),
(200,535,c)
);
},
{
closed = 1;
nodes = (
(235,589,l),
(244,598,o),
(250,602,o),
(252,602,cs),
(257,602,o),
(260,600,o),
(260,595,cs),
(260,591,o),
(253,589,o),
(241,589,cs)
);
}
);
width = 380;
}
);
note = u1D0B9;
unicode = 118969;
},
{
category = Letter;
glyphname = u1D0BA;
lastChange = "2018-08-24 12:55:27 +0000";
layers = (
{
layerId = "2208DBFF-11B0-48D9-BA6B-B988DFB8211A";
shapes = (
{
closed = 1;
nodes = (
(146,460,l),
(173,466,l),
(170,518,l),
(201,521,o),
(222,541,o),
(222,562,cs),
(222,589,o),
(204,602,o),
(167,602,cs),
(128,602,o),
(103,578,o),
(103,553,cs),
(103,533,o),
(126,519,o),
(152,517,c)
);
},
{
closed = 1;
nodes = (
(137,569,o),
(146,588,o),
(167,588,cs),
(181,588,o),
(188,580,o),
(188,563,cs),
(188,547,o),
(175,530,o),
(158,530,cs),
(144,530,o),
(137,539,o),
(137,556,cs)
);
}
);
width = 325;
}
);
note = u1D0BA;
unicode = 118970;
},
{
category = Letter;
glyphname = u1D0BB;
lastChange = "2018-08-24 12:55:27 +0000";
layers = (
{
layerId = "2208DBFF-11B0-48D9-BA6B-B988DFB8211A";
shapes = (
{
closed = 1;
nodes = (
(179,660,l),
(152,654,l),
(154,599,l),
(122,595,o),
(103,577,o),
(103,553,cs),
(103,533,o),
(126,519,o),
(152,517,c),
(146,460,l),
(173,466,l),
(170,518,l),
(201,521,o),
(222,541,o),
(222,562,cs),
(222,589,o),
(205,602,o),
(170,602,c)
);
},
{
closed = 1;
nodes = (
(137,569,o),
(146,588,o),
(167,588,cs),
(181,588,o),
(188,580,o),
(188,563,cs),
(188,547,o),
(175,530,o),
(158,530,cs),
(144,530,o),
(137,539,o),
(137,556,cs)
);
}
);
width = 325;
}
);
note = u1D0BB;
unicode = 118971;
},
{
category = Letter;
glyphname = u1D0BC;
lastChange = "2018-08-24 12:55:27 +0000";
layers = (
{
layerId = "2208DBFF-11B0-48D9-BA6B-B988DFB8211A";
shapes = (
{
closed = 1;
nodes = (
(334,72,o),
(361,60,o),
(415,60,cs),
(463,60,o),
(526,69,o),
(604,86,c),
(598,107,l),
(537,92,o),
(484,84,o),
(442,84,cs),
(422,84,o),
(412,88,o),
(412,96,cs),
(412,110,o),
(421,124,o),
(439,137,c),
(439,144,l),
(288,144,l),
(283,187,o),
(262,217,o),
(240,217,cs),
(216,217,o),
(196,187,o),
(190,144,c),
(110,144,l),
(103,124,l),
(190,124,l),
(190,71,o),
(216,55,o),
(240,55,cs),
(260,55,o),
(287,70,o),
(288,124,c),
(360,124,l),
(343,120,o),
(334,110,o),
(334,95,cs)
);
},
{
closed = 1;
nodes = (
(217,177,o),
(225,193,o),
(240,193,cs),
(252,193,o),
(259,177,o),
(262,144,c),
(216,144,l)
);
},
{
closed = 1;
nodes = (
(260,98,o),
(252,85,o),
(240,85,cs),
(225,85,o),
(217,98,o),
(216,124,c),
(262,124,l)
);
}
);
width = 707;
}
);
note = u1D0BC;
unicode = 118972;
},
{
category = Letter;
glyphname = u1D0BD;
lastChange = "2018-08-24 12:55:27 +0000";
layers = (
{
layerId = "2208DBFF-11B0-48D9-BA6B-B988DFB8211A";
shapes = (
{
closed = 1;
nodes = (
(158,577,l),
(149,564,o),
(145,549,o),
(145,533,cs),
(145,509,o),
(163,499,o),
(182,499,cs),
(195,499,o),
(207,505,o),
(217,517,c),
(269,458,l),
(283,478,l),
(230,528,l),
(238,539,o),
(242,554,o),
(242,571,cs),
(242,594,o),
(231,605,o),
(208,605,cs),
(193,605,o),
(181,600,o),
(170,589,c),
(118,647,l),
(103,625,l)
);
},
{
closed = 1;
nodes = (
(170,572,o),
(177,581,o),
(190,581,cs),
(209,581,o),
(216,562,o),
(216,550,cs),
(216,531,o),
(209,521,o),
(196,521,cs),
(180,521,o),
(170,534,o),
(170,553,cs)
);
}
);
width = 388;
}
);
note = u1D0BD;
unicode = 118973;
},
{
category = Letter;
glyphname = u1D0BE;
lastChange = "2018-08-24 12:55:27 +0000";
layers = (
{
layerId = "2208DBFF-11B0-48D9-BA6B-B988DFB8211A";
shapes = (
{
closed = 1;
nodes = (
(283,467,l),
(302,485,l),
(250,530,l),
(256,537,o),
(259,544,o),
(259,553,cs),
(259,578,o),
(235,602,o),
(196,602,cs),
(187,602,o),
(179,601,o),
(174,599,c),
(156,619,l),
(185,640,l),
(174,650,l),
(146,629,l),
(122,654,l),
(103,640,l),
(131,614,l),
(103,589,l),
(113,582,l),
(142,605,l),
(157,593,l),
(147,585,o),
(142,575,o),
(142,562,cs),
(142,541,o),
(163,517,o),
(208,517,cs),
(219,517,o),
(228,519,o),
(236,521,c)
);
},
{
closed = 1;
nodes = (
(174,580,o),
(181,588,o),
(196,588,cs),
(216,588,o),
(226,569,o),
(226,556,cs),
(226,541,o),
(217,530,o),
(204,530,cs),
(187,530,o),
(174,547,o),
(174,563,cs)
);
}
);
width = 406;
}
);
note = u1D0BE;
unicode = 118974;
},
{
category = Letter;
glyphname = u1D0BF;
lastChange = "2018-08-24 12:55:27 +0000";
layers = (
{
layerId = "2208DBFF-11B0-48D9-BA6B-B988DFB8211A";
shapes = (
{
closed = 1;
nodes = (
(179,602,l),
(154,598,l),
(156,542,l),
(124,540,o),
(103,521,o),
(103,499,cs),
(103,473,o),
(121,460,o),
(157,460,cs),
(197,460,o),
(222,484,o),
(222,509,cs),
(222,528,o),
(199,542,o),
(174,546,c)
);
},
{
closed = 1;
nodes = (
(188,495,o),
(179,475,o),
(157,475,cs),
(144,475,o),
(137,483,o),
(137,498,cs),
(137,517,o),
(148,530,o),
(166,530,cs),
(181,530,o),
(188,522,o),
(188,506,cs)
);
}
);
width = 325;
}
);
note = u1D0BF;
unicode = 118975;
},
{
category = Letter;
glyphname = u1D0C0;
lastChange = "2018-08-24 12:55:27 +0000";
layers = (
{
layerId = "2208DBFF-11B0-48D9-BA6B-B988DFB8211A";
shapes = (
{
closed = 1;
nodes = (
(222,667,l),
(245,667,l),
(235,683,l),
(250,689,o),
(261,697,o),
(268,708,c),
(266,714,l),
(261,708,o),
(249,702,o),
(228,694,c),
(215,715,l),
(197,706,l),
(208,689,l),
(170,676,o),
(152,664,o),
(152,655,cs),
(152,646,o),
(164,638,o),
(188,631,c),
(172,623,ls),
(159,616,o),
(152,606,o),
(152,604,cs),
(152,597,o),
(163,593,o),
(185,593,cs),
(196,593,l),
(172,587,o),
(103,547,o),
(103,530,cs),
(103,524,o),
(109,521,o),
(122,521,cs),
(127,521,o),
(136,523,o),
(149,527,cs),
(162,531,o),
(180,533,o),
(204,533,cs),
(235,533,o),
(253,525,o),
(276,491,c),
(314,481,l),
(298,522,o),
(260,547,o),
(215,547,cs),
(196,547,o),
(171,544,o),
(142,539,c),
(152,550,o),
(170,563,o),
(189,572,cs),
(197,576,o),
(221,589,o),
(228,593,c),
(234,600,l),
(234,605,o),
(204,611,o),
(185,611,c),
(189,613,ls),
(198,618,o),
(211,622,o),
(217,625,cs),
(226,631,o),
(230,635,o),
(230,640,c),
(226,642,o),
(222,643,o),
(218,643,cs),
(211,644,o),
(204,645,o),
(197,646,cs),
(182,648,o),
(174,652,o),
(174,656,cs),
(174,661,o),
(188,667,o),
(216,676,c)
);
}
);
width = 418;
}
);
note = u1D0C0;
unicode = 118976;
},
{
category = Letter;
glyphname = u1D0C1;
lastChange = "2018-08-24 12:55:27 +0000";
layers = (
{
layerId = "2208DBFF-11B0-48D9-BA6B-B988DFB8211A";
shapes = (
{
closed = 1;
nodes = (
(118,448,l),
(137,459,ls),
(144,463,o),
(151,467,o),
(164,467,cs),
(173,467,o),
(189,461,o),
(201,456,cs),
(216,450,o),
(229,446,o),
(240,446,cs),
(266,446,o),
(282,460,o),
(282,475,c),
(276,475,l),
(272,467,o),
(264,463,o),
(251,463,cs),
(241,463,o),
(229,467,o),
(215,477,cs),
(202,486,o),
(188,490,o),
(174,490,cs),
(170,490,l),
(170,518,l),
(201,521,o),
(222,541,o),
(222,562,cs),
(222,589,o),
(204,602,o),
(167,602,cs),
(128,602,o),
(103,578,o),
(103,553,cs),
(103,533,o),
(126,519,o),
(152,517,c),
(146,484,l),
(139,479,o),
(128,469,o),
(114,452,c)
);
},
{
closed = 1;
nodes = (
(137,569,o),
(146,588,o),
(167,588,cs),
(181,588,o),
(188,580,o),
(188,563,cs),
(188,547,o),
(175,530,o),
(158,530,cs),
(144,530,o),
(137,539,o),
(137,556,cs)
);
}
);
width = 386;
}
);
note = u1D0C1;
unicode = 118977;
},
{
category = Letter;
glyphname = u1D0C2;
lastChange = "2018-08-24 12:55:27 +0000";
layers = (
{
layerId = "2208DBFF-11B0-48D9-BA6B-B988DFB8211A";
shapes = (
{
closed = 1;
nodes = (
(179,654,l),
(160,654,o),
(151,646,o),
(152,632,cs),
(154,599,l),
(122,598,o),
(103,574,o),
(103,553,cs),
(103,533,o),
(126,519,o),
(152,517,c),
(146,484,l),
(139,479,o),
(128,469,o),
(114,452,c),
(118,448,l),
(139,460,ls),
(146,464,o),
(154,467,o),
(161,467,cs),
(174,467,o),
(188,462,o),
(200,456,cs),
(210,451,o),
(231,446,o),
(240,446,cs),
(266,446,o),
(282,460,o),
(282,475,c),
(276,475,l),
(272,467,o),
(264,463,o),
(251,463,cs),
(241,463,o),
(229,467,o),
(215,477,cs),
(202,486,o),
(188,490,o),
(174,490,cs),
(170,490,l),
(170,518,l),
(201,521,o),
(222,541,o),
(222,562,cs),
(222,589,o),
(205,602,o),
(170,602,c)
);
},
{
closed = 1;
nodes = (
(137,569,o),
(146,588,o),
(167,588,cs),
(181,588,o),
(188,580,o),
(188,563,cs),
(188,547,o),
(175,530,o),
(158,530,cs),
(144,530,o),
(137,539,o),
(137,556,cs)
);
}
);
width = 386;
}
);
note = u1D0C2;
unicode = 118978;
},
{
category = Letter;
glyphname = u1D0C3;
lastChange = "2018-08-24 12:55:27 +0000";
layers = (
{
layerId = "2208DBFF-11B0-48D9-BA6B-B988DFB8211A";
shapes = (
{
closed = 1;
nodes = (
(154,530,o),
(110,527,o),
(107,526,cs),
(104,525,o),
(103,523,o),
(103,521,cs),
(103,519,o),
(107,518,o),
(115,518,cs),
(240,521,l),
(240,485,o),
(251,468,o),
(274,468,cs),
(297,468,o),
(308,485,o),
(308,521,c),
(331,521,o),
(352,517,o),
(369,512,cs),
(385,507,o),
(395,499,o),
(395,490,cs),
(395,485,o),
(391,478,o),
(382,469,c),
(386,467,o),
(394,466,o),
(406,466,cs),
(419,466,o),
(426,473,o),
(426,487,cs),
(426,516,o),
(387,532,o),
(308,535,c),
(302,570,o),
(291,588,o),
(274,588,cs),
(258,588,o),
(243,568,o),
(240,535,c)
);
},
{
closed = 1;
nodes = (
(290,500,o),
(285,490,o),
(274,490,cs),
(263,490,o),
(258,500,o),
(258,521,c),
(290,521,l)
);
},
{
closed = 1;
nodes = (
(259,558,o),
(265,570,o),
(274,570,cs),
(282,570,o),
(288,558,o),
(290,535,c),
(258,535,l)
);
}
);
width = 530;
}
);
note = u1D0C3;
unicode = 118979;
},
{
category = Letter;
glyphname = u1D0C4;
lastChange = "2018-08-24 12:55:27 +0000";
layers = (
{
layerId = "2208DBFF-11B0-48D9-BA6B-B988DFB8211A";
shapes = (
{
closed = 1;
nodes = (
(170,521,l),
(178,519,o),
(188,517,o),
(199,517,cs),
(246,517,o),
(266,541,o),
(266,562,cs),
(266,573,o),
(261,583,o),
(250,593,c),
(266,605,l),
(294,582,l),
(302,589,l),
(276,614,l),
(302,640,l),
(283,654,l),
(259,629,l),
(232,650,l),
(222,640,l),
(251,619,l),
(232,599,l),
(227,601,o),
(219,602,o),
(210,602,cs),
(173,602,o),
(146,578,o),
(146,553,cs),
(146,549,o),
(148,539,o),
(157,530,c),
(103,485,l),
(122,467,l)
);
},
{
closed = 1;
nodes = (
(180,569,o),
(190,588,o),
(210,588,cs),
(225,588,o),
(232,580,o),
(232,563,cs),
(232,547,o),
(218,530,o),
(204,530,cs),
(188,530,o),
(180,539,o),
(180,556,cs)
);
}
);
width = 406;
}
);
note = u1D0C4;
unicode = 118980;
},
{
category = Letter;
glyphname = u1D0C5;
lastChange = "2018-08-24 12:55:27 +0000";
layers = (
{
layerId = "2208DBFF-11B0-48D9-BA6B-B988DFB8211A";
shapes = (
{
closed = 1;
nodes = (
(160,539,o),
(156,543,o),
(156,550,cs),
(156,562,o),
(170,568,o),
(200,568,cs),
(210,568,o),
(229,564,o),
(257,556,c),
(257,542,ls),
(257,493,o),
(272,468,o),
(304,468,cs),
(335,468,o),
(352,487,o),
(354,526,c),
(372,521,o),
(395,518,o),
(424,518,cs),
(485,518,o),
(516,528,o),
(516,547,cs),
(516,551,o),
(513,557,o),
(506,563,c),
(460,563,l),
(458,546,o),
(446,538,o),
(424,538,cs),
(405,538,o),
(382,542,o),
(354,550,c),
(353,602,o),
(331,640,o),
(304,640,cs),
(281,640,o),
(262,613,o),
(258,577,c),
(231,582,o),
(208,584,o),
(188,584,cs),
(162,584,o),
(142,581,o),
(126,574,cs),
(111,567,o),
(103,559,o),
(103,550,cs),
(103,531,o),
(114,521,o),
(136,521,cs),
(146,521,o),
(156,526,o),
(167,535,c)
);
},
{
closed = 1;
nodes = (
(287,599,o),
(294,613,o),
(304,613,cs),
(308,613,o),
(313,610,o),
(320,601,cs),
(326,593,o),
(330,579,o),
(330,559,c),
(282,570,l)
);
},
{
closed = 1;
nodes = (
(329,509,o),
(320,498,o),
(304,498,cs),
(288,498,o),
(280,514,o),
(280,547,c),
(330,530,l)
);
}
);
width = 619;
}
);
note = u1D0C5;
unicode = 118981;
},
